<svg xmlns="http://www.w3.org/2000/svg" xmlns:xlink="http://www.w3.org/1999/xlink" id="Layer_1" x="0px" y="0px" viewBox="0 0 740.1 193.1" style="enable-background:new 0 0 740.1 193.1;" xml:space="preserve"> <style type="text/css"> .st0{fill:#000000;} .st1{fill:none;stroke:#000000;stroke-width:2.352;stroke-miterlimit:10;} </style> <g> <path class="st0" d="M55.6,160.3c-4.9,6.6-33.7,13.6-32.4-19.7c1.2-33.3,43.9-24.7,43.9-24.7C69.5,140.2,60.5,153.8,55.6,160.3 M118.8,136.5l-8.6-0.4c0,0,2.5,17.3-7.8,16.9c-10.3-0.4-7-26.3-7-56.8c0-30.5-5.8-47.7-48.9-47.7C3.4,48.5,6.3,96.2,6.3,96.2 L35,93.7c0,0,0.4-17.7,18.9-18.1c18.5-0.4,16,32.1,16,32.1s-17.7,0-38.2,2.1c-20.5,2.1-34.5,19.3-29.6,48.1 c4.9,28.8,32,37.2,49.3,30.8c17.2-6.4,25.9-31.2,25.9-31.2s-1.2,9.9,3.3,21.4c4.5,11.5,18.1,16.2,30.8,7.4 C124.2,177.4,118.8,136.5,118.8,136.5"/> <path class="st1" d="M55.6,160.3c-4.9,6.6-33.7,13.6-32.4-19.7c1.2-33.3,43.9-24.7,43.9-24.7C69.5,140.2,60.5,153.8,55.6,160.3z M118.8,136.5l-8.6-0.4c0,0,2.5,17.3-7.8,16.9c-10.3-0.4-7-26.3-7-56.8c0-30.5-5.8-47.7-48.9-47.7C3.4,48.5,6.3,96.2,6.3,96.2 L35,93.7c0,0,0.4-17.7,18.9-18.1c18.5-0.4,16,32.1,16,32.1s-17.7,0-38.2,2.1c-20.5,2.1-34.5,19.3-29.6,48.1 c4.9,28.8,32,37.2,49.3,30.8c17.2-6.4,25.9-31.2,25.9-31.2s-1.2,9.9,3.3,21.4c4.5,11.5,18.1,16.2,30.8,7.4 C124.2,177.4,118.8,136.5,118.8,136.5z"/> <path class="st0" d="M674.6,161.1c-4.9,6.6-33.7,13.6-32.4-19.7c1.2-33.3,43.9-24.7,43.9-24.7C688.5,140.9,679.5,154.5,674.6,161.1 M737.8,137.2l-8.6-0.4c0,0,2.5,17.3-7.8,16.9c-10.3-0.4-7-26.3-7-56.8c0-30.5-5.8-47.7-48.9-47.7c-43.1,0-40.2,47.7-40.2,47.7 l28.7-2.4c0,0,0.4-17.7,18.9-18.1c18.5-0.4,16,32.1,16,32.1s-17.7,0-38.2,2.1c-20.5,2.1-34.5,19.3-29.6,48.1 c4.9,28.8,32,37.2,49.3,30.8c17.2-6.4,25.9-31.2,25.9-31.2s-1.2,9.9,3.3,21.4c4.5,11.5,18.1,16.2,30.8,7.4 C743.1,178.1,737.8,137.2,737.8,137.2"/> <path class="st1" d="M674.6,161.1c-4.9,6.6-33.7,13.6-32.4-19.7c1.2-33.3,43.9-24.7,43.9-24.7C688.5,140.9,679.5,154.5,674.6,161.1 z M737.8,137.2l-8.6-0.4c0,0,2.5,17.3-7.8,16.9c-10.3-0.4-7-26.3-7-56.8c0-30.5-5.8-47.7-48.9-47.7c-43.1,0-40.2,47.7-40.2,47.7 l28.7-2.4c0,0,0.4-17.7,18.9-18.1c18.5-0.4,16,32.1,16,32.1s-17.7,0-38.2,2.1c-20.5,2.1-34.5,19.3-29.6,48.1 c4.9,28.8,32,37.2,49.3,30.8c17.2-6.4,25.9-31.2,25.9-31.2s-1.2,9.9,3.3,21.4c4.5,11.5,18.1,16.2,30.8,7.4 C743.1,178.1,737.8,137.2,737.8,137.2z"/> <path class="st0" d="M122.7,74h-17.2v-7c0,0,27.1-6.2,28.3-65.8h18.5c0,0-11.1,62.5,34.5,61.3V74h-23.8v71.6c0,0-0.8,7.8,4.9,8.6 s5.7-17.7,5.7-17.7h13.1c0,0,2.5,43.6-16.4,50.2c-18.9,6.6-42.7,4.5-43.9-31.3C125.1,119.6,122.7,74,122.7,74"/> <path class="st1" d="M122.7,74h-17.2v-7c0,0,27.1-6.2,28.3-65.8h18.5c0,0-11.1,62.5,34.5,61.3V74h-23.8v71.6c0,0-0.8,7.8,4.9,8.6 s5.7-17.7,5.7-17.7h13.1c0,0,2.5,43.6-16.4,50.2c-18.9,6.6-42.7,4.5-43.9-31.3C125.1,119.6,122.7,74,122.7,74z"/> <path class="st0" d="M204.1,74h-8.6v-9.9h30c0,0,10.3-32.5,31.2-32.9c20.9-0.4,30.4,11.5,27.1,28.8c-3.3,17.3-22.6,14-27.1,11.1 s-13.1-11.9-9.9-22.6c3.3-10.7-14.4,10.3-14.4,37v82.6h12.3v22.7h-63.2v-10.3c0,0,17.7,6.1,21.8-22.9 C204.6,125.8,204.1,74,204.1,74"/> <path class="st1" d="M204.1,74h-8.6v-9.9h30c0,0,10.3-32.5,31.2-32.9c20.9-0.4,30.4,11.5,27.1,28.8c-3.3,17.3-22.6,14-27.1,11.1 s-13.1-11.9-9.9-22.6c3.3-10.7-14.4,10.3-14.4,37v82.6h12.3v22.7h-63.2v-10.3c0,0,17.7,6.1,21.8-22.9 C204.6,125.8,204.1,74,204.1,74z"/> <path class="st0" d="M278.1,110.7c2.2-13.9,14.9-26,32.6-26c15.1,0,24,16.6,27.7,25.2c1,2.4-0.7,5-3.3,5h-53.4 C279.4,114.9,277.8,112.9,278.1,110.7 M345.5,153.4c-9.4,13.2-35.7,14.8-53.4,10.3c-13.4-3.4-14.7-20.7-14.6-28.9 c0-2.4,2-4.3,4.4-4.3h71.8c-0.8-42.6-17.7-66.7-61.6-61.4c-43.9,5.3-50.5,53-49.7,69.5c0.8,16.4,15.6,49.7,56.7,53.1 c41.1,3.4,56.7-28.8,56.7-28.8L345.5,153.4z"/> <path class="st1" d="M278.1,110.7c2.2-13.9,14.9-26,32.6-26c15.1,0,24,16.6,27.7,25.2c1,2.4-0.7,5-3.3,5h-53.4 C279.4,114.9,277.8,112.9,278.1,110.7z M345.5,153.4c-9.4,13.2-35.7,14.8-53.4,10.3c-13.4-3.4-14.7-20.7-14.6-28.9 c0-2.4,2-4.3,4.4-4.3h71.8c-0.8-42.6-17.7-66.7-61.6-61.4c-43.9,5.3-50.5,53-49.7,69.5c0.8,16.4,15.6,49.7,56.7,53.1 c41.1,3.4,56.7-28.8,56.7-28.8L345.5,153.4z"/> <path class="st0" d="M385.1,190.8L353.5,74c0,0,0.4-9-21.4-9.9V48.5h48l20.9,93.7l15.6-65.8c0,0,3.3-12.7-17.2-12.7V48.5l43.1-1.6 v23.4l-30.4,120.5H385.1z"/> <path class="st1" d="M385.1,190.8L353.5,74c0,0,0.4-9-21.4-9.9V48.5h48l20.9,93.7l15.6-65.8c0,0,3.3-12.7-17.2-12.7V48.5l43.1-1.6 v23.4l-30.4,120.5H385.1z"/> <path class="st0" d="M435,190.8v-10.8c0,0,23.4-4.5,23.8-25.1c0.4-20.6,0-92.1,0-92.1h-9V48.5h40.6v122.1h14.4v21.3L435,190.8z"/> <path class="st1" d="M435,190.8v-10.8c0,0,23.4-4.5,23.8-25.1c0.4-20.6,0-92.1,0-92.1h-9V48.5h40.6v122.1h14.4v21.3L435,190.8z"/> <path class="st0" d="M580.5,147.6c0,0-7,24.3-28.3,22.2c-21.4-2.1-24.8-40.3-25.3-56.5c-0.8-32.1,19.9-50,35.9-40.9 c16,9,16,12.5,17.7,27.4C582.2,114.7,580.5,147.6,580.5,147.6 M606.4,169.4V1.2h-46.8v18.5c17.7,0,23,11.5,23,11.5v40.3 c-6.6-11.1-20.5-21-35.3-23c-14.8-2.1-44.4,13.2-48.5,66c-4.1,52.8,35.3,77.9,54.2,77.4c18.9-0.5,27.5-19.2,27.5-19.2l1.2-3.3v22.5 H620v-22.5H606.4z"/> <path class="st1" d="M580.5,147.6c0,0-7,24.3-28.3,22.2c-21.4-2.1-24.8-40.3-25.3-56.5c-0.8-32.1,19.9-50,35.9-40.9 c16,9,16,12.5,17.7,27.4C582.2,114.7,580.5,147.6,580.5,147.6z M606.4,169.4V1.2h-46.8v18.5c17.7,0,23,11.5,23,11.5v40.3 c-6.6-11.1-20.5-21-35.3-23c-14.8-2.1-44.4,13.2-48.5,66c-4.1,52.8,35.3,77.9,54.2,77.4c18.9-0.5,27.5-19.2,27.5-19.2l1.2-3.3v22.5 H620v-22.5H606.4z"/> <path class="st0" d="M487.9,22.5c0,9-7.3,16.4-16.4,16.4c-9,0-16.4-7.3-16.4-16.4c0-9,7.3-16.4,16.4-16.4 C480.6,6.1,487.9,13.4,487.9,22.5"/> <ellipse class="st1" cx="471.5" cy="22.5" rx="16.4" ry="16.4"/> </g> </svg>