<?xml version="1.0" standalone="no"?>
<!DOCTYPE svg PUBLIC "-//W3C//DTD SVG 20010904//EN"
 "http://www.w3.org/TR/2001/REC-SVG-20010904/DTD/svg10.dtd">
<svg version="1.0" xmlns="http://www.w3.org/2000/svg"
 width="1156.000000pt" height="300.000000pt" viewBox="0 0 1156.000000 300.000000"
 preserveAspectRatio="xMidYMid meet">

<g transform="translate(0.000000,300.000000) scale(0.100000,-0.100000)"
fill="#000000" stroke="none">
<path d="M2855 2768 c-3 -7 -4 -560 -3 -1228 l3 -1215 714 0 714 0 23 70 c12
39 62 198 112 355 50 157 94 293 97 302 7 17 -18 18 -434 18 l-441 0 -2 853
-3 852 -388 3 c-305 2 -389 0 -392 -10z"/>
<path d="M1351 2724 c-378 -64 -722 -323 -886 -671 -52 -108 -83 -209 -105
-339 -25 -146 -25 -222 0 -361 51 -282 148 -472 339 -664 204 -204 407 -305
703 -351 127 -20 146 -21 250 -9 324 38 563 153 774 373 139 145 231 301 285
482 l27 91 -401 3 -400 2 -57 -58 c-187 -188 -464 -189 -650 -2 -232 234 -137
631 176 741 173 61 355 14 482 -124 l42 -47 404 0 404 0 -20 73 c-66 237 -235
484 -437 638 -85 64 -282 161 -392 193 -166 47 -367 59 -538 30z"/>
<path d="M5180 2735 c0 -6 -146 -463 -325 -1020 -196 -610 -445 -1388 -445
-1393 0 -1 201 -1 448 0 l447 3 47 185 c26 102 47 188 48 193 0 4 133 7 295 7
l295 0 7 -27 c3 -16 25 -102 48 -193 l41 -165 472 -3 c415 -2 472 0 472 13 0
14 -44 153 -265 840 -57 176 -129 401 -160 500 -31 99 -105 331 -165 515 -60
184 -123 383 -141 443 l-32 107 -544 0 c-299 0 -543 -2 -543 -5z m594 -1090
c37 -143 70 -268 72 -277 5 -17 -7 -18 -150 -18 -86 0 -156 2 -156 4 0 3 34
129 75 281 41 151 75 278 75 282 0 4 4 3 9 -2 4 -6 39 -127 75 -270z"/>
<path d="M7765 2729 c-154 -20 -328 -77 -450 -147 -33 -19 -94 -70 -136 -112
-120 -120 -182 -264 -196 -451 -13 -185 32 -306 162 -436 70 -69 99 -89 186
-132 133 -64 294 -112 489 -145 194 -33 263 -52 295 -82 32 -29 33 -76 2 -126
-96 -158 -321 -113 -361 72 l-5 25 -418 -2 -418 -3 3 -47 c11 -172 110 -370
259 -518 170 -169 391 -265 678 -295 105 -12 140 -11 273 4 180 20 292 50 422
112 219 104 352 255 410 466 15 54 20 102 20 193 -1 273 -77 422 -275 539
-100 59 -223 97 -440 137 -346 64 -460 115 -460 209 0 77 68 130 165 130 36 0
66 -6 86 -19 35 -21 74 -93 74 -134 l0 -27 411 0 411 0 -7 63 c-25 219 -144
433 -304 551 -110 81 -279 146 -446 171 -108 16 -317 18 -430 4z"/>
<path d="M9102 1533 l3 -1208 410 0 410 0 3 438 2 437 240 0 240 0 0 -440 0
-440 415 0 415 0 -2 1208 -3 1207 -412 3 -413 2 0 -420 0 -420 -240 0 -240 0
0 420 0 420 -415 0 -415 0 2 -1207z"/>
</g>
</svg>
