<svg xmlns:xlink="http://www.w3.org/1999/xlink"  xmlns="http://www.w3.org/2000/svg" width="193.208" height="44" viewBox="0 0 193.208 44"><g id="logo_claudia" data-name="logo claudia" transform="translate(-94.288 -223.249)"><path class="logo_claudia" id="Path_1080" data-name="Path 1080" d="M318.6,226.436H317.8L307.208,261.93c-.932,3.052-1.6,3.355-3.027,3.355h-1.669v.976h10.506v-.976h-2.736c-1.447,0-2.311-.734-2.311-1.442a12.816,12.816,0,0,1,.733-3.3l1.989-6.792h9.762l3.453,11.54h-4.779v.964h15.611V265.3H330.6Zm-7.6,26.334c.122-.418,4.432-15.147,4.507-15.4l4.6,15.4Z" transform="translate(-146.645 -2.244)" fill="#b30020"></path><path class="logo_claudia" id="Path_1081" data-name="Path 1081" d="M433.884,229.4H411.429v.964h2.716c2.171,0,2.979,1.033,2.979,3.812v22.157c0,7.566-3.986,11.734-11.221,11.734-4.546,0-7.152-3.257-7.152-8.937V230.368h5.231V229.4H387.569v.964h4.689V258.2c0,9.692,6.534,11.028,13.595,11.028,7.678,0,12.261-4.573,12.261-12.234V244.933h0v-.981h0v-9.718c0-2.927.607-3.866,2.5-3.866h2.344v37h-4.69v.987h15.668c10.3,0,16.951-7.644,16.951-19.474C450.884,241.645,447.3,229.4,433.884,229.4Zm10.578,19.474c0,15.279-6.558,18.487-12.059,18.487h-3V230.357h1.176C442.884,230.357,444.462,240.255,444.462,248.878Z" transform="translate(-206.548 -4.335)" fill="#b30020"></path><path class="logo_claudia" id="Path_1082" data-name="Path 1082" d="M227.17,255.389h-.981v.01h-.011v.169c0,10.169-2.943,11.8-12.395,11.8h-4.294v-.008h-.678V230.391h4.936V229.4H197.474v.987h4.936v36.973h-3.946v-.008h-.981v.008h-.009v.987h29.707V255.4h-.01Z" transform="translate(-72.67 -4.335)" fill="#b30020"></path><path class="logo_claudia" id="Path_1083" data-name="Path 1083" d="M635.518,265.3l-11.994-38.861h-.806L612.128,261.93c-.846,2.77-1.48,3.274-2.653,3.344h-4.25v-37h4.492v-.964H594.332v.964h4.491v37h-4.491v.987h23.605v-.976H615.2c-1.446,0-2.311-.734-2.311-1.442a12.843,12.843,0,0,1,.732-3.3s1.73-5.905,1.99-6.792h9.761l3.453,11.54h-4.78v.964h15.612V265.3ZM625.038,252.77h-9.11l4.507-15.4C620.51,237.621,624.913,252.351,625.038,252.77Z" transform="translate(-352.164 -2.244)" fill="#b30020"></path><path class="logo_claudia" id="Path_1084" data-name="Path 1084" d="M126.151,254.6l-1.329.055-.038.108c-1.182,3.364-4.764,11.19-12.477,11.195-6.463,0-8.373-5.487-9.474-11.422-1.115-6.014-1.839-21.27,3.277-27.427a6.641,6.641,0,0,1,5.278-2.576c4.922,0,10.091,4.586,11.062,9.821l.319,1.353a5.7,5.7,0,0,1,.23,2.406l-.014.181,1.036.012.015-12.871-.962-.009-.154.928c-.13.934-.209,1.5-1.218,1.5a5.491,5.491,0,0,1-2.366-1.344c-1.843-1.377-4.367-3.263-7.812-3.261a16.1,16.1,0,0,0-12.165,6.195c-4.42,5.319-6.026,12.717-4.521,20.831,1.8,9.682,9.27,16.98,17.384,16.974,10.1-.006,13.826-12.294,13.862-12.419Z" transform="translate(0 0)" fill="#b30020"></path></g></svg>