<?xml version="1.0" encoding="UTF-8" standalone="no"?><!DOCTYPE svg PUBLIC "-//W3C//DTD SVG 1.1//EN" "http://www.w3.org/Graphics/SVG/1.1/DTD/svg11.dtd"><svg width="100%" height="100%" viewBox="0 0 179 60" version="1.1" xmlns="http://www.w3.org/2000/svg" xmlns:xlink="http://www.w3.org/1999/xlink" xml:space="preserve" xmlns:serif="http://www.serif.com/" style="fill-rule:evenodd;clip-rule:evenodd;"><g id="Camada_x0020_1"><g id="_2722882043168"><path d="M150.443,0.147l28.41,0l0,51.184l-22.616,3.34l-5.794,-54.524Z" style="fill:#ed3237;fill-rule:nonzero;"/><path d="M150.443,0.147l28.41,0l0,51.184l-22.616,3.34" style="fill:none;fill-rule:nonzero;stroke:#ed3237;stroke-width:0.29px;"/><path d="M17.128,31.767c-0,-1.214 -0.06,-2.669 -0.475,-3.821c-0.474,-1.213 -1.244,-2.063 -2.785,-2.063c-3.2,-0 -3.556,4.003 -3.556,10.07c0,6.854 1.067,9.099 3.556,9.099c3.378,-0 3.674,-3.518 3.674,-5.824l7.468,1.092c-0.711,7.401 -4.86,11.283 -11.853,11.283c-8.652,0 -13.157,-7.764 -13.157,-15.287c0,-8.31 4.505,-16.621 13.571,-16.621c10.194,0 11.735,9.039 11.735,12.072l-8.178,0Z"/><path d="M38.539,45.381c2.37,-0 3.438,-2.184 3.438,-9.888c-0,-7.037 -0.712,-9.645 -3.438,-9.645c-2.727,-0 -3.438,2.608 -3.438,9.645c0,7.704 1.067,9.888 3.438,9.888Zm-0,-25.721c8.949,0 13.394,6.734 13.394,15.833c-0,9.463 -4.267,16.075 -13.394,16.075c-9.127,0 -13.394,-6.612 -13.394,-16.075c0,-9.099 4.445,-15.833 13.394,-15.833Zm14.105,0.778l9.602,0l-0,4.064l0.118,0c2.015,-3.094 5.038,-4.792 8.475,-4.792c3.852,0 6.341,2.669 6.341,6.855l0,24.325l-9.601,0l0,-21.535c0,-1.637 -0.533,-2.729 -2.311,-2.729c-1.008,-0 -1.838,0.424 -2.489,1.273l-0.533,0.728l-0,22.263l-9.602,0l0,-30.452Zm28.977,6.95l-3.912,-0l0,-6.916l3.912,0l-0,-10.918l9.6,-0l0,10.918l5.275,0l-0,6.916l-5.275,-0l0,12.92c0,2.124 0,3.701 3.082,3.701c0.77,-0 1.541,-0.121 2.193,-0.304l-0,7.159c-1.897,0.545 -4.682,0.788 -6.756,0.788c-5.097,0 -8.119,-2.243 -8.119,-7.704l-0,-16.56Zm16.398,-17.811l9.601,-0l0,8.735l-9.601,0l0,-8.735Zm0,10.861l9.601,0l0,30.452l-9.601,0l0,-30.452Zm49.112,25.003c2.371,0 3.437,-2.184 3.437,-9.888c-0,-7.036 -0.711,-9.645 -3.437,-9.645c-2.727,0 -3.438,2.609 -3.438,9.645c0,7.704 1.067,9.888 3.438,9.888Zm-0,-25.72c8.949,-0 13.394,6.734 13.394,15.832c-0,9.464 -4.268,16.076 -13.394,16.076c-9.127,-0 -13.394,-6.612 -13.394,-16.076c0,-9.098 4.445,-15.832 13.394,-15.832Z"/><path d="M162.162,40.406l10.312,-0l-0,10.555l-10.312,0l-0,-10.555Zm-0.652,-30.903l11.023,-0l-1.837,28.147l-6.401,0l-2.785,-28.147Z" style="fill:#fefefe;fill-rule:nonzero;"/><path d="M118.241,29.487c0,2.184 0.771,4.853 3.259,4.853c2.668,0 3.378,-2.79 3.378,-5.278c0,-2.365 -0.888,-4.973 -3.378,-4.973c-2.666,-0 -3.259,3.093 -3.259,5.398Zm-3.082,22.748c0,2.487 4.445,2.67 6.341,2.67c2.253,-0 6.579,-0 6.579,-2.67c0,-2.791 -4.8,-2.791 -6.579,-2.791c-1.362,0 -6.341,0 -6.341,2.791Zm22.165,-26.57c-0.889,-0.849 -2.015,-1.576 -3.378,-1.576c-0.711,-0 -1.363,0.303 -1.6,0.667c1.126,1.335 1.423,3.214 1.423,4.974c-0,6.005 -6.46,8.977 -11.734,8.977c-1.838,0 -3.023,-0.242 -4.09,-0.485c-0.237,0.304 -1.008,1.153 -1.008,1.759c0,2.184 2.608,2.184 5.986,2.184c5.69,0 13.334,0.728 13.334,8.372c0,6.247 -5.985,9.463 -14.757,9.463c-3.377,-0 -13.808,-0.486 -13.808,-6.309c0,-3.276 2.904,-4.853 5.63,-5.338l0,-0.122c-2.371,-0.788 -4.208,-2.184 -4.208,-4.974c0,-2.972 3.32,-5.216 5.808,-5.823l0,-0.121c-3.733,-1.639 -5.57,-4.55 -5.57,-8.008c-0,-6.915 7.289,-9.584 12.148,-9.584c2.846,-0 5.986,0.667 8.239,2.184c0.711,-1.698 4.741,-4.004 7.585,-4.004l0,7.764Z"/></g></g></svg>