<svg xmlns:xlink="http://www.w3.org/1999/xlink"  width="186" height="72" viewBox="0 0 186 72" fill="none" xmlns="http://www.w3.org/2000/svg">
<path d="M27.2412 24.2159C29.3309 25.5579 28.864 29.5698 28.956 32.5709H40.6941C40.7775 27.8074 41.0586 21.9822 38.9221 18.8462C34.3087 12.0767 25.8388 10.4894 18.3738 12.7284C13.422 14.2193 8.76698 18.9531 8.76698 24.2159L8.7583 48.0231C8.7583 53.9902 11.5006 60.0256 17.1189 62.4871C23.1034 64.7261 30.9381 63.9798 36.112 60.5477C41.3589 56.8178 41.0725 50.1534 40.925 44.1863H29.048C29.048 46.0662 29.1573 48.836 28.7547 50.7631C28.5012 51.9702 26.6545 52.4152 25.4708 52.4152C24.2871 52.3381 22.6625 51.8003 22.5862 49.8066C22.5862 49.8066 22.5775 26.7247 22.5775 26.2955C22.5775 24.773 24.754 22.6952 27.2412 24.2159Z" fill="white"/>
<path d="M108.466 18.0974C110.534 21.3805 111.793 25.0351 111.494 29.3624H100.114C100.039 27.1251 99.9662 24.5147 97.6751 23.4688C95.7347 23.0466 94.9033 23.8455 94.275 24.8879C93.6831 26.1546 93.8307 27.2741 94.4225 28.4671C98.8571 36.0022 110.252 33.3848 111.272 44.4326C111.871 50.9095 110.654 58.308 105.433 61.5894C99.9245 65.0512 90.8731 64.8708 85.5534 60.9166C80.6016 56.8153 79.64 50.7746 80.2302 44.2083H92.5012C92.5741 47.043 91.9093 50.624 95.0126 51.7417C96.2692 51.966 97.2291 51.5928 97.9684 50.4733C98.7911 48.8195 98.5586 46.2213 97.3037 44.804C91.9076 40.03 82.8909 39.5079 80.9678 31.3754C79.7876 26.6031 79.7129 20.5588 83.1113 16.829C87.3237 12.3527 93.4575 11.3086 99.4472 12.2038C102.849 13.1762 106.322 14.816 108.466 18.0974Z" fill="white"/>
<path d="M179.315 18.0974C181.384 21.3805 182.642 25.0351 182.345 29.3624H170.964C170.89 27.1251 170.817 24.5147 168.526 23.4688C166.585 23.0466 165.754 23.8455 165.128 24.8879C164.536 26.1546 164.683 27.2741 165.273 28.4671C169.708 36.0022 181.102 33.3848 182.125 44.4326C182.723 50.9095 181.505 58.308 176.286 61.5894C170.777 65.0512 161.726 64.8708 156.406 60.9166C151.454 56.8153 150.493 50.7746 151.083 44.2083H163.354C163.427 47.043 162.762 50.624 165.865 51.7417C167.122 51.966 168.08 51.5928 168.819 50.4733C169.644 48.8195 169.411 46.2213 168.156 44.804C162.76 40.03 153.743 39.5079 151.822 31.3754C150.642 26.6031 150.567 20.5588 153.966 16.829C158.18 12.3527 164.312 11.3086 170.301 12.2038C173.698 13.1762 177.171 14.816 179.315 18.0974Z" fill="white"/>
<path d="M74.9123 17.7241C76.2436 19.5864 77.0611 21.7624 77.0559 23.9891L77.0611 51.5156C77.0281 56.3983 73.0153 61.8311 68.4089 63.0049C61.5947 64.741 52.6666 64.7218 47.7877 58.7529C46.1631 56.4403 45.127 53.8107 45.127 50.8446V23.8402C45.127 18.8892 49.4886 13.9189 54.3675 12.7241C61.5357 10.9336 70.1098 11.4574 74.9123 17.7241ZM61.0793 23.9803C59.3176 23.9698 58.4307 25.3065 58.4307 26.6135L58.4046 48.907C58.4428 50.6221 59.4269 51.5419 61.3743 51.4928C63.2228 51.5051 64.1687 50.5328 64.1218 49.0787C64.1218 49.0787 64.1201 26.7466 64.1201 26.7133C64.1218 25.6324 63.3373 23.9803 61.0793 23.9803Z" fill="white"/>
<path d="M150.574 62.7021L138.991 62.7109L137.217 55.3264H124.43L122.509 62.7109H110.979L123.174 13.25H138.473L150.574 62.7021ZM134.556 44.8043L130.786 28.6899L127.091 44.8043H134.556Z" fill="white"/>
<path d="M5.16014 10.0473V9.40959H5.76241C5.84572 9.40959 5.91341 9.42186 5.96375 9.44639C6.05747 9.49544 6.10433 9.58479 6.10433 9.71969C6.10433 9.84408 6.07136 9.92992 6.00367 9.97722C5.93598 10.0245 5.84572 10.0473 5.72943 10.0473H5.16014ZM4.90674 11.0704H5.16014V10.2628H5.72076C5.82142 10.2628 5.89606 10.2751 5.94292 10.2978C6.02449 10.3399 6.06962 10.4205 6.07483 10.5449L6.09565 10.8585C6.09739 10.932 6.10086 10.9811 6.10607 11.0074C6.11128 11.0319 6.11648 11.0529 6.12516 11.0704H6.44105V11.0284C6.40113 11.0109 6.37509 10.9723 6.35947 10.9128C6.35079 10.8777 6.34559 10.8234 6.34212 10.7516L6.3317 10.5011C6.32823 10.3924 6.30567 10.3118 6.26922 10.2645C6.23277 10.2155 6.17723 10.1769 6.10433 10.1454C6.18764 10.1016 6.2536 10.0438 6.29872 9.97197C6.34385 9.90014 6.36815 9.80729 6.36815 9.69341C6.36815 9.47617 6.28137 9.32725 6.1078 9.24666C6.01755 9.20462 5.90126 9.18359 5.76068 9.18359H4.90674V11.0704Z" fill="white"/>
<path d="M3.61548 10.2553C3.61548 11.3731 4.51628 12.2823 5.62535 12.2823C6.73443 12.2823 7.63523 11.3731 7.63523 10.2553C7.63523 9.13582 6.73269 8.22656 5.62535 8.22656C4.51628 8.22656 3.61548 9.13582 3.61548 10.2553ZM3.8793 10.2553C3.8793 9.28298 4.66207 8.49286 5.62535 8.49286C6.58864 8.49286 7.37315 9.28474 7.37315 10.2553C7.37315 11.2259 6.58864 12.0178 5.62535 12.0178C4.66207 12.0178 3.8793 11.2259 3.8793 10.2553Z" fill="white"/>
</svg>
