<?xml version="1.0" encoding="UTF-8"?>
<!DOCTYPE svg PUBLIC "-//W3C//DTD SVG 1.1//EN" "http://www.w3.org/Graphics/SVG/1.1/DTD/svg11.dtd">
<svg xmlns="http://www.w3.org/2000/svg" version="1.1" width="4000px" height="964px" style="shape-rendering:geometricPrecision; text-rendering:geometricPrecision; image-rendering:optimizeQuality; fill-rule:evenodd; clip-rule:evenodd" xmlns:xlink="http://www.w3.org/1999/xlink">
<g><path style="opacity:0.996" fill="#101110" d="M 1452.5,-0.5 C 1466.17,-0.5 1479.83,-0.5 1493.5,-0.5C 1576.8,1.40667 1656.47,19.5733 1732.5,54C 1869.3,121.848 1952.13,231.014 1981,381.5C 1995.75,466.086 1991.75,549.753 1969,632.5C 1930.38,759.114 1851.55,851.281 1732.5,909C 1656.47,943.427 1576.8,961.593 1493.5,963.5C 1479.83,963.5 1466.17,963.5 1452.5,963.5C 1369.2,961.594 1289.54,943.427 1213.5,909C 1079.12,842.239 996.955,735.072 967,587.5C 950.875,499.545 954.875,412.545 979,326.5C 1024.27,186.226 1115.77,89.7263 1253.5,37C 1317.94,13.7448 1384.27,1.24479 1452.5,-0.5 Z M 1452.5,279.5 C 1503.93,274.769 1550.26,287.602 1591.5,318C 1630.97,352.441 1653.47,395.941 1659,448.5C 1664.76,494.159 1658.76,538.159 1641,580.5C 1610.86,641.681 1561.7,675.847 1493.5,683C 1440.48,688.253 1393.15,674.586 1351.5,642C 1314.54,607.579 1293.37,565.079 1288,514.5C 1282.36,469.639 1288.03,426.306 1305,384.5C 1334.57,322.111 1383.74,287.111 1452.5,279.5 Z"/></g>
<g><path style="opacity:0.997" fill="#101110" d="M -0.5,25.5 C 143.834,25.3333 288.167,25.5 432.5,26C 506.923,26.9036 579.256,39.5703 649.5,64C 810.563,125.782 901.396,242.615 922,414.5C 932.055,499.621 923.055,582.621 895,663.5C 856.556,761.944 789.723,834.111 694.5,880C 628.477,910.506 559.143,928.506 486.5,934C 468.532,935.576 450.532,936.576 432.5,937C 288.167,937.5 143.834,937.667 -0.5,937.5C -0.5,633.5 -0.5,329.5 -0.5,25.5 Z M 322.5,292.5 C 361.523,292.062 400.523,292.562 439.5,294C 533.542,310.044 585.708,365.544 596,460.5C 600.685,509.093 590.352,554.093 565,595.5C 534.18,638.225 492.346,662.725 439.5,669C 400.523,670.438 361.523,670.938 322.5,670.5C 322.5,544.5 322.5,418.5 322.5,292.5 Z"/></g>
<g><path style="opacity:0.995" fill="#101110" d="M 2040.5,25.5 C 2192.83,25.3333 2345.17,25.5 2497.5,26C 2561.54,26.8406 2623.88,37.5073 2684.5,58C 2745.54,78.7547 2796.37,113.921 2837,163.5C 2874.12,213.185 2894.46,269.185 2898,331.5C 2904.17,401.009 2890.5,466.342 2857,527.5C 2834.43,564.072 2805.6,594.905 2770.5,620C 2840.54,725.243 2910.21,830.743 2979.5,936.5C 2852.83,937.833 2726.17,937.833 2599.5,936.5C 2551.2,856.368 2502.7,776.368 2454,696.5C 2424.24,695.505 2394.41,695.171 2364.5,695.5C 2364.5,776.167 2364.5,856.833 2364.5,937.5C 2256.5,937.5 2148.5,937.5 2040.5,937.5C 2040.5,633.5 2040.5,329.5 2040.5,25.5 Z M 2364.5,279.5 C 2400.83,279.333 2437.17,279.5 2473.5,280C 2498.69,281.374 2521.69,289.041 2542.5,303C 2566.16,323.299 2574.66,348.799 2568,379.5C 2559.98,405.853 2542.81,423.353 2516.5,432C 2502.55,436.791 2488.21,439.791 2473.5,441C 2437.17,441.5 2400.83,441.667 2364.5,441.5C 2364.5,387.5 2364.5,333.5 2364.5,279.5 Z"/></g>
<g><path style="opacity:0.996" fill="#101110" d="M 3999.5,935.5 C 3999.5,936.167 3999.5,936.833 3999.5,937.5C 3872.17,937.667 3744.83,937.5 3617.5,937C 3522.95,816.787 3428.78,696.287 3335,575.5C 3334.5,696.166 3334.33,816.833 3334.5,937.5C 3226.83,937.5 3119.17,937.5 3011.5,937.5C 3011.5,633.5 3011.5,329.5 3011.5,25.5C 3119.17,25.5 3226.83,25.5 3334.5,25.5C 3334.33,148.5 3334.5,271.5 3335,394.5C 3422.5,271.667 3510,148.833 3597.5,26C 3722.83,25.1667 3848.17,25.3333 3973.5,26.5C 3867.04,177.93 3760.7,329.43 3654.5,481C 3768.91,633 3883.91,784.5 3999.5,935.5 Z"/></g>
</svg>
