<?xml version="1.0" encoding="UTF-8"?>
<svg version="1.1" xmlns="http://www.w3.org/2000/svg" width="719" height="284">
<path d="M0 0 C0.70623001 0.00404846 1.41246002 0.00809692 2.14009094 0.01226807 C2.88544601 0.00876343 3.63080109 0.00525879 4.39874268 0.00164795 C6.88309371 -0.00720341 9.36716232 -0.00129304 11.85151672 0.00543213 C13.59762119 0.00408279 15.3437253 0.00214001 17.08982849 -0.00036621 C20.7737735 -0.003325 24.45762198 0.00099081 28.14155579 0.01031494 C32.77625522 0.0214942 37.41071961 0.01510692 42.04541016 0.00342846 C124.93344969 -0.17357618 124.93344969 -0.17357618 148.41792297 21.58355713 C156.42542478 29.99866576 161.73059486 39.54177105 161.98823547 51.30230713 C161.46078482 64.72832371 156.03171326 75.72347931 146.29682922 84.83355713 C137.78291317 91.92309179 128.46618505 96.155008 117.92182922 99.27105713 C115.91973905 99.9314202 113.91916208 100.59644175 111.92182922 101.27105713 C112.7958136 101.69233887 112.7958136 101.69233887 113.68745422 102.12213135 C158.13815095 123.65730576 158.13815095 123.65730576 164.92182922 142.27105713 C165.2389386 143.13086182 165.55604797 143.9906665 165.88276672 144.87652588 C169.08585447 155.76408561 171.93471697 173.18616923 166.76167297 183.60845947 C163.51007898 188.01870479 159.35240879 191.12655765 154.92182922 194.27105713 C153.53150819 195.46172999 152.15346335 196.6671396 150.79682922 197.89605713 C150.19741516 198.41297119 149.5980011 198.92988525 148.98042297 199.46246338 C146.2317508 201.87733096 143.52082624 204.32342487 140.85932922 206.83355713 C139.89897766 207.72172119 138.9386261 208.60988525 137.94917297 209.52496338 C135.55812532 212.15164985 135.55812532 212.15164985 136.11323547 215.61090088 C136.38007141 216.48875244 136.64690735 217.366604 136.92182922 218.27105713 C112.10043337 220.45475764 112.10043337 220.45475764 104.3886261 214.38458252 C101.67944437 211.83836778 99.25211279 209.16481854 96.92182922 206.27105713 C96.25409485 205.52468994 95.58636047 204.77832275 94.89839172 204.00933838 C88.74214883 196.60683168 85.82373779 188.09264487 85.74824524 178.57818604 C85.74155823 177.91424332 85.73487122 177.2503006 85.72798157 176.5662384 C85.71396567 175.12851392 85.70206069 173.69076763 85.69203377 172.2530098 C85.67556642 169.97422613 85.65232625 167.69560359 85.62713623 165.41690063 C85.55652009 158.93933194 85.49630403 152.4616979 85.44502258 145.98394775 C85.41314813 142.01756042 85.37185329 138.05136018 85.32482719 134.08512497 C85.30886024 132.57734937 85.2965143 131.06953075 85.28792 129.5616951 C85.27570137 127.44851028 85.25152547 125.33576167 85.22480774 123.22271729 C85.20934654 121.42213364 85.20934654 121.42213364 85.193573 119.58517456 C84.90288346 116.03999948 84.46851013 113.48234615 82.92182922 110.27105713 C79.92811817 107.88490711 79.92811817 107.88490711 76.92182922 106.27105713 C76.93563357 121.32665102 76.97785244 136.38196534 77.05391979 151.43737411 C77.08857637 158.42786907 77.11392615 165.4181667 77.11738586 172.40875244 C77.12074938 179.15221379 77.15002231 185.89510356 77.195261 192.63843536 C77.20827368 195.21406415 77.21253045 197.78975221 77.20798302 200.36540985 C77.20310416 203.9669945 77.22905194 207.56711331 77.2624054 211.16851807 C77.24946693 212.77397491 77.24946693 212.77397491 77.23626709 214.41186523 C77.27856429 217.12757967 77.34771931 219.61630162 77.92182922 222.27105713 C80.316064 224.73689375 80.316064 224.73689375 82.92182922 226.27105713 C82.92182922 227.59105713 82.92182922 228.91105713 82.92182922 230.27105713 C53.22182922 230.27105713 23.52182922 230.27105713 -7.07817078 230.27105713 C-6.74817078 228.62105713 -6.41817078 226.97105713 -6.07817078 225.27105713 C-5.24564096 224.84673653 -4.41311115 224.42241592 -3.55535316 223.98523712 C-2.73788298 223.41955772 -1.92041279 222.85387833 -1.07817078 222.27105713 C-0.56737005 219.277669 -0.40235552 216.84349846 -0.44325256 213.84417725 C-0.43155263 212.5388124 -0.43155263 212.5388124 -0.41961634 211.20707655 C-0.39960912 208.2794101 -0.41549483 205.353031 -0.43119812 202.425354 C-0.42442588 200.33127582 -0.41552498 198.23720359 -0.40464783 196.1431427 C-0.38180127 190.44687183 -0.39071308 184.75105237 -0.40654325 179.05477333 C-0.41917446 173.10240051 -0.40746989 167.15006716 -0.39961243 161.19769287 C-0.39050776 151.20042966 -0.40252529 141.20335094 -0.42631531 131.20611572 C-0.45352799 119.63674812 -0.44471442 108.06782103 -0.41718328 96.49846411 C-0.39451656 86.57738131 -0.39128022 76.65643137 -0.40437663 66.73533106 C-0.41218451 60.80457491 -0.41317594 54.87402603 -0.39669418 48.94328308 C-0.38228423 43.36831408 -0.39220781 37.79391474 -0.42116547 32.21900749 C-0.42779485 30.16910182 -0.42584719 28.11914846 -0.41485214 26.06926155 C-0.40125812 23.27816586 -0.41823715 20.48891405 -0.44325256 17.69793701 C-0.43209895 16.87994991 -0.42094535 16.0619628 -0.40945375 15.21918821 C-0.39646487 12.7064874 -0.39646487 12.7064874 -1.07817078 9.27105713 C-3.44629329 7.30357806 -3.44629329 7.30357806 -6.07817078 6.27105713 C-7.01567078 4.20855713 -7.01567078 4.20855713 -7.07817078 2.27105713 C-4.63925833 -0.16785532 -3.32863844 0.02915725 0 0 Z M75.92182922 7.27105713 C75.92182922 36.97105713 75.92182922 66.67105713 75.92182922 97.27105713 C81.81733697 96.92768474 81.81733697 96.92768474 84.26547241 93.67547607 C86.17967622 89.74108727 86.42298099 87.16288895 86.42353821 82.800354 C86.42894119 82.07759781 86.43434418 81.35484161 86.43991089 80.61018372 C86.45235287 78.23630001 86.43593877 75.86364 86.41792297 73.48980713 C86.41807807 71.83123715 86.41956879 70.17266681 86.42233276 68.51409912 C86.42371472 65.04408679 86.41119312 61.5744888 86.38838196 58.10455322 C86.35999774 53.66593295 86.36273727 49.22800072 86.37547207 44.78932953 C86.38244088 41.36627367 86.37462629 37.94337567 86.36221504 34.52033997 C86.35771221 32.88414618 86.3573535 31.24793538 86.36128044 29.61174011 C86.36420455 27.32139592 86.34762981 25.03198608 86.32588196 22.74176025 C86.32047897 21.44081421 86.31507599 20.13986816 86.30950928 18.79949951 C85.88651867 14.94968061 84.96791443 12.54293025 82.92182922 9.27105713 C79.96805424 6.901257 79.96805424 6.901257 75.92182922 7.27105713 Z " fill="#0000F2" transform="translate(216.0781707763672,48.72894287109375)"/>
<path d="M0 0 C1.94356384 -0.00422974 1.94356384 -0.00422974 3.9263916 -0.00854492 C5.37573256 -0.00660032 6.82507338 -0.00455213 8.27441406 -0.00241089 C9.79016156 -0.00376487 11.30590873 -0.00554478 12.82165527 -0.00772095 C16.94963888 -0.01229567 21.0775976 -0.01050556 25.20558167 -0.00734186 C29.5159614 -0.00481846 33.82633894 -0.00715574 38.13671875 -0.00872803 C45.37663151 -0.01054978 52.61653409 -0.00814326 59.85644531 -0.00338745 C68.23898001 0.00205518 76.62149039 0.00029253 85.00402451 -0.00521386 C92.18786706 -0.00974482 99.37170228 -0.01039562 106.55554581 -0.00777519 C110.85193531 -0.00621232 115.14831337 -0.00601891 119.44470215 -0.00931168 C123.48294723 -0.01219015 127.52116081 -0.01021514 131.55940247 -0.00441742 C133.04576057 -0.00308969 134.53212131 -0.00348415 136.01847839 -0.00568008 C138.03901071 -0.00839106 140.05954878 -0.00439723 142.08007812 0 C143.78022064 0.00056554 143.78022064 0.00056554 145.51470947 0.0011425 C148.04003906 0.12698364 148.04003906 0.12698364 149.04003906 1.12698364 C149.13409048 3.12130094 149.15747156 5.11897907 149.15356445 7.11550903 C149.1534436 8.41476318 149.15332275 9.71401733 149.15319824 11.05264282 C149.14816176 12.44330899 149.14299513 13.8339747 149.13769531 15.22463989 C149.13668823 16.48175781 149.13568115 17.73887573 149.13464355 19.03408813 C149.12939182 23.75256252 149.11543072 28.47102395 149.10253906 33.18948364 C149.08191406 43.72885864 149.06128906 54.26823364 149.04003906 65.12698364 C126.93003906 65.45698364 104.82003906 65.78698364 82.04003906 66.12698364 C82.04003906 69.09698364 82.04003906 72.06698364 82.04003906 75.12698364 C111.24503906 75.62198364 111.24503906 75.62198364 141.04003906 76.12698364 C141.04003906 99.22698364 141.04003906 122.32698364 141.04003906 146.12698364 C120.91003906 146.12698364 100.78003906 146.12698364 80.04003906 146.12698364 C80.04003906 149.42698364 80.04003906 152.72698364 80.04003906 156.12698364 C102.48003906 156.12698364 124.92003906 156.12698364 148.04003906 156.12698364 C148.04003906 179.55698364 148.04003906 202.98698364 148.04003906 227.12698364 C100.85003906 227.12698364 53.66003906 227.12698364 5.04003906 227.12698364 C-0.95996094 201.12698364 -0.95996094 201.12698364 -0.95996094 199.12698364 C3.14114668 200.53096643 6.02093065 202.49785402 9.35253906 205.25198364 C10.23554687 205.97643677 11.11855469 206.70088989 12.02832031 207.44729614 C13.02412109 208.27874146 13.02412109 208.27874146 14.04003906 209.12698364 C13.97945312 208.17968384 13.91886719 207.23238403 13.85644531 206.25637817 C13.62963529 202.69684126 13.40700326 199.13705262 13.18554688 195.57717896 C13.08965766 194.04488215 12.99267868 192.51265309 12.89453125 190.98049927 C12.36409749 182.68841234 11.90780564 174.44115992 12.04003906 166.12698364 C15.19208888 167.5204574 17.30175679 169.15183444 19.71191406 171.60354614 C20.37578125 172.27385864 21.03964844 172.94417114 21.72363281 173.63479614 C22.40554687 174.33346802 23.08746094 175.03213989 23.79003906 175.75198364 C24.48742187 176.45838989 25.18480469 177.16479614 25.90332031 177.89260864 C27.62016394 179.63297068 29.33215739 181.37783345 31.04003906 183.12698364 C30.76216553 182.03232788 30.48429199 180.93767212 30.19799805 179.80984497 C29.16795528 175.74037716 28.15185647 171.66753404 27.13989258 167.59353638 C26.70032064 165.83217018 26.25699374 164.07173659 25.80981445 162.31228638 C25.16696937 159.78023473 24.53778981 157.24511474 23.91113281 154.70901489 C23.70910751 153.92549149 23.50708221 153.14196808 23.29893494 152.33470154 C22.32154682 148.32028169 21.5945688 145.14638077 23.04003906 141.12698364 C25.26269531 138.91604614 25.26269531 138.91604614 28.10253906 136.75198364 C29.08996094 135.98241333 30.07738281 135.21284302 31.09472656 134.41995239 C32.55265625 133.28493286 32.55265625 133.28493286 34.04003906 132.12698364 C36.73794612 129.82829959 39.39392033 127.48498629 42.04003906 125.12698364 C35.43328469 123.34824208 28.79714137 122.18559634 22.04003906 121.12698364 C22.58828625 116.48160638 23.85249801 113.1214427 26.09472656 109.02932739 C26.70960937 107.89817505 27.32449219 106.76702271 27.95800781 105.60159302 C28.61024541 104.42249783 29.26259008 103.24346187 29.91503906 102.06448364 C30.56034483 100.88196326 31.20488312 99.69902373 31.84863281 98.51565552 C34.49844644 93.66688381 37.17047767 88.84978085 40.04003906 84.12698364 C39.42483398 84.39962036 38.80962891 84.67225708 38.17578125 84.95315552 C35.38381826 86.18536853 32.58704808 87.40627066 29.79003906 88.62698364 C28.33791016 89.27087036 28.33791016 89.27087036 26.85644531 89.92776489 C25.921875 90.33381958 24.98730469 90.73987427 24.02441406 91.15823364 C23.16557617 91.53528442 22.30673828 91.91233521 21.421875 92.30081177 C19.04003906 93.12698364 19.04003906 93.12698364 15.04003906 93.12698364 C17.15011064 83.91471995 19.95691357 75.04733093 23.04003906 66.12698364 C22.54503906 65.63198364 22.54503906 65.63198364 22.04003906 65.12698364 C21.12480469 65.92104614 20.20957031 66.71510864 19.26660156 67.53323364 C18.06630195 68.56474112 16.86576901 69.59597713 15.66503906 70.62698364 C15.06175781 71.15163208 14.45847656 71.67628052 13.83691406 72.21682739 C9.26660156 76.12698364 9.26660156 76.12698364 7.04003906 76.12698364 C7.54204852 67.17007797 8.28067675 58.28740221 9.37939453 49.3833313 C9.9117451 44.92627902 10.12864396 40.61629862 10.04003906 36.12698364 C9.66194092 36.87907104 9.28384277 37.63115845 8.89428711 38.40603638 C7.4875814 41.19249115 6.07215355 43.97428118 4.65063477 46.75320435 C4.0370667 47.95713492 3.42701419 49.16286386 2.82055664 50.37039185 C1.9485487 52.10513863 1.06283492 53.83297454 0.17675781 55.56057739 C-0.35216064 56.60270386 -0.8810791 57.64483032 -1.42602539 58.71853638 C-2.95996094 61.12698364 -2.95996094 61.12698364 -5.95996094 62.12698364 C-7.0562888 26.11144712 -7.0562888 26.11144712 -7.08496094 10.87698364 C-7.09172852 9.39005005 -7.09172852 9.39005005 -7.09863281 7.87307739 C-7.09669922 6.98233521 -7.09476563 6.09159302 -7.09277344 5.17385864 C-7.09164551 4.40912231 -7.09051758 3.64438599 -7.08935547 2.85647583 C-6.78902677 -1.15772884 -3.25727184 0.0010835 0 0 Z M11.04003906 32.12698364 C12.04003906 34.12698364 12.04003906 34.12698364 12.04003906 34.12698364 Z " fill="#0000F2" transform="translate(51.9599609375,50.873016357421875)"/>
<path d="M0 0 C1.20850616 0.00753296 2.41701233 0.01506592 3.66213989 0.02282715 C7.5077119 0.05528002 11.350506 0.13698654 15.1953125 0.21875 C17.80465772 0.24529669 20.41403616 0.26876861 23.0234375 0.2890625 C27.772382 0.33935372 32.52084416 0.39499905 37.26904297 0.49414062 C38.22277802 0.51303345 39.17651306 0.53192627 40.15914917 0.5513916 C42.3203125 0.71875 42.3203125 0.71875 43.3203125 1.71875 C43.41544194 4.39662973 43.44586529 7.04863869 43.43383789 9.72680664 C43.43398392 10.56575974 43.43412994 11.40471283 43.4342804 12.26908875 C43.433581 15.05572044 43.42578735 17.84228616 43.41796875 20.62890625 C43.41610467 22.55561791 43.41468072 24.48233005 43.41368103 26.40904236 C43.40985509 31.49062397 43.40002416 36.5721772 43.38897705 41.65374756 C43.37876456 46.83491634 43.37418376 52.01608969 43.36914062 57.19726562 C43.35840196 67.37110625 43.34132463 77.54492577 43.3203125 87.71875 C40.8453125 88.21375 40.8453125 88.21375 38.3203125 88.71875 C35.84052222 84.99906458 36.05853875 82.91070291 35.9453125 78.46875 C34.85856291 54.84934519 23.48331832 31.84234188 6.3203125 15.71875 C0.41919509 11.14270916 -5.24600677 7.82003603 -12.6796875 6.71875 C-14.8395196 8.8785821 -13.86628295 13.91979634 -13.88500977 16.92016602 C-13.89490936 17.88591553 -13.90480896 18.85166504 -13.91500854 19.84667969 C-13.94672651 23.05531316 -13.9714215 26.26396148 -13.99609375 29.47265625 C-14.0166544 31.69083553 -14.03765062 33.90901082 -14.05906677 36.12718201 C-14.11437932 41.97810641 -14.16374796 47.8290667 -14.21191406 53.68005371 C-14.26206221 59.6454591 -14.31778309 65.61081208 -14.37304688 71.57617188 C-14.4807407 83.29031986 -14.58216057 95.00451327 -14.6796875 106.71875 C-13.39477715 106.26596511 -12.11246958 105.80578977 -10.83129883 105.3425293 C-10.11694168 105.08706833 -9.40258453 104.83160736 -8.6665802 104.56840515 C-3.63354651 102.41612838 -0.03486252 97.29825556 2.453125 92.5625 C5.23407211 85.5426335 5.54100425 78.28508368 5.8828125 70.84375 C5.94758789 69.52503906 5.94758789 69.52503906 6.01367188 68.1796875 C6.11900589 66.02619203 6.22008899 63.87248936 6.3203125 61.71875 C7.9703125 61.38875 9.6203125 61.05875 11.3203125 60.71875 C12.28279993 63.60621228 12.44804938 65.42487007 12.45402527 68.4251709 C12.46042274 69.87629524 12.46042274 69.87629524 12.46694946 71.35673523 C12.46626968 72.94648918 12.46626968 72.94648918 12.46557617 74.56835938 C12.46893478 75.68563919 12.4722934 76.80291901 12.47575378 77.95405579 C12.48527315 81.65688175 12.48720727 85.35966255 12.48828125 89.0625 C12.4914927 91.62935403 12.49485668 94.19620788 12.49836731 96.76306152 C12.50436073 102.14657087 12.50624969 107.5300622 12.50561523 112.91357422 C12.50501403 119.1387333 12.51557506 125.36380584 12.5313589 131.588943 C12.54599882 137.57597195 12.54960365 143.5629538 12.54900551 149.55000305 C12.55018868 152.09858046 12.55462917 154.64715846 12.56233788 157.19572449 C12.57209316 160.7536038 12.56927754 164.31125798 12.56323242 167.86914062 C12.56885193 168.92897659 12.57447144 169.98881256 12.58026123 171.08076477 C12.57606674 172.048181 12.57187225 173.01559723 12.56755066 174.0123291 C12.56809543 174.85371681 12.56864019 175.69510452 12.56920147 176.56198883 C12.3203125 178.71875 12.3203125 178.71875 10.3203125 181.71875 C9.0003125 181.38875 7.6803125 181.05875 6.3203125 180.71875 C6.2905835 179.16148193 6.2905835 179.16148193 6.26025391 177.57275391 C6.18350022 173.67734759 6.09489777 169.78228136 6.00292969 165.88720703 C5.96492536 164.20954154 5.93002578 162.53180246 5.8984375 160.85400391 C5.78304853 140.49699211 5.78304853 140.49699211 -3.3515625 122.79296875 C-7.35312035 119.08356004 -8.82121209 118.69516257 -14.6796875 117.71875 C-15.0096875 152.36875 -15.3396875 187.01875 -15.6796875 222.71875 C-3.78531843 220.55613744 4.80469934 217.35798013 12.3203125 207.71875 C26.35015868 187.05001173 34.07748998 165.16152317 38.3203125 140.71875 C38.50255371 139.66953369 38.50255371 139.66953369 38.68847656 138.59912109 C39.25498143 135.30916521 39.8014048 132.01654498 40.3203125 128.71875 C41.9703125 129.04875 43.6203125 129.37875 45.3203125 129.71875 C45.3434335 142.7398564 45.36122634 155.76095795 45.37212467 168.78208065 C45.37735403 174.82762817 45.38445264 180.8731617 45.39575195 186.91870117 C45.40657895 192.74769288 45.41258893 198.57667109 45.41518974 204.40567207 C45.41704433 206.6349261 45.42066558 208.86417935 45.42604256 211.09342766 C45.43325049 214.20414734 45.43430355 217.31481049 45.43383789 220.42553711 C45.43743317 221.35701569 45.44102844 222.28849426 45.44473267 223.24819946 C45.43436466 229.60469784 45.43436466 229.60469784 44.3203125 230.71875 C42.42658482 230.81750162 40.52912836 230.84507196 38.63282776 230.84573364 C37.39746277 230.84855347 36.16209778 230.85137329 34.88929749 230.85427856 C33.50765977 230.85233396 32.12602219 230.85028577 30.74438477 230.84814453 C29.2992244 230.84949854 27.85406439 230.85127847 26.40890503 230.85345459 C22.47299652 230.85802935 18.5371141 230.85623908 14.60120511 230.8530755 C10.49015305 230.85055164 6.37910329 230.85288956 2.26805115 230.85446167 C-4.63811648 230.85628349 -11.54427344 230.85387694 -18.45043945 230.84912109 C-26.44328112 230.8436806 -34.43609728 230.84543953 -42.42893833 230.8509475 C-49.28073992 230.85548083 -56.13253383 230.85612803 -62.98433644 230.85350883 C-67.08122588 230.851947 -71.17810331 230.8517497 -75.27499199 230.85504532 C-79.12692462 230.85792715 -82.97882427 230.85594256 -86.83075333 230.85015106 C-88.24735141 230.84882505 -89.66395225 230.8492149 -91.08054924 230.85141373 C-93.00877155 230.85413146 -94.93699989 230.85012494 -96.86521912 230.84573364 C-97.94610526 230.84535662 -99.02699141 230.84497959 -100.14063168 230.84459114 C-102.6796875 230.71875 -102.6796875 230.71875 -104.6796875 229.71875 C-104.6796875 227.53125 -104.6796875 227.53125 -103.6796875 224.71875 C-101.86224365 223.67663574 -101.86224365 223.67663574 -99.67089844 222.62304688 C-96.58844397 220.79002481 -96.58844397 220.79002481 -94.95715332 217.72558594 C-94.72402319 215.26475312 -94.72799858 212.90769717 -94.8203125 210.4375 C-94.81892273 209.54639526 -94.81753296 208.65529053 -94.81610107 207.73718262 C-94.81641207 204.89601826 -94.8694977 202.05922691 -94.9296875 199.21875 C-94.9686805 196.37900063 -94.99601284 193.54033659 -95.00042725 190.70031738 C-95.00525246 188.93604511 -95.03092669 187.17167343 -95.08013916 185.40808105 C-95.12077518 180.05244184 -94.39244289 177.80484462 -90.6796875 173.71875 C-91.30005068 170.43770528 -91.30005068 170.43770528 -92.6796875 167.71875 C-91.88691406 167.16960937 -91.88691406 167.16960937 -91.078125 166.609375 C-88.82683249 164.78400269 -87.23804473 163.17000381 -85.6796875 160.71875 C-85.33923801 156.53803032 -86.59407674 152.73509703 -87.6796875 148.71875 C-88.35656676 146.02325476 -89.01847656 143.32458235 -89.67285156 140.62353516 C-90.130266 138.75109534 -90.60194831 136.88207478 -91.08886719 135.01708984 C-91.30833008 134.14648926 -91.52779297 133.27588867 -91.75390625 132.37890625 C-91.95588623 131.60168213 -92.15786621 130.82445801 -92.3659668 130.02368164 C-93.04319509 125.04803004 -91.30940984 121.70688836 -88.6875 117.578125 C-88.06987793 116.59779297 -87.45225586 115.61746094 -86.81591797 114.60742188 C-86.15221191 113.57166016 -85.48850586 112.53589844 -84.8046875 111.46875 C-84.12937988 110.40205078 -83.45407227 109.33535156 -82.75830078 108.23632812 C-77.90395529 100.5842711 -72.99982972 92.96359889 -68.046875 85.375 C-67.66249268 84.77494141 -67.27811035 84.17488281 -66.88208008 83.55664062 C-66.03753853 82.26573529 -65.1618998 80.9949012 -64.2644043 79.74023438 C-61.0132333 75.02327348 -60.11663747 72.09770559 -60.7421875 66.21875 C-60.80656006 65.53949463 -60.87093262 64.86023926 -60.93725586 64.16040039 C-61.15114639 62.00789506 -61.4090735 59.86481564 -61.6796875 57.71875 C-61.76734375 56.99929199 -61.855 56.27983398 -61.9453125 55.53857422 C-62.36251029 52.13427091 -62.8010333 48.73659781 -63.27734375 45.33984375 C-63.47650391 43.54740234 -63.47650391 43.54740234 -63.6796875 41.71875 C-63.8240625 40.56375 -63.9684375 39.40875 -64.1171875 38.21875 C-63.49209471 33.21800768 -61.00248724 30.85362361 -57.6171875 27.28125 C-56.72833862 26.30273071 -56.72833862 26.30273071 -55.8215332 25.30444336 C-54.65007989 24.01586076 -53.47210045 22.73317549 -52.28710938 21.45703125 C-50.26658734 19.27201957 -48.31311349 17.03273462 -46.3671875 14.78125 C-45.47175419 13.76006576 -44.57612201 12.73905546 -43.6796875 11.71875 C-40.68748482 13.08245299 -38.38942221 14.66783083 -35.9296875 16.84375 C-35.31609375 17.38257812 -34.7025 17.92140625 -34.0703125 18.4765625 C-33.61140625 18.88648437 -33.1525 19.29640625 -32.6796875 19.71875 C-28.97672331 18.20580075 -26.9596711 16.0381626 -24.3671875 13.03125 C-22.82091214 11.24623195 -21.25641065 9.47693118 -19.6796875 7.71875 C-19.02095894 6.83789986 -19.02095894 6.83789986 -18.34892273 5.93925476 C-13.06427851 -0.43728112 -7.89900226 -0.22392616 0 0 Z " fill="#FA3BFF" transform="translate(501.6796875,49.28125)"/>
<path d="M0 0 C7.18794321 3.88541787 14.36980828 5.75552583 22.52734375 4.83203125 C26.15841872 2.63649755 26.88508661 0.1207217 28.2578125 -3.796875 C28.57363281 -4.45558594 28.88945313 -5.11429688 29.21484375 -5.79296875 C30.20484375 -6.12296875 31.19484375 -6.45296875 32.21484375 -6.79296875 C33.20484375 -6.29796875 33.20484375 -6.29796875 34.21484375 -5.79296875 C34.21484375 20.93703125 34.21484375 47.66703125 34.21484375 75.20703125 C32.56484375 74.87703125 30.91484375 74.54703125 29.21484375 74.20703125 C29.06789063 73.22605469 28.9209375 72.24507813 28.76953125 71.234375 C25.5331538 51.1768568 16.98794711 32.25367499 3.21484375 17.20703125 C2.48265625 16.40523437 1.75046875 15.6034375 0.99609375 14.77734375 C-8.27967517 5.07697977 -19.73643689 -3.76739023 -33.59765625 -4.10546875 C-39.32144161 -4.03575151 -42.32939341 -3.41327606 -46.78515625 0.20703125 C-51.91379048 7.12911426 -52.47663119 13.85922504 -51.78515625 22.20703125 C-49.08881035 34.72700678 -40.23604247 46.0272447 -29.78515625 53.20703125 C-22.30279776 57.85482974 -14.51903161 61.99788135 -6.78515625 66.20703125 C18.22020302 79.87610136 40.93242424 93.60942061 49.65234375 122.39453125 C55.25324774 146.19215 52.03742044 169.98569214 39.33984375 190.9296875 C35.52047145 196.82022676 31.26115746 202.31598873 26.21484375 207.20703125 C23.21484375 206.20703125 23.21484375 206.20703125 21.57666016 203.48242188 C20.97975532 202.28103313 20.39372961 201.07420158 19.81640625 199.86328125 C19.34115005 198.89859924 19.34115005 198.89859924 18.85629272 197.91442871 C17.84129072 195.84980002 16.84012113 193.7788281 15.83984375 191.70703125 C14.52326661 189.00727969 13.20113038 186.3102704 11.87890625 183.61328125 C11.56254211 182.96423828 11.24617798 182.31519531 10.92022705 181.64648438 C8.7799941 177.27798904 6.50582261 173.01908336 4.04052734 168.82617188 C3.21484375 167.20703125 3.21484375 167.20703125 3.21484375 165.20703125 C-0.25015625 166.19703125 -0.25015625 166.19703125 -3.78515625 167.20703125 C-9.75260363 156.94289943 -15.38872743 146.52929342 -20.91015625 136.01953125 C-22.07466888 133.80724851 -23.23988856 131.59534347 -24.40618896 129.38400269 C-25.15587763 127.96120429 -25.90384246 126.53749606 -26.64996338 125.11282349 C-29.26408416 120.13533319 -32.01221789 115.24827498 -34.88232422 110.4128418 C-35.78515625 108.20703125 -35.78515625 108.20703125 -35.61791992 106.06079102 C-34.17573451 102.8504381 -31.08705989 101.31029135 -28.22265625 99.45703125 C-27.29936523 98.84021484 -27.29936523 98.84021484 -26.35742188 98.2109375 C-24.84010984 97.19939614 -23.31349539 96.20183336 -21.78515625 95.20703125 C-24.58538091 90.12998841 -27.65217274 85.41143018 -31.03515625 80.70703125 C-32.10233634 79.20888427 -33.16869754 77.71015372 -34.234375 76.2109375 C-34.80462402 75.40930176 -35.37487305 74.60766602 -35.96240234 73.78173828 C-39.28495649 69.08850817 -42.56576148 64.36624258 -45.84765625 59.64453125 C-46.52344727 58.67249756 -47.19923828 57.70046387 -47.89550781 56.69897461 C-53.55312598 48.55400254 -59.18044591 40.38848342 -64.78515625 32.20703125 C-65.68234375 32.70203125 -65.68234375 32.70203125 -66.59765625 33.20703125 C-68.78515625 34.20703125 -68.78515625 34.20703125 -71.78515625 34.20703125 C-73.51331522 31.79908947 -75.03508396 29.43969382 -76.53515625 26.89453125 C-77.42276518 25.42943788 -78.31078841 23.96459542 -79.19921875 22.5 C-79.85325684 21.41017822 -79.85325684 21.41017822 -80.52050781 20.29833984 C-82.27088021 17.4038051 -84.08568346 14.55544285 -85.91015625 11.70703125 C-86.46960938 10.83046875 -87.0290625 9.95390625 -87.60546875 9.05078125 C-87.99476563 8.44234375 -88.3840625 7.83390625 -88.78515625 7.20703125 C-67.58026918 -22.77229184 -26.96198625 -14.88996696 0 0 Z " fill="#0000F2" transform="translate(666.78515625,62.79296875)"/>
<path d="M0 0 C4.98389939 4.59424908 8.41599412 9.8825706 12.0703125 15.55664062 C12.534375 16.25595703 12.9984375 16.95527344 13.4765625 17.67578125 C13.88986816 18.31427002 14.30317383 18.95275879 14.72900391 19.6105957 C15.14843262 20.06909912 15.56786133 20.52760254 16 21 C18.62113708 21 20.50935112 20.68707555 23 20 C23.44577393 20.6712793 23.89154785 21.34255859 24.35083008 22.03417969 C36.12935085 39.76116069 48.02074089 57.40809505 60 75 C58.2556187 78.82502888 56.22361516 80.67414219 52.875 83.25 C51.96492187 83.95640625 51.05484375 84.6628125 50.1171875 85.390625 C49.41851563 85.92171875 48.71984375 86.4528125 48 87 C48.41507813 87.83015625 48.83015625 88.6603125 49.2578125 89.515625 C49.69154175 90.38320435 49.69154175 90.38320435 50.1340332 91.26831055 C50.80939274 92.61886324 51.4850223 93.96928094 52.16088867 95.31958008 C54.31655661 99.62768406 56.46756212 103.93806085 58.61279297 108.25137329 C59.86397702 110.76634355 61.11681772 113.28048689 62.36981201 115.79455566 C62.99574042 117.05143773 63.62094996 118.30867807 64.24542236 119.56628418 C65.13699408 121.36153121 66.03134695 123.15539621 66.92578125 124.94921875 C67.70562378 126.51675903 67.70562378 126.51675903 68.5012207 128.1159668 C69.95097859 131.02130488 69.95097859 131.02130488 71.75463867 133.69067383 C72.16560791 134.45275146 72.57657715 135.2148291 73 136 C72.67 136.99 72.34 137.98 72 139 C71.05125 138.319375 70.1025 137.63875 69.125 136.9375 C61.47968739 131.48422018 53.77106284 126.15762769 45.9284668 120.9909668 C21.73542124 105.04740289 -3.55246647 87.02305065 -10.59594727 57.06420898 C-14.07824772 39.2739671 -11.83870619 18.63603726 -2.1875 3.0625 C-1.1046875 1.5465625 -1.1046875 1.5465625 0 0 Z " fill="#FA3BFF" transform="translate(571,79)"/>
<path d="M0 0 C1.65 0 3.3 0 5 0 C5.21914063 1.1859375 5.43828125 2.371875 5.6640625 3.59375 C11.34094895 33.07189434 25.41250911 61.5260891 50.69677734 79.18505859 C58.98396864 84.67195066 67.50408837 88.9658785 77 92 C77.79921875 92.25652344 78.5984375 92.51304687 79.421875 92.77734375 C85.98694249 94.55829291 93.06638784 94.73675133 99.37109375 91.953125 C103.02255105 89.78235039 105.7842501 87.68440258 108 84 C108.78939158 80.73730087 108.78939158 80.73730087 109.1875 77.25 C109.42533203 75.49429688 109.42533203 75.49429688 109.66796875 73.703125 C109.77753906 72.81109375 109.88710938 71.9190625 110 71 C112.66233392 73.37476475 114.10451284 75.82271084 115.69921875 79 C116.18583984 79.969375 116.67246094 80.93875 117.17382812 81.9375 C117.67333984 82.948125 118.17285156 83.95875 118.6875 85 C119.19861328 86.010625 119.70972656 87.02125 120.23632812 88.0625 C120.96045898 89.5165625 120.96045898 89.5165625 121.69921875 91 C122.14096436 91.886875 122.58270996 92.77375 123.0378418 93.6875 C124 96 124 96 124 99 C121.91780951 99.81542431 119.83420239 100.62723189 117.75 101.4375 C116.58984375 101.88996094 115.4296875 102.34242188 114.234375 102.80859375 C98.57144218 108.57815234 79.8895711 105.91579526 65.01904297 99.09082031 C60.95783216 97.16755321 56.97237794 95.11183084 52.9921875 93.02734375 C49.67629341 91.31738268 46.31286904 89.71355815 42.9375 88.125 C41.77089844 87.57070313 40.60429688 87.01640625 39.40234375 86.4453125 C32.57982798 83.54711407 26.37442146 82.17250716 19 83 C15.63121229 84.30719263 15.63121229 84.30719263 13 86 C11.515 86.495 11.515 86.495 10 87 C8.87151132 88.79707662 8.87151132 88.79707662 8 91 C7.47019531 92.16789062 7.47019531 92.16789062 6.9296875 93.359375 C6.40761719 94.54273438 6.40761719 94.54273438 5.875 95.75 C5.52179687 96.54921875 5.16859375 97.3484375 4.8046875 98.171875 C4.53914062 98.77515625 4.27359375 99.3784375 4 100 C2.68 100 1.36 100 0 100 C-1.05010787 80.88995041 -1.15672311 61.81568835 -1.13037109 42.68310547 C-1.12457183 38.41070793 -1.12803398 34.13837183 -1.13394356 29.86597633 C-1.13754245 26.54954557 -1.13641547 23.23312965 -1.13381577 19.91669846 C-1.13314987 18.33859627 -1.13396311 16.76049273 -1.13629532 15.18239212 C-1.13882165 13.00127758 -1.13498629 10.8202669 -1.12939453 8.63916016 C-1.12859894 7.40138824 -1.12780334 6.16361633 -1.12698364 4.88833618 C-1 2 -1 2 0 0 Z " fill="#FA3BFF" transform="translate(557,179)"/>
<path d="M0 0 C15.51 0 31.02 0 47 0 C45.45996711 3.08006577 44.26315789 5.08587302 42.12890625 7.65234375 C41.27474121 8.68439941 41.27474121 8.68439941 40.40332031 9.73730469 C39.79584961 10.46336914 39.18837891 11.18943359 38.5625 11.9375 C37.94084961 12.68805664 37.31919922 13.43861328 36.67871094 14.21191406 C33.71699498 17.77960771 30.73229312 21.32477853 27.69921875 24.83203125 C27.19898193 25.41283447 26.69874512 25.9936377 26.18334961 26.59204102 C25.25411595 27.66688785 24.31905683 28.73673663 23.37719727 29.80053711 C20.85949125 32.70998325 19.20254139 35.33892956 18 39 C18.96164062 39.80824219 19.92328125 40.61648437 20.9140625 41.44921875 C24.68840193 45.2335432 25.07047072 48.63115186 25.375 53.8125 C25.47748047 54.94655273 25.47748047 54.94655273 25.58203125 56.10351562 C25.71014893 57.63700583 25.81021056 59.17308592 25.8828125 60.71020508 C25.97134532 62.98756094 25.97134532 62.98756094 26.2734375 65.1862793 C26.90500419 72.55866914 23.29632147 77.29062873 19.25 83.1875 C18.61578125 84.14591797 17.9815625 85.10433594 17.328125 86.09179688 C16.10834349 87.93036339 14.87899571 89.76263098 13.63867188 91.58740234 C12.27028593 93.60206114 10.93437036 95.6325809 9.609375 97.67578125 C9.07828125 98.44277344 8.5471875 99.20976562 8 100 C7.67 100 7.34 100 7 100 C6.99413376 98.87913498 6.98826752 97.75826996 6.98222351 96.60343933 C6.92507036 86.0527559 6.85234778 75.50228005 6.76428509 64.95180798 C6.71951146 59.52737595 6.68027083 54.10302025 6.65356445 48.6784668 C6.62760117 43.44582423 6.5872485 38.21347429 6.53681374 32.98101234 C6.52009771 30.98231959 6.50861302 28.98357618 6.50238609 26.98482323 C6.49279638 24.19033325 6.46479921 21.39659998 6.43237305 18.60229492 C6.43380814 17.77151428 6.43524323 16.94073364 6.4367218 16.08477783 C6.50844883 11.90866323 6.50844883 11.90866323 4.61179829 8.36937428 C2.79772105 6.828145 0.92776236 5.39596585 -1 4 C-0.67 2.68 -0.34 1.36 0 0 Z " fill="#0000F2" transform="translate(400,50)"/>
<path d="M0 0 C0.0992963 4.58978038 0.17166748 9.17892788 0.21972656 13.76953125 C0.23977222 15.32921244 0.26701657 16.88881913 0.30175781 18.44824219 C0.35059126 20.69745314 0.37303815 22.9456659 0.390625 25.1953125 C0.41127014 25.8861795 0.43191528 26.57704651 0.45318604 27.28884888 C0.45549057 32.3249404 -0.8771741 35.10742747 -4 39 C-8.66680917 42.73549419 -13.67465897 44.13733339 -19.546875 44.09765625 C-20.39121094 44.09443359 -21.23554688 44.09121094 -22.10546875 44.08789062 C-23.41451172 44.07532227 -23.41451172 44.07532227 -24.75 44.0625 C-26.08224609 44.05573242 -26.08224609 44.05573242 -27.44140625 44.04882812 C-29.62767329 44.037074 -31.81380179 44.02064249 -34 44 C-34.94288192 38.00936641 -35.44931487 33.04993184 -31.83203125 27.93359375 C-28.98260419 25.10774816 -26.09483733 22.55252724 -23 20 C-21.51943318 18.66822161 -20.04006132 17.33511212 -18.5625 16 C-16.10227778 13.87453804 -13.61230158 11.95922618 -11 10 C-10.67 16.27 -10.34 22.54 -10 29 C-8.68 29.33 -7.36 29.66 -6 30 C-6.02094727 29.23333008 -6.04189453 28.46666016 -6.06347656 27.67675781 C-6.14665158 24.2013054 -6.19866575 20.72606237 -6.25 17.25 C-6.28351563 16.0434375 -6.31703125 14.836875 -6.3515625 13.59375 C-6.36445313 12.43359375 -6.37734375 11.2734375 -6.390625 10.078125 C-6.41157227 9.00981445 -6.43251953 7.94150391 -6.45410156 6.84082031 C-5.86084294 3.12944539 -4.09333415 0 0 0 Z " fill="#FA3AFE" transform="translate(395,236)"/>
<path d="M0 0 C1.9375 0.8125 1.9375 0.8125 4 2 C5.20171204 5.60513612 4.70719075 6.43559272 3.34765625 9.88671875 C2.80141602 11.2934082 2.80141602 11.2934082 2.24414062 12.72851562 C1.85419922 13.70498047 1.46425781 14.68144531 1.0625 15.6875 C0.67642578 16.67556641 0.29035156 17.66363281 -0.10742188 18.68164062 C-1.06332125 21.12449459 -2.02778293 23.56360441 -3 26 C-3.99 26 -4.98 26 -6 26 C-6.66 25.34 -7.32 24.68 -8 24 C-6.85279686 15.53937685 -3.27648552 7.82029092 0 0 Z " fill="#111111" transform="translate(395,98)"/>
<path d="M0 0 C-0.33 1.98 -0.66 3.96 -1 6 C-4.24804287 6.84109099 -7.49872304 7.67150656 -10.75 8.5 C-11.67039062 8.73847656 -12.59078125 8.97695313 -13.5390625 9.22265625 C-14.42851562 9.44824219 -15.31796875 9.67382812 -16.234375 9.90625 C-17.45979004 10.22045898 -17.45979004 10.22045898 -18.70996094 10.54101562 C-21 11 -21 11 -25 11 C-25 9.35 -25 7.7 -25 6 C-20.57295117 4.04222143 -16.07178975 2.95702494 -11.375 1.875 C-10.611875 1.69324219 -9.84875 1.51148438 -9.0625 1.32421875 C-5.98081338 0.60515854 -3.17533765 0 0 0 Z " fill="#111111" transform="translate(274,12)"/>
<path d="M0 0 C1.98 0 3.96 0 6 0 C8.66666667 5.33333333 11.33333333 10.66666667 14 16 C14.37012207 16.67836914 14.74024414 17.35673828 15.12158203 18.05566406 C16 20 16 20 16 23 C14.35 23 12.7 23 11 23 C2.3690205 7.25512528 2.3690205 7.25512528 0 0 Z " fill="#111111" transform="translate(196,4)"/>
<path d="M0 0 C1.55566406 1.49707031 1.55566406 1.49707031 3.015625 3.578125 C3.54414063 4.32707031 4.07265625 5.07601562 4.6171875 5.84765625 C5.15601563 6.64042969 5.69484375 7.43320313 6.25 8.25 C6.80429687 9.02730469 7.35859375 9.80460938 7.9296875 10.60546875 C12 16.47032789 12 16.47032789 12 21 C9.70825195 21.24169922 9.70825195 21.24169922 7 21 C5.23901367 19.37939453 5.23901367 19.37939453 3.66796875 17.1328125 C2.81235352 15.92818359 2.81235352 15.92818359 1.93945312 14.69921875 C1.36130859 13.84972656 0.78316406 13.00023437 0.1875 12.125 C-0.40998047 11.28324219 -1.00746094 10.44148437 -1.62304688 9.57421875 C-6 3.32142857 -6 3.32142857 -6 1 C-4 0 -4 0 0 0 Z " fill="#111111" transform="translate(374,135)"/>
<path d="M0 0 C8.58 0 17.16 0 26 0 C25.34 1.65 24.68 3.3 24 5 C11.625 5.495 11.625 5.495 -1 6 C-0.67 4.02 -0.34 2.04 0 0 Z " fill="#111111" transform="translate(149,21)"/>
<path d="M0 0 C2.475 0.99 2.475 0.99 5 2 C5.9802248 7.68839118 6.11948801 13.17294333 6.0625 18.9375 C6.05798828 19.81212891 6.05347656 20.68675781 6.04882812 21.58789062 C6.03714834 23.72529047 6.01921689 25.86265463 6 28 C3.525 27.01 3.525 27.01 1 26 C0.10884819 17.31126982 -0.11624638 8.73139464 0 0 Z " fill="#111111" transform="translate(118,0)"/>
<path d="M0 0 C0.33 1.98 0.66 3.96 1 6 C-1.59839329 8.15290343 -4.20465353 10.29606116 -6.8125 12.4375 C-7.55048828 13.04916016 -8.28847656 13.66082031 -9.04882812 14.29101562 C-9.76103516 14.87431641 -10.47324219 15.45761719 -11.20703125 16.05859375 C-11.8616333 16.59798584 -12.51623535 17.13737793 -13.19067383 17.69311523 C-15 19 -15 19 -18 20 C-18.88671875 17.35546875 -18.88671875 17.35546875 -19 14 C-16.95717714 11.73666253 -15.2054373 10.11920556 -12.8125 8.3125 C-12.22146484 7.84005859 -11.63042969 7.36761719 -11.02148438 6.88085938 C-9.36441397 5.56370085 -7.68590376 4.27989119 -6 3 C-5.24074219 2.39542969 -4.48148437 1.79085938 -3.69921875 1.16796875 C-2 0 -2 0 0 0 Z " fill="#111111" transform="translate(444,20)"/>
<path d="M0 0 C1.98 0.66 3.96 1.32 6 2 C6 8.93 6 15.86 6 23 C4.02 22.34 2.04 21.68 0 21 C0 14.07 0 7.14 0 0 Z " fill="#111111" transform="translate(349,20)"/>
<path d="M0 0 C1.67542976 0.28604898 3.34385343 0.61781233 5 1 C5.05410687 2.77049689 5.09284119 4.54146849 5.125 6.3125 C5.14820313 7.29863281 5.17140625 8.28476563 5.1953125 9.30078125 C5 12 5 12 3 15 C3.226875 16.134375 3.45375 17.26875 3.6875 18.4375 C3.790625 19.613125 3.89375 20.78875 4 22 C1.51953125 24.22265625 1.51953125 24.22265625 -1 26 C-1.02886751 21.85418113 -1.04675327 17.70838784 -1.0625 13.5625 C-1.07087891 12.37849609 -1.07925781 11.19449219 -1.08789062 9.97460938 C-1.09111328 8.84990234 -1.09433594 7.72519531 -1.09765625 6.56640625 C-1.10289307 5.52427979 -1.10812988 4.48215332 -1.11352539 3.40844727 C-1 1 -1 1 0 0 Z " fill="#0000F2" transform="translate(390,198)"/>
<path d="M0 0 C4.16574978 3.92204961 7.48411727 8.16876174 10.8125 12.8125 C11.31458984 13.50537109 11.81667969 14.19824219 12.33398438 14.91210938 C13.5599988 16.60517691 14.7805649 18.30218756 16 20 C13 22 13 22 11.109375 22.00390625 C7.88113435 20.46750283 6.21044942 17.81439855 4.25 14.9375 C3.84531494 14.35202393 3.44062988 13.76654785 3.02368164 13.16333008 C-0.06007899 8.45237154 -0.96757261 5.48291145 0 0 Z " fill="#111111" transform="translate(18,7)"/>
<path d="M0 0 C0 1.98 0 3.96 0 6 C-3.33333333 7.33333333 -6.66666667 8.66666667 -10 10 C-10.85207031 10.37382813 -11.70414062 10.74765625 -12.58203125 11.1328125 C-15 12 -15 12 -19 12 C-19 10.35 -19 8.7 -19 7 C-17.12616097 6.20558928 -15.25087114 5.41460026 -13.375 4.625 C-11.80878906 3.96371094 -11.80878906 3.96371094 -10.2109375 3.2890625 C-2.01818182 0 -2.01818182 0 0 0 Z " fill="#111111" transform="translate(398,25)"/>
<path d="M0 0 C1.5625 1.25 1.5625 1.25 3 3 C2.93258913 7.02779958 0.13346246 9.33319644 -2.5 12.125 C-5.61378784 15.30782183 -5.61378784 15.30782183 -8 19 C-9.32 18.34 -10.64 17.68 -12 17 C-11.63174813 11.91057027 -8.83539792 9.17872345 -5.4375 5.6875 C-4.65729492 4.86282227 -4.65729492 4.86282227 -3.86132812 4.02148438 C-2.58291183 2.67269654 -1.29260567 1.33519564 0 0 Z " fill="#111111" transform="translate(12,65)"/>
<path d="M0 0 C0.66 0.33 1.32 0.66 2 1 C2 2.65 2 4.3 2 6 C-0.6226232 7.33819498 -3.24786599 8.6707151 -5.875 10 C-6.62136719 10.3815625 -7.36773437 10.763125 -8.13671875 11.15625 C-8.85214844 11.5171875 -9.56757812 11.878125 -10.3046875 12.25 C-10.96452637 12.58515625 -11.62436523 12.9203125 -12.30419922 13.265625 C-14 14 -14 14 -16 14 C-16 12.02 -16 10.04 -16 8 C-13.37964982 6.63610475 -10.75443001 5.28367827 -8.125 3.9375 C-7.37863281 3.54755859 -6.63226563 3.15761719 -5.86328125 2.75585938 C-4.79013672 2.20961914 -4.79013672 2.20961914 -3.6953125 1.65234375 C-3.03547363 1.31195068 -2.37563477 0.97155762 -1.69580078 0.62084961 C-1.13618652 0.41596924 -0.57657227 0.21108887 0 0 Z " fill="#111111" transform="translate(95,15)"/>
<path d="M0 0 C2.475 0.99 2.475 0.99 5 2 C4.35561067 4.60453175 3.7095496 7.2086291 3.0625 9.8125 C2.88009766 10.55048828 2.69769531 11.28847656 2.50976562 12.04882812 C1.7577385 15.07060984 0.98514427 18.04456718 0 21 C-2.475 20.01 -2.475 20.01 -5 19 C-3.25 3.25 -3.25 3.25 0 0 Z " fill="#111111" transform="translate(14,82)"/>
<path d="M0 0 C2.475 0.99 2.475 0.99 5 2 C3.76583013 8.82423338 2.1084005 15.39367844 0 22 C-1.9375 21.1875 -1.9375 21.1875 -4 20 C-5.08062462 16.75812614 -4.96405231 16.10290139 -4.00390625 12.98828125 C-3.77509766 12.23095703 -3.54628906 11.47363281 -3.31054688 10.69335938 C-3.06369141 9.90767578 -2.81683594 9.12199219 -2.5625 8.3125 C-2.19801758 7.11657227 -2.19801758 7.11657227 -1.82617188 5.89648438 C-1.22520262 3.92860466 -0.6136095 1.96397505 0 0 Z " fill="#111111" transform="translate(388,55)"/>
<path d="M0 0 C-0.33 1.65 -0.66 3.3 -1 5 C-5.51815281 5.88277755 -9.77512694 6.10589503 -14.375 6.0625 C-16.24285156 6.04896484 -16.24285156 6.04896484 -18.1484375 6.03515625 C-19.55996094 6.01775391 -19.55996094 6.01775391 -21 6 C-20.67 4.35 -20.34 2.7 -20 1 C-13.34362157 -0.23839599 -6.7528064 -0.09139136 0 0 Z " fill="#111111" transform="translate(323,21)"/>
<path d="M0 0 C0 1.65 0 3.3 0 5 C-5.93661416 7.41862058 -11.68878497 8.9007105 -18 10 C-18 8.35 -18 6.7 -18 5 C-4.81818182 0 -4.81818182 0 0 0 Z " fill="#111111" transform="translate(24,42)"/>
<path d="M0 0 C3.57161135 0.25645546 4.76958096 0.74947459 7.23828125 3.43359375 C7.92277344 4.42488281 8.60726563 5.41617187 9.3125 6.4375 C10.00988281 7.42621094 10.70726562 8.41492188 11.42578125 9.43359375 C13 12 13 12 13 14 C11.35 14.33 9.7 14.66 8 15 C6.46623771 13.07158542 4.9482818 11.13378206 3.4375 9.1875 C2.78104492 8.36668945 2.78104492 8.36668945 2.11132812 7.52929688 C0.99411861 6.0778042 -0.01128867 4.54189429 -1 3 C-0.67 2.01 -0.34 1.02 0 0 Z " fill="#111111" transform="translate(463,22)"/>
<path d="M0 0 C0.66 0 1.32 0 2 0 C2 0.66 2 1.32 2 2 C1.34 2 0.68 2 0 2 C0 1.34 0 0.68 0 0 Z " fill="#FF0000" transform="translate(360,264)"/>
</svg>
