<?xml version="1.0" standalone="no"?>
<!DOCTYPE svg PUBLIC "-//W3C//DTD SVG 20010904//EN"
 "http://www.w3.org/TR/2001/REC-SVG-20010904/DTD/svg10.dtd">
<svg version="1.0" xmlns="http://www.w3.org/2000/svg"
 width="1500.000000pt" height="536.000000pt" viewBox="0 0 1500.000000 536.000000"
 preserveAspectRatio="xMidYMid meet">
<metadata>
Created by potrace 1.16, written by Peter Selinger 2001-2019
</metadata>
<g transform="translate(0.000000,536.000000) scale(0.100000,-0.100000)"
fill="#000000" stroke="none">
<path d="M6019 3339 c-17 -25 -57 -114 -142 -314 -28 -66 -54 -122 -57 -125
-4 -3 -21 -41 -39 -84 -18 -44 -37 -87 -42 -95 -5 -9 -27 -59 -49 -111 -23
-52 -52 -115 -64 -140 -13 -25 -27 -56 -31 -70 -4 -14 -27 -64 -51 -113 -23
-48 -46 -97 -50 -110 -4 -12 -20 -49 -36 -82 -15 -33 -26 -65 -24 -72 4 -10
40 -13 138 -13 73 0 138 4 143 8 6 4 30 49 55 100 l44 92 216 0 216 0 32 -67
c18 -38 41 -83 52 -100 l20 -33 134 0 c74 0 137 4 140 8 6 10 -42 132 -80 205
-13 26 -33 69 -43 95 -10 26 -33 76 -50 111 -17 36 -31 70 -31 78 0 7 -4 13
-10 13 -5 0 -10 6 -10 13 0 14 -49 133 -65 157 -10 16 -43 89 -76 173 -11 27
-33 76 -50 110 -17 33 -37 77 -44 97 -7 19 -30 73 -52 120 -22 47 -49 105 -60
129 l-19 44 -15 -24z m46 -714 c19 -41 35 -81 35 -88 0 -6 9 -27 20 -44 l20
-33 -105 0 c-58 0 -105 3 -105 6 0 3 15 38 33 77 18 40 39 91 46 115 8 23 16
42 18 42 2 0 19 -34 38 -75z"/>
<path d="M10655 3352 c-7 -8 -6 -1307 1 -1326 5 -13 27 -16 134 -16 94 0 130
3 139 13 7 9 12 123 13 351 l3 338 86 -83 c47 -46 128 -124 180 -174 207 -195
289 -274 381 -362 53 -51 101 -93 107 -93 8 0 10 193 9 668 l-3 667 -135 0
-135 0 -3 -354 -2 -354 -86 84 c-164 160 -221 214 -315 303 -52 48 -135 127
-186 175 -134 126 -182 168 -188 163z"/>
<path d="M940 2675 l0 -666 138 3 137 3 3 257 2 258 193 2 192 3 3 137 c3 136
2 138 -20 143 -13 3 -101 5 -196 3 l-172 -3 0 118 0 117 254 0 c222 0 255 2
260 16 8 20 8 238 0 258 -5 14 -50 16 -400 16 l-394 0 0 -665z"/>
<path d="M3195 3328 c-3 -7 -4 -305 -3 -663 l3 -650 389 -3 c279 -1 393 1 402
9 19 15 20 249 2 267 -9 9 -82 12 -265 12 l-253 0 -2 518 -3 517 -133 3 c-100
2 -134 -1 -137 -10z"/>
<path d="M8042 3328 c-9 -9 -12 -112 -12 -402 0 -387 6 -477 36 -559 8 -23 16
-46 17 -52 10 -42 162 -219 190 -220 4 0 12 -7 17 -15 5 -8 10 -11 10 -7 0 5
16 0 35 -12 61 -35 133 -50 240 -49 104 1 154 13 248 59 26 13 47 27 47 31 0
4 4 8 10 8 22 0 131 126 164 190 20 39 36 72 36 75 0 3 0 6 1 8 0 1 3 11 7 22
3 11 6 225 6 475 l1 455 -129 3 c-71 1 -133 -1 -137 -5 -5 -5 -9 -197 -9 -428
-1 -318 -5 -427 -14 -450 -16 -37 -86 -121 -97 -118 -5 2 -9 -1 -9 -7 0 -16
-110 -43 -155 -37 -55 6 -151 54 -172 87 -54 80 -52 61 -53 518 0 233 -3 428
-6 433 -8 14 -258 11 -272 -3z"/>
<path d="M13134 3327 c-2 -7 -3 -71 -2 -143 l3 -129 160 0 160 0 5 -520 5
-520 133 -3 132 -3 0 520 0 521 163 2 162 3 0 140 0 140 -458 3 c-370 2 -459
0 -463 -11z"/>
</g>
</svg>
