<?xml version="1.0" encoding="UTF-8"?><svg id="Layer_1" xmlns="http://www.w3.org/2000/svg" xmlns:xlink="http://www.w3.org/1999/xlink" viewBox="0 0 479.14 112.16"><defs><style>.cls-1,.cls-2{fill:none;}.cls-3{clip-path:url(#clippath);}.cls-4{fill:#231f20;}.cls-2{stroke:#231f20;stroke-width:.5px;}</style><clipPath id="clippath"><rect class="cls-1" width="479.14" height="112.16"/></clipPath></defs><g class="cls-3"><path class="cls-4" d="M248.2,108.64h69.86v-20.16h-48.02v-20.16h42.98v-20.16h-42.98V29.68h45.5V9.52h-67.34V108.64Zm-8.06-91.28c-4.2-3.73-8.91-6.39-14.14-7.98-5.23-1.59-10.64-2.38-16.24-2.38-4.85,0-9.57,.68-14.14,2.03-4.57,1.35-8.61,3.38-12.11,6.09-3.5,2.71-6.3,6.07-8.4,10.08-2.1,4.01-3.15,8.68-3.15,14s1.14,9.94,3.43,13.3c2.29,3.36,5.16,6.07,8.61,8.12,3.45,2.05,7.19,3.69,11.2,4.9,4.01,1.21,7.75,2.43,11.2,3.64,3.45,1.21,6.32,2.68,8.61,4.41,2.29,1.73,3.43,4.08,3.43,7.07,0,1.77-.44,3.31-1.33,4.62-.89,1.31-2.05,2.38-3.5,3.22-1.45,.84-3.08,1.47-4.9,1.89-1.82,.42-3.62,.63-5.39,.63-3.64,0-7.16-.82-10.57-2.45-3.41-1.63-6.23-3.94-8.47-6.93l-15.54,17.08c4.76,4.39,9.89,7.56,15.4,9.52,5.51,1.96,11.48,2.94,17.92,2.94,5.13,0,10.01-.65,14.63-1.96,4.62-1.31,8.68-3.31,12.18-6.02,3.5-2.71,6.28-6.11,8.33-10.22,2.05-4.11,3.08-8.91,3.08-14.42,0-5.79-1.12-10.41-3.36-13.86-2.24-3.45-5.06-6.21-8.47-8.26-3.41-2.05-7.07-3.64-10.99-4.76-3.92-1.12-7.58-2.24-10.99-3.36-3.41-1.12-6.23-2.47-8.47-4.06-2.24-1.59-3.36-3.87-3.36-6.86,0-1.87,.47-3.45,1.4-4.76,.93-1.31,2.15-2.36,3.64-3.15,1.49-.79,3.08-1.38,4.76-1.75,1.68-.37,3.31-.56,4.9-.56,2.71,0,5.58,.54,8.61,1.61,3.03,1.07,5.44,2.73,7.21,4.97l14.98-16.38Zm-74.76-7.84h-21.84v60.06c0,3.08-.49,5.93-1.47,8.54-.98,2.61-2.36,4.88-4.13,6.79-1.77,1.91-3.87,3.41-6.3,4.48-2.43,1.07-5.09,1.61-7.98,1.61s-5.58-.54-8.05-1.61c-2.47-1.07-4.6-2.57-6.37-4.48-1.77-1.91-3.15-4.18-4.13-6.79-.98-2.61-1.47-5.46-1.47-8.54V9.52h-21.84v60.9c0,5.88,.89,11.29,2.66,16.24,1.77,4.95,4.41,9.24,7.91,12.88,3.5,3.64,7.86,6.49,13.09,8.54,5.23,2.05,11.29,3.08,18.2,3.08s12.83-1.03,18.06-3.08c5.23-2.05,9.59-4.9,13.09-8.54,3.5-3.64,6.14-7.93,7.91-12.88,1.77-4.95,2.66-10.36,2.66-16.24V9.52ZM9,108.64H30.84v-38.64h41.3v-20.16H30.84V29.68h44.66V9.52H9V108.64Z"/><path class="cls-4" d="M479.14,94.03h-3.02l-2.62,5.74-2.66-5.74h-3.02l4.28,8.4v5.84h2.76v-5.84l4.28-8.4Zm-12.14,2.48v-2.48h-10.22v2.48h3.72v11.76h2.78v-11.76h3.72Zm-11.81-2.48h-2.78v14.24h2.78v-14.24Zm-4.39,14.24v-2.48h-6.46v-11.76h-2.78v14.24h9.24Zm-15.09-4.86h-3.54l1.8-5.18,1.74,5.18Zm4.48,4.86l-5.2-14.24h-2.18l-5.18,14.24h2.9l.86-2.52h5.06l.84,2.52h2.9Zm-13.18-4.88v-9.36h-2.76v9.26c0,1.64-.98,2.62-2.48,2.62s-2.46-.98-2.46-2.62v-9.26h-2.78v9.36c0,3.02,2.32,5,5.24,5s5.24-1.98,5.24-5m-15.18-2.24c0,1.44-.04,2.26-.26,2.88l-1.06-1.06-1.48,1.46,1.24,1.22c-.26,.18-.58,.26-.92,.26-.76,0-1.4-.3-1.8-.76-.54-.6-.68-1.26-.68-4s.14-3.4,.68-4c.4-.46,1.04-.76,1.8-.76s1.38,.3,1.78,.76c.54,.6,.7,1.26,.7,4m3.12,6.26l-1.22-1.22c.9-1.32,.88-2.9,.88-5.04,0-2.46,.02-4.24-1.42-5.68-1-1-2.22-1.56-3.84-1.56s-2.86,.56-3.86,1.56c-1.44,1.44-1.4,3.22-1.4,5.68s-.04,4.24,1.4,5.68c1,1,2.24,1.56,3.86,1.56,1.12,0,2.08-.26,2.88-.78l1.26,1.26,1.46-1.46Zm-12.22,.86v-2.48h-6.6v-3.46h5.62v-2.48h-5.62v-3.34h6.6v-2.48h-9.38v14.24h9.38Z"/><path class="cls-4" d="M478.14,89.27v-2.48h-6.6v-3.46h5.62v-2.48h-5.62v-3.34h6.6v-2.48h-9.38v14.24h9.38Zm-10.73-14.24h-2.9l-2.86,9.28-2.86-9.28h-2.88l4.7,14.24h2.08l4.72-14.24Zm-14.75,7.12c0,2.74-.16,3.4-.7,4-.4,.46-1.02,.76-1.78,.76s-1.4-.3-1.8-.76c-.54-.6-.68-1.26-.68-4s.14-3.4,.68-4c.4-.46,1.04-.76,1.8-.76s1.38,.3,1.78,.76c.54,.6,.7,1.26,.7,4m2.78,0c0-2.46,.02-4.24-1.42-5.68-1-1-2.22-1.56-3.84-1.56s-2.86,.56-3.86,1.56c-1.44,1.44-1.4,3.22-1.4,5.68s-.04,4.24,1.4,5.68c1,1,2.24,1.56,3.86,1.56s2.84-.56,3.84-1.56c1.44-1.44,1.42-3.22,1.42-5.68m-11.65,7.12v-2.48h-6.46v-11.76h-2.78v14.24h9.24Z"/></g><path class="cls-4" d="M478.14,70.27v-2.48h-6.6v-3.46h5.62v-2.48h-5.62v-3.34h6.6v-2.48h-9.38v14.24h9.38Zm-11.07-11.76v-2.48h-9.38v14.24h2.78v-5.78h5.62v-2.48h-5.62v-3.5h6.6Zm-11.89-2.48h-2.78v14.24h2.78v-14.24Zm-4.39,14.24v-2.48h-6.46v-11.76h-2.78v14.24h9.24Z"/><line class="cls-2" x1="355.76" y1="7" x2="355.76" y2="111.16"/></svg>