<?xml version="1.0" standalone="no"?>
<!DOCTYPE svg PUBLIC "-//W3C//DTD SVG 20010904//EN"
 "http://www.w3.org/TR/2001/REC-SVG-20010904/DTD/svg10.dtd">
<svg version="1.0" xmlns="http://www.w3.org/2000/svg"
 width="16556.000000pt" height="1830.000000pt" viewBox="0 0 16556.000000 1830.000000"
 preserveAspectRatio="xMidYMid meet">

<g transform="translate(0.000000,1830.000000) scale(0.100000,-0.100000)"
fill="#000000" stroke="none">
<path d="M10485 18291 c-55 -4 -111 -12 -125 -18 -14 -6 -133 -17 -265 -23
-132 -6 -289 -17 -350 -25 -60 -8 -182 -19 -270 -25 -88 -6 -176 -15 -195 -20
-19 -5 -87 -14 -150 -20 -63 -7 -162 -18 -220 -26 -58 -8 -139 -19 -180 -24
-163 -21 -237 -32 -272 -41 -20 -5 -71 -14 -115 -19 -112 -14 -457 -77 -658
-120 -49 -11 -120 -24 -156 -30 -37 -5 -85 -17 -108 -25 -23 -8 -65 -17 -94
-21 -29 -4 -88 -18 -131 -30 -44 -13 -89 -24 -100 -24 -12 0 -59 -11 -106 -24
-47 -13 -132 -36 -190 -50 -133 -35 -397 -110 -500 -143 -25 -8 -63 -20 -85
-26 -48 -13 -409 -132 -480 -158 -27 -10 -86 -31 -130 -48 -44 -16 -111 -41
-150 -56 -38 -15 -92 -35 -120 -45 -27 -10 -63 -25 -80 -34 -16 -9 -36 -16
-43 -16 -7 0 -34 -11 -60 -25 -26 -14 -52 -25 -59 -25 -7 0 -34 -11 -60 -24
-27 -13 -68 -33 -93 -43 -25 -11 -74 -34 -110 -51 -36 -17 -75 -33 -87 -37
-12 -3 -55 -24 -94 -46 -39 -21 -74 -39 -76 -39 -6 0 -274 -135 -318 -160 -42
-25 -99 -56 -177 -99 -81 -45 -182 -102 -218 -125 -19 -13 -54 -35 -77 -49
-24 -15 -60 -38 -80 -51 -538 -338 -1092 -790 -1480 -1205 -269 -288 -349
-384 -579 -689 -82 -108 -263 -375 -298 -437 -9 -16 -30 -50 -46 -75 -40 -62
-94 -153 -99 -165 -2 -5 -9 -17 -16 -25 -12 -14 -36 -56 -132 -235 -69 -130
-235 -469 -283 -580 -10 -22 -28 -62 -40 -88 -13 -27 -31 -70 -41 -95 -9 -26
-24 -67 -33 -92 -9 -25 -25 -63 -35 -85 -10 -22 -24 -56 -31 -75 -7 -19 -27
-75 -44 -125 -48 -135 -93 -270 -122 -365 -14 -47 -33 -105 -41 -130 -8 -25
-21 -70 -28 -100 -7 -30 -22 -89 -33 -130 -67 -242 -173 -724 -172 -781 0 -14
-11 -80 -24 -145 -13 -66 -27 -155 -31 -199 -4 -44 -13 -112 -20 -150 -8 -39
-19 -149 -26 -245 -7 -107 -17 -186 -25 -202 -18 -36 -18 8 -18 -943 -1 -744
1 -824 16 -865 11 -29 21 -107 28 -219 7 -96 15 -184 20 -195 4 -12 13 -70 19
-131 12 -112 23 -184 41 -265 5 -25 14 -83 20 -130 6 -47 18 -107 26 -135 8
-27 19 -84 25 -125 6 -41 19 -106 29 -145 22 -85 48 -191 65 -265 30 -130 140
-510 176 -605 10 -27 25 -72 33 -100 13 -46 31 -97 101 -285 13 -36 31 -85 39
-110 9 -25 25 -61 36 -81 11 -20 20 -42 20 -49 0 -12 8 -32 74 -171 14 -31 26
-61 26 -67 0 -6 20 -50 44 -99 50 -100 116 -241 116 -247 0 -2 20 -39 43 -82
24 -44 61 -110 82 -149 21 -38 50 -91 64 -117 51 -92 105 -183 126 -213 12
-16 24 -37 27 -45 3 -8 49 -80 103 -160 129 -192 153 -226 200 -287 22 -28 63
-82 90 -119 58 -79 238 -296 334 -404 83 -93 421 -431 527 -527 150 -136 424
-355 604 -483 141 -101 125 -89 326 -224 205 -136 259 -171 349 -223 11 -6 67
-40 125 -74 107 -64 134 -80 275 -154 265 -140 392 -206 410 -211 11 -4 67
-29 125 -56 58 -28 127 -60 154 -72 27 -11 74 -33 104 -48 29 -16 59 -28 64
-28 6 0 61 -22 123 -50 62 -27 118 -50 124 -50 6 0 34 -11 63 -24 87 -39 161
-67 202 -77 22 -6 51 -16 65 -24 22 -13 114 -45 301 -108 57 -19 349 -110 455
-142 132 -39 266 -75 563 -149 222 -56 299 -74 337 -80 22 -4 76 -15 120 -26
44 -10 141 -30 215 -45 74 -14 178 -35 230 -45 52 -11 136 -24 185 -30 50 -6
115 -17 145 -25 30 -7 89 -17 130 -20 41 -4 111 -14 155 -22 44 -7 141 -20
215 -28 74 -8 160 -19 190 -24 57 -11 166 -22 400 -41 74 -7 155 -15 180 -20
25 -4 153 -13 285 -20 181 -9 250 -16 280 -28 36 -16 146 -17 1325 -17 1177 0
1289 1 1325 17 30 12 100 19 290 28 138 6 282 16 320 20 39 5 174 18 300 29
127 12 248 25 270 30 22 5 96 14 165 20 69 7 150 16 180 21 30 5 109 17 175
25 66 8 143 19 170 24 28 5 84 14 125 20 41 7 125 22 185 33 61 11 141 24 178
29 38 4 90 15 115 23 26 8 74 17 107 21 33 4 103 17 155 31 52 13 103 24 115
24 11 0 67 11 125 25 58 14 152 37 210 51 228 54 411 103 550 145 36 11 90 26
120 34 30 7 75 20 100 29 25 8 159 52 299 98 140 45 270 90 290 100 19 10 42
18 51 18 8 0 31 8 50 19 19 10 53 24 75 31 22 7 53 21 70 31 16 11 35 19 42
19 11 0 155 65 283 128 179 89 598 328 690 395 14 10 52 36 85 58 300 197 636
461 910 718 50 46 100 90 112 98 37 25 59 8 98 -75 20 -42 50 -104 66 -138 16
-34 29 -64 29 -68 0 -5 8 -20 19 -34 10 -15 22 -38 26 -52 3 -14 27 -68 52
-120 25 -52 67 -140 93 -195 26 -55 70 -148 99 -206 28 -58 51 -109 51 -114 0
-4 22 -53 49 -109 27 -55 72 -148 99 -206 27 -58 70 -148 95 -200 24 -52 61
-131 82 -175 20 -44 44 -86 53 -93 12 -9 311 -12 1417 -12 1345 0 1403 1 1418
18 16 17 17 361 17 4750 0 4719 0 4732 -20 4752 -20 20 -33 20 -4919 20 -4441
0 -4901 -1 -4915 -16 -14 -14 -16 -196 -16 -1859 0 -1663 2 -1845 16 -1859 14
-14 157 -16 1428 -16 1225 0 1415 -2 1426 -15 9 -11 6 -27 -14 -79 -14 -35
-26 -67 -26 -71 0 -6 -147 -302 -181 -366 -42 -76 -160 -238 -251 -346 -178
-209 -403 -392 -658 -535 -82 -47 -247 -128 -258 -128 -7 0 -33 -11 -59 -24
-49 -25 -140 -63 -203 -86 -232 -83 -599 -190 -652 -190 -14 0 -45 -7 -68 -15
-23 -8 -90 -22 -149 -31 -58 -8 -137 -22 -176 -29 -70 -15 -386 -49 -585 -65
-329 -25 -1255 -19 -1409 10 -25 4 -107 13 -181 19 -140 12 -410 50 -540 77
-41 9 -118 24 -170 34 -115 21 -209 44 -312 76 -43 13 -84 24 -92 24 -8 0 -99
29 -203 64 -242 82 -249 84 -309 112 -28 13 -55 24 -60 24 -9 0 -40 14 -234
109 -114 56 -149 74 -263 140 -64 36 -121 73 -311 201 -42 28 -151 114 -198
154 -25 23 -85 75 -133 116 -234 203 -554 596 -735 905 -147 250 -193 341
-279 545 -17 41 -38 89 -46 105 -51 106 -225 676 -225 736 0 13 -11 65 -25
114 -14 50 -25 106 -25 125 0 20 -9 76 -20 125 -19 90 -56 418 -70 635 -10
148 -11 702 -1 845 13 182 42 443 63 565 11 63 23 144 27 180 5 36 17 99 29
140 11 41 23 95 27 120 4 25 15 69 26 98 10 29 19 60 19 70 0 21 43 163 76
250 13 34 24 70 24 80 0 9 8 33 19 52 10 19 22 46 26 60 8 27 44 116 78 193
34 76 188 381 199 394 11 14 78 124 78 129 0 1 26 40 57 86 31 46 67 98 79
116 24 35 84 112 177 226 94 115 402 419 532 525 241 196 525 372 800 496 33
15 76 36 96 46 20 10 42 19 49 19 7 0 38 11 69 24 114 47 167 68 211 80 25 7
108 31 185 53 256 73 452 114 690 143 88 11 185 24 215 29 30 6 192 16 361 22
593 25 1210 -23 1584 -121 39 -10 88 -21 110 -25 56 -8 220 -59 475 -147 66
-23 87 -32 310 -143 223 -110 275 -141 445 -259 160 -112 417 -351 554 -516
118 -143 271 -359 307 -434 8 -17 37 -71 64 -121 28 -49 58 -106 66 -125 16
-35 40 -88 87 -190 14 -30 30 -72 37 -92 6 -21 21 -45 33 -53 19 -13 466 -15
3908 -15 3388 0 3888 2 3899 15 16 19 6 120 -26 251 -13 56 -24 112 -24 125 0
28 -42 208 -76 329 -13 47 -24 92 -24 100 0 8 -12 53 -26 100 -14 47 -37 123
-51 170 -14 47 -36 113 -49 148 -13 34 -24 68 -24 75 0 7 -8 28 -19 47 -10 19
-24 59 -31 88 -6 28 -16 54 -20 57 -5 3 -16 29 -26 58 -9 28 -20 57 -25 63 -5
6 -15 30 -24 53 -8 23 -28 70 -44 104 -16 34 -49 105 -74 158 -45 94 -163 312
-215 393 -165 261 -396 585 -522 732 -25 29 -90 105 -145 171 -55 65 -210 228
-345 363 -331 331 -515 489 -889 763 -95 70 -429 295 -523 354 -21 13 -55 34
-75 46 -123 77 -246 148 -369 213 -100 53 -514 262 -560 282 -75 34 -305 136
-354 157 -30 12 -86 36 -125 53 -38 16 -97 40 -130 52 -33 12 -85 32 -115 45
-30 12 -71 28 -90 35 -19 7 -71 25 -115 41 -187 68 -739 249 -758 249 -7 0
-48 11 -92 25 -186 57 -247 75 -262 75 -8 0 -52 11 -97 24 -96 28 -182 50
-291 75 -44 11 -111 26 -150 36 -222 53 -405 94 -475 106 -30 5 -95 18 -145
29 -49 11 -171 33 -270 50 -99 17 -225 40 -280 51 -55 10 -140 23 -190 29 -49
5 -112 14 -140 20 -27 6 -88 15 -135 21 -47 6 -160 21 -251 35 -91 13 -186 24
-210 24 -24 0 -105 9 -179 20 -128 19 -452 49 -570 54 -30 1 -60 5 -65 8 -6 3
-129 11 -275 18 -203 9 -274 15 -305 28 -36 15 -149 17 -1265 18 -674 1 -1270
-2 -1325 -5z"/>
<path d="M152750 18291 c-69 -4 -136 -11 -150 -18 -15 -7 -140 -16 -315 -23
-159 -6 -328 -15 -375 -20 -47 -5 -186 -16 -310 -25 -124 -9 -261 -20 -305
-26 -44 -5 -152 -16 -240 -24 -88 -8 -205 -21 -260 -30 -55 -8 -152 -19 -215
-25 -63 -6 -149 -17 -190 -25 -41 -8 -122 -19 -180 -25 -58 -6 -136 -18 -175
-25 -38 -8 -114 -19 -169 -25 -54 -6 -109 -15 -122 -20 -13 -5 -87 -19 -164
-30 -77 -11 -152 -25 -167 -31 -15 -5 -63 -15 -108 -20 -44 -6 -102 -17 -129
-25 -28 -8 -91 -21 -142 -29 -51 -8 -105 -20 -120 -26 -16 -6 -60 -16 -99 -23
-38 -7 -101 -21 -140 -31 -38 -9 -113 -27 -165 -40 -52 -13 -122 -31 -155 -40
-33 -9 -89 -23 -125 -31 -36 -8 -92 -23 -125 -33 -33 -11 -100 -31 -150 -46
-49 -14 -110 -33 -135 -42 -25 -8 -63 -19 -85 -25 -22 -6 -69 -20 -105 -33
-36 -12 -87 -30 -115 -39 -27 -10 -77 -26 -110 -35 -33 -10 -73 -26 -90 -35
-16 -9 -39 -16 -50 -16 -11 0 -33 -7 -50 -16 -16 -9 -52 -24 -80 -34 -96 -35
-180 -67 -215 -83 -82 -36 -158 -67 -165 -67 -5 0 -33 -12 -64 -26 -31 -14
-78 -36 -106 -49 -255 -115 -680 -337 -828 -432 -37 -24 -70 -43 -73 -43 -9 0
-227 -145 -339 -225 -547 -392 -986 -831 -1301 -1300 -186 -277 -240 -374
-405 -720 -10 -22 -25 -60 -34 -84 -8 -24 -19 -49 -24 -55 -5 -6 -16 -35 -25
-65 -9 -29 -20 -59 -25 -65 -5 -6 -16 -36 -24 -66 -8 -30 -22 -75 -31 -100
-36 -106 -66 -207 -66 -225 0 -11 -11 -58 -24 -105 -26 -93 -52 -216 -68 -325
-5 -38 -18 -126 -29 -195 -25 -164 -39 -419 -39 -715 0 -419 21 -665 82 -980
11 -60 24 -130 28 -155 10 -65 86 -333 120 -425 10 -27 23 -66 28 -85 6 -19
20 -60 33 -90 21 -53 36 -86 93 -211 14 -31 26 -59 26 -62 0 -18 161 -291 237
-404 230 -340 458 -599 793 -897 115 -103 466 -355 630 -454 169 -101 641
-342 670 -342 7 0 29 -9 49 -20 20 -11 54 -26 76 -34 22 -8 72 -26 110 -41 39
-15 99 -37 135 -50 36 -12 83 -29 105 -38 22 -8 81 -27 130 -42 50 -15 122
-37 160 -50 118 -39 238 -74 275 -81 19 -3 47 -12 61 -20 15 -7 55 -20 90 -28
35 -8 114 -29 174 -46 61 -17 130 -36 155 -41 25 -6 80 -22 123 -35 43 -13 88
-24 101 -24 13 0 43 -7 67 -16 46 -16 134 -37 327 -79 62 -13 127 -28 145 -34
18 -6 65 -15 105 -22 41 -6 88 -17 106 -24 17 -7 66 -18 108 -24 42 -6 109
-19 150 -30 40 -11 96 -22 123 -26 28 -3 77 -13 110 -21 34 -8 99 -21 145 -28
47 -8 121 -21 165 -30 128 -25 255 -48 325 -58 36 -5 125 -20 198 -34 73 -13
146 -24 161 -24 16 0 73 -9 127 -20 55 -10 145 -24 201 -29 57 -6 135 -17 175
-25 40 -9 120 -20 178 -26 58 -5 164 -19 235 -30 72 -10 173 -23 225 -29 52
-5 147 -16 210 -24 63 -9 176 -21 250 -27 74 -7 151 -16 170 -20 19 -5 109
-14 200 -20 91 -7 194 -16 230 -21 36 -5 166 -18 290 -29 124 -10 252 -24 285
-30 55 -9 174 -21 710 -70 110 -10 229 -23 265 -28 36 -6 130 -16 210 -22 80
-6 168 -15 195 -20 28 -6 151 -19 274 -30 123 -12 228 -23 232 -25 4 -3 105
-14 225 -26 120 -11 222 -23 227 -26 4 -3 95 -14 200 -24 106 -10 216 -23 246
-29 29 -5 108 -14 175 -20 66 -6 141 -16 166 -21 25 -6 113 -19 195 -29 203
-25 348 -47 480 -72 61 -11 138 -25 172 -30 34 -5 88 -18 119 -28 31 -11 64
-20 73 -20 9 0 39 -11 66 -25 28 -13 56 -25 62 -25 19 0 149 -70 232 -123 186
-121 323 -326 350 -527 7 -47 17 -106 22 -131 10 -46 7 -77 -27 -261 -8 -43
-23 -95 -34 -115 -11 -21 -20 -42 -20 -48 -1 -16 -65 -113 -116 -173 -141
-168 -349 -292 -653 -391 -51 -17 -102 -31 -112 -31 -10 0 -53 -11 -96 -24
-43 -13 -105 -27 -138 -31 -33 -3 -85 -13 -115 -21 -66 -17 -433 -54 -650 -64
-327 -17 -854 -6 -1014 20 -34 6 -111 14 -172 19 -145 12 -439 65 -639 117
-33 8 -87 22 -121 29 -33 8 -80 23 -105 34 -24 12 -54 21 -66 21 -11 0 -45 11
-75 25 -29 14 -59 25 -67 25 -24 0 -193 77 -312 141 -95 52 -280 192 -387 294
-95 90 -262 277 -311 350 -100 147 -126 184 -152 213 l-29 32 -4544 0 c-4320
0 -4545 -1 -4565 -18 -22 -17 -22 -19 -11 -147 6 -72 17 -159 25 -195 8 -36
19 -112 25 -168 6 -57 15 -114 19 -125 4 -12 13 -58 20 -102 11 -70 22 -127
71 -350 6 -27 24 -99 41 -160 16 -60 37 -137 45 -170 8 -33 21 -69 28 -80 8
-11 17 -36 21 -55 9 -43 67 -187 130 -325 217 -479 522 -913 915 -1306 107
-107 218 -215 246 -240 221 -193 533 -426 757 -566 20 -12 54 -34 75 -47 99
-62 178 -110 216 -130 62 -34 120 -67 131 -76 8 -6 85 -47 282 -149 53 -27
252 -121 258 -121 6 0 119 -51 165 -75 14 -7 43 -18 65 -25 22 -7 45 -17 51
-21 6 -5 35 -18 65 -28 30 -10 97 -36 149 -56 52 -20 113 -43 135 -50 22 -8
78 -28 125 -45 47 -17 112 -40 145 -50 33 -10 80 -25 105 -33 72 -24 197 -62
300 -91 52 -15 124 -36 160 -46 64 -19 110 -31 245 -65 39 -9 108 -28 155 -41
47 -13 94 -24 105 -24 11 0 45 -7 75 -15 30 -9 100 -24 155 -35 55 -11 125
-27 155 -35 30 -8 66 -15 80 -15 14 0 70 -11 125 -24 55 -13 129 -27 165 -31
35 -3 72 -11 82 -16 10 -6 81 -18 158 -29 76 -10 143 -21 149 -24 5 -4 81 -15
168 -26 87 -11 178 -25 203 -30 25 -6 101 -17 170 -25 69 -8 175 -21 235 -29
61 -8 157 -20 215 -26 58 -6 139 -15 180 -20 41 -5 154 -17 250 -25 96 -8 216
-20 265 -25 75 -8 218 -19 615 -45 218 -14 442 -25 635 -30 178 -5 240 -11
275 -23 41 -16 161 -17 1395 -17 1233 0 1354 1 1395 17 35 12 98 18 280 23
129 3 309 11 400 17 91 6 190 12 220 13 116 6 539 36 625 45 50 5 171 16 270
24 99 9 225 22 280 31 55 8 161 19 235 25 74 6 153 15 176 20 22 5 110 17 195
25 85 9 184 23 220 30 37 8 97 17 135 20 68 6 98 11 259 40 44 8 114 19 155
25 41 6 107 17 145 25 39 7 97 18 130 24 175 28 569 108 770 157 39 9 93 21
120 27 28 5 75 16 105 24 30 8 78 19 105 25 28 5 84 20 125 33 41 13 93 26
115 30 22 4 67 15 100 25 33 10 103 31 155 46 132 38 247 72 300 90 25 9 69
22 98 29 29 7 76 22 105 33 72 27 144 51 197 67 25 8 68 22 95 33 28 11 66 25
85 32 19 7 64 24 100 37 36 14 95 36 131 48 37 13 75 28 85 34 35 19 162 71
176 71 7 0 31 12 53 25 22 14 46 25 52 25 7 0 59 21 115 47 777 360 1305 715
1783 1199 134 136 204 214 265 294 19 25 51 63 70 84 19 20 50 61 70 89 19 29
56 80 80 114 25 34 54 76 65 94 11 18 25 41 30 50 6 9 22 34 36 55 86 128 267
482 329 644 38 97 67 174 80 210 7 19 23 63 36 98 13 34 24 69 24 77 0 8 10
42 21 76 12 34 27 87 35 118 7 31 20 85 29 121 35 141 56 239 66 315 6 44 17
110 25 147 7 37 19 132 25 210 6 82 18 162 27 188 15 40 17 102 17 540 0 438
-2 498 -16 525 -10 18 -19 68 -23 130 -15 211 -104 664 -173 875 -8 25 -23 72
-33 105 -32 102 -67 199 -84 230 -9 17 -16 34 -16 40 0 15 -105 251 -142 322
-18 33 -50 93 -71 133 -20 39 -49 86 -62 104 -14 18 -25 37 -25 41 0 13 -185
285 -228 335 -7 8 -37 47 -68 85 -128 164 -363 404 -546 558 -141 117 -394
307 -488 366 -25 15 -76 48 -115 73 -38 25 -83 53 -100 62 -16 10 -46 27 -66
39 -54 32 -200 113 -266 148 -32 16 -69 37 -83 45 -24 13 -211 102 -310 145
-25 11 -67 31 -95 44 -77 36 -125 56 -190 80 -33 13 -85 33 -115 45 -199 81
-703 250 -970 326 -52 15 -122 35 -155 45 -33 10 -89 25 -125 33 -36 8 -94 22
-130 31 -36 9 -108 27 -160 40 -52 13 -126 31 -165 40 -38 10 -113 25 -165 35
-52 10 -113 23 -135 29 -22 6 -80 17 -130 25 -49 8 -126 21 -170 30 -123 23
-262 46 -345 57 -71 9 -98 13 -285 45 -44 8 -97 14 -118 14 -21 0 -107 11
-190 24 -84 13 -188 27 -232 31 -44 3 -100 11 -124 16 -24 5 -130 19 -235 29
-105 11 -213 24 -241 30 -27 5 -115 14 -195 20 -80 6 -161 15 -180 20 -19 5
-93 14 -165 20 -71 6 -202 20 -290 30 -88 11 -225 24 -305 30 -80 6 -163 15
-185 20 -22 5 -121 16 -220 25 -99 8 -227 22 -285 30 -58 8 -166 19 -240 25
-74 6 -175 18 -225 25 -49 8 -148 19 -220 25 -71 6 -175 17 -230 25 -55 8
-154 19 -220 25 -66 6 -158 17 -205 25 -47 8 -139 19 -205 24 -66 6 -158 17
-205 25 -47 8 -116 18 -155 21 -67 6 -312 37 -555 71 -63 8 -168 22 -234 29
-65 8 -153 20 -195 29 -42 8 -105 18 -141 21 -74 7 -164 20 -265 40 -38 8
-101 17 -140 20 -38 4 -106 15 -150 26 -44 10 -93 19 -108 19 -16 0 -81 11
-145 24 -65 13 -144 29 -177 36 -258 49 -508 118 -618 171 -193 92 -304 167
-403 271 -79 83 -122 153 -165 271 -30 81 -31 84 -26 232 4 132 8 159 32 225
98 270 327 489 680 650 89 41 163 70 179 70 9 0 33 7 54 16 75 34 474 115 627
129 390 34 906 35 1300 0 94 -8 328 -44 465 -71 361 -71 657 -169 929 -308 42
-21 94 -47 116 -59 221 -112 481 -350 646 -592 86 -126 93 -139 247 -455 l27
-55 4286 -3 c3895 -2 4288 -1 4300 14 11 13 10 23 -5 62 -11 26 -24 72 -31
104 -7 31 -22 85 -33 120 -10 34 -32 106 -47 158 -15 52 -34 115 -42 140 -8
25 -21 68 -29 95 -32 114 -118 371 -130 390 -7 11 -17 38 -22 60 -11 44 -41
122 -78 201 -13 28 -24 56 -24 62 0 7 -11 33 -24 59 -14 27 -61 122 -106 213
-44 91 -108 212 -142 270 -33 58 -69 121 -80 140 -11 19 -26 42 -34 51 -8 8
-14 19 -14 22 0 12 -195 296 -270 394 -160 210 -342 413 -546 613 -270 264
-497 449 -814 663 -157 106 -334 217 -345 217 -4 0 -19 8 -33 19 -86 60 -542
294 -747 382 -77 33 -158 69 -180 79 -73 34 -162 70 -174 70 -6 0 -34 11 -63
24 -29 13 -87 36 -128 51 -41 15 -97 36 -125 47 -27 11 -70 25 -95 33 -56 17
-127 41 -208 71 -34 13 -71 24 -82 24 -10 0 -49 11 -87 24 -114 39 -232 76
-245 76 -7 0 -52 11 -100 25 -152 44 -261 72 -313 83 -27 5 -75 17 -105 25
-30 9 -109 27 -175 42 -66 15 -167 37 -225 50 -58 13 -125 27 -150 31 -25 3
-81 14 -125 24 -44 10 -107 21 -140 25 -33 3 -80 12 -105 20 -25 7 -88 18
-140 25 -52 6 -120 17 -150 25 -30 7 -86 16 -125 20 -38 3 -140 17 -225 30
-85 13 -204 29 -265 35 -60 7 -128 16 -150 20 -22 5 -101 14 -175 20 -74 6
-178 17 -230 25 -52 8 -178 19 -280 25 -102 6 -209 15 -237 21 -29 6 -62 8
-72 4 -11 -3 -37 -2 -58 4 -21 5 -164 15 -318 21 -217 9 -289 15 -320 28 -37
15 -168 17 -1500 18 -803 0 -1516 -2 -1585 -5z"/>
<path d="M31375 17725 c-14 -13 -25 -35 -25 -47 0 -13 -7 -33 -15 -46 -9 -12
-24 -45 -35 -74 -52 -146 -63 -174 -71 -184 -5 -6 -18 -35 -28 -65 -52 -145
-64 -175 -72 -185 -5 -6 -18 -35 -28 -65 -52 -145 -64 -175 -72 -185 -5 -6
-18 -35 -28 -65 -52 -145 -64 -175 -72 -185 -5 -6 -18 -35 -28 -65 -52 -145
-64 -175 -72 -185 -5 -6 -18 -35 -28 -65 -52 -145 -64 -175 -72 -185 -5 -6
-18 -35 -28 -65 -52 -145 -64 -175 -72 -185 -5 -6 -18 -35 -28 -65 -52 -145
-64 -175 -72 -185 -5 -6 -18 -35 -28 -65 -52 -145 -64 -175 -72 -185 -5 -6
-18 -35 -28 -65 -52 -145 -64 -175 -72 -185 -5 -6 -18 -35 -28 -65 -52 -145
-64 -175 -72 -185 -5 -6 -18 -35 -28 -65 -52 -145 -64 -175 -72 -185 -5 -6
-18 -35 -28 -65 -52 -145 -64 -175 -72 -185 -5 -6 -18 -35 -28 -65 -52 -145
-64 -175 -72 -185 -5 -6 -18 -35 -28 -65 -52 -145 -64 -175 -72 -185 -5 -6
-18 -35 -28 -65 -52 -145 -64 -175 -72 -185 -5 -6 -18 -35 -28 -65 -52 -145
-64 -175 -72 -185 -5 -6 -18 -35 -28 -65 -52 -145 -64 -175 -72 -185 -5 -6
-18 -35 -28 -65 -52 -145 -64 -175 -72 -185 -5 -6 -18 -35 -28 -65 -52 -145
-64 -175 -72 -185 -5 -6 -18 -35 -28 -65 -52 -145 -64 -175 -72 -185 -5 -6
-18 -35 -28 -65 -52 -145 -64 -175 -72 -185 -5 -6 -18 -35 -28 -65 -52 -145
-64 -175 -72 -185 -5 -6 -18 -35 -28 -65 -52 -145 -64 -175 -72 -185 -5 -6
-18 -35 -28 -65 -52 -145 -64 -175 -72 -185 -5 -6 -18 -35 -28 -65 -29 -84
-60 -162 -72 -183 -6 -10 -19 -42 -29 -70 -53 -147 -63 -172 -71 -182 -5 -6
-18 -35 -28 -65 -52 -145 -64 -175 -72 -185 -5 -6 -18 -35 -28 -65 -29 -84
-60 -162 -72 -183 -6 -10 -19 -42 -29 -70 -53 -147 -63 -172 -71 -182 -5 -6
-18 -35 -28 -65 -52 -145 -64 -175 -72 -185 -5 -6 -18 -35 -28 -65 -29 -84
-60 -162 -72 -183 -6 -10 -19 -42 -29 -70 -53 -147 -63 -172 -71 -182 -5 -6
-18 -35 -28 -65 -52 -145 -64 -175 -72 -185 -5 -6 -18 -35 -28 -65 -26 -75
-59 -157 -82 -205 -10 -22 -19 -46 -19 -52 0 -7 -11 -35 -25 -62 -14 -27 -25
-57 -25 -67 0 -10 -7 -28 -15 -41 -9 -12 -24 -45 -35 -74 -52 -146 -63 -174
-71 -184 -5 -6 -18 -35 -28 -65 -26 -75 -59 -157 -82 -205 -10 -22 -19 -46
-19 -52 0 -7 -11 -35 -25 -62 -14 -27 -25 -57 -25 -67 0 -10 -7 -28 -15 -41
-9 -12 -24 -45 -35 -74 -52 -146 -63 -174 -71 -184 -5 -6 -18 -35 -28 -65 -26
-75 -59 -157 -82 -205 -10 -22 -19 -46 -19 -52 0 -7 -11 -35 -25 -62 -14 -27
-25 -57 -25 -67 0 -10 -7 -28 -15 -41 -9 -12 -24 -45 -35 -74 -52 -146 -63
-174 -71 -184 -5 -6 -18 -35 -28 -65 -26 -75 -59 -157 -82 -205 -10 -22 -19
-46 -19 -52 0 -7 -11 -35 -25 -62 -14 -27 -25 -57 -25 -67 0 -10 -7 -28 -15
-41 -9 -12 -24 -45 -35 -74 -52 -146 -63 -174 -71 -184 -5 -6 -18 -35 -28 -65
-26 -75 -59 -157 -82 -205 -10 -22 -19 -46 -19 -52 0 -7 -11 -35 -25 -62 -14
-27 -25 -57 -25 -67 0 -10 -7 -28 -15 -41 -9 -12 -24 -45 -35 -74 -52 -146
-63 -174 -71 -184 -5 -6 -18 -35 -28 -65 -26 -75 -59 -157 -82 -205 -10 -22
-19 -46 -19 -52 0 -7 -11 -35 -25 -62 -14 -27 -25 -57 -25 -67 0 -10 -7 -28
-15 -41 -9 -12 -24 -45 -35 -74 -52 -146 -63 -174 -71 -184 -5 -6 -18 -35 -28
-65 -26 -75 -59 -157 -82 -205 -10 -22 -19 -46 -19 -52 0 -7 -11 -35 -25 -62
-14 -27 -25 -57 -25 -67 0 -10 -7 -28 -15 -41 -9 -12 -24 -45 -35 -74 -52
-146 -63 -174 -71 -184 -5 -6 -18 -35 -28 -65 -26 -75 -59 -157 -82 -205 -10
-22 -19 -46 -19 -52 0 -7 -11 -35 -25 -62 -14 -27 -25 -57 -25 -67 0 -10 -7
-28 -15 -41 -9 -12 -24 -45 -35 -74 -52 -146 -63 -174 -71 -184 -5 -6 -18 -35
-28 -65 -26 -75 -59 -157 -82 -205 -10 -22 -19 -46 -19 -52 0 -7 -11 -35 -25
-62 -14 -27 -25 -55 -25 -62 0 -7 -7 -26 -16 -43 -15 -29 -24 -50 -74 -190
-12 -33 -26 -65 -31 -71 -5 -6 -18 -35 -28 -65 -26 -75 -59 -157 -82 -205 -10
-22 -19 -46 -19 -52 0 -7 -11 -35 -25 -62 -14 -27 -25 -55 -25 -62 0 -7 -7
-26 -16 -43 -15 -29 -24 -50 -74 -190 -12 -33 -26 -65 -31 -71 -5 -6 -18 -35
-28 -65 -26 -75 -59 -157 -82 -205 -10 -22 -19 -46 -19 -52 0 -7 -11 -35 -25
-62 -14 -27 -25 -55 -25 -62 0 -7 -7 -26 -16 -43 -15 -29 -24 -50 -74 -190
-12 -33 -26 -65 -31 -71 -5 -6 -18 -35 -28 -65 -39 -110 -66 -176 -79 -192 -8
-9 -12 -26 -10 -39 l3 -23 3420 -3 c1881 -1 3429 0 3440 2 12 3 29 24 41 53
36 79 75 176 85 211 6 19 19 48 30 65 10 18 19 38 19 46 0 8 9 33 19 55 21 44
52 120 81 201 10 28 32 83 49 123 17 39 45 105 62 145 16 39 36 91 44 115 7
24 18 48 23 55 9 11 20 38 72 185 11 29 26 62 35 74 8 13 15 29 15 37 0 8 11
37 24 65 14 29 27 63 31 78 4 14 19 38 34 52 l27 26 3489 -2 3489 -3 31 -61
c16 -33 36 -73 43 -90 102 -223 142 -313 142 -319 0 -4 9 -18 20 -32 11 -14
20 -32 20 -40 0 -8 14 -44 31 -81 18 -37 42 -89 54 -117 13 -27 43 -93 68
-145 24 -52 48 -106 52 -120 4 -14 13 -32 20 -40 7 -8 16 -26 20 -40 4 -14 19
-50 33 -80 14 -30 38 -84 55 -120 29 -66 40 -89 98 -215 18 -38 37 -73 43 -77
13 -9 7147 -11 7170 -2 20 8 20 35 0 82 -9 20 -30 71 -46 112 -16 41 -38 95
-48 120 -10 25 -33 81 -50 125 -17 44 -40 100 -50 125 -10 25 -28 70 -40 100
-11 30 -27 69 -35 85 -7 17 -20 48 -28 70 -15 40 -62 159 -97 245 -10 25 -33
81 -50 125 -17 44 -40 100 -50 125 -10 25 -28 70 -40 100 -11 30 -27 69 -35
85 -7 17 -20 48 -28 70 -15 40 -62 159 -97 245 -10 25 -33 81 -50 125 -17 44
-40 100 -50 125 -10 25 -28 70 -40 100 -11 30 -27 69 -35 85 -7 17 -20 48 -28
70 -15 40 -62 159 -97 245 -10 25 -33 81 -50 125 -17 44 -40 100 -50 125 -10
25 -28 70 -40 100 -11 30 -27 69 -35 85 -7 17 -20 48 -28 70 -15 40 -62 159
-97 245 -10 25 -33 81 -50 125 -17 44 -40 100 -50 125 -10 25 -28 70 -40 100
-11 30 -27 69 -35 85 -7 17 -20 48 -28 70 -15 40 -62 159 -97 245 -10 25 -33
81 -50 125 -17 44 -40 100 -50 125 -10 25 -28 70 -40 100 -11 30 -27 69 -35
85 -7 17 -20 48 -28 70 -15 40 -62 159 -97 245 -10 25 -33 81 -50 125 -17 44
-40 100 -50 125 -10 25 -28 70 -40 100 -11 30 -27 69 -35 85 -7 17 -20 48 -28
70 -15 40 -62 159 -97 245 -10 25 -33 81 -50 125 -17 44 -40 100 -50 125 -10
25 -28 70 -40 100 -11 30 -27 69 -35 85 -7 17 -20 48 -28 70 -15 40 -62 159
-97 245 -10 25 -33 81 -50 125 -17 44 -40 100 -50 125 -10 25 -28 70 -40 100
-11 30 -27 69 -35 85 -7 17 -20 48 -28 70 -15 40 -62 159 -97 245 -10 25 -33
81 -50 125 -17 44 -40 100 -50 125 -10 25 -28 70 -40 100 -11 30 -27 69 -35
85 -7 17 -20 48 -28 70 -15 40 -62 159 -97 245 -10 25 -33 81 -50 125 -17 44
-40 100 -50 125 -10 25 -28 70 -40 100 -11 30 -27 69 -35 85 -7 17 -20 48 -28
70 -15 40 -62 159 -97 245 -10 25 -33 81 -50 125 -17 44 -40 100 -50 125 -10
25 -28 70 -40 100 -11 30 -27 69 -35 85 -7 17 -20 48 -28 70 -15 40 -62 159
-97 245 -10 25 -33 81 -50 125 -17 44 -40 100 -50 125 -10 25 -28 70 -40 100
-11 30 -27 69 -35 85 -7 17 -20 48 -28 70 -15 40 -62 159 -97 245 -10 25 -33
81 -50 125 -17 44 -40 100 -50 125 -10 25 -28 70 -40 100 -11 30 -27 69 -35
85 -7 17 -20 48 -28 70 -15 40 -62 159 -97 245 -10 25 -33 81 -50 125 -17 44
-40 100 -50 125 -10 25 -28 70 -40 100 -11 30 -27 69 -35 85 -7 17 -20 48 -28
70 -15 40 -62 159 -97 245 -10 25 -33 81 -50 125 -17 44 -40 100 -50 125 -10
25 -28 70 -40 100 -11 30 -27 69 -35 85 -7 17 -20 48 -28 70 -15 40 -62 159
-97 245 -10 25 -33 81 -50 125 -17 44 -40 100 -50 125 -10 25 -28 70 -40 100
-11 30 -27 69 -35 85 -7 17 -20 48 -28 70 -15 40 -62 159 -97 245 -10 25 -33
81 -50 125 -17 44 -40 100 -50 125 -10 25 -28 70 -40 100 -11 30 -27 69 -35
85 -7 17 -20 48 -28 70 -15 40 -62 159 -97 245 -10 25 -33 81 -50 125 -17 44
-40 100 -50 125 -10 25 -28 70 -40 100 -11 30 -27 69 -35 85 -7 17 -20 48 -28
70 -15 40 -62 159 -97 245 -10 25 -33 81 -50 125 -17 44 -40 100 -50 125 -10
25 -28 70 -40 100 -11 30 -27 69 -35 85 -7 17 -20 48 -28 70 -15 40 -62 159
-97 245 -10 25 -33 81 -50 125 -17 44 -40 100 -50 125 -10 25 -28 70 -40 100
-11 30 -27 69 -35 85 -7 17 -20 48 -28 70 -34 92 -58 151 -68 169 -6 10 -19
42 -29 70 -16 46 -51 136 -100 256 -10 25 -28 70 -40 100 -11 30 -27 69 -35
85 -7 17 -20 48 -28 70 -35 93 -58 152 -71 175 -8 14 -19 41 -24 60 -11 38
-52 139 -83 207 -10 24 -19 47 -19 53 0 6 -14 37 -30 70 l-30 60 -4346 0
-4345 0 -24 -25z m4194 -4994 c11 -16 26 -53 32 -82 6 -30 17 -63 24 -74 6
-11 19 -42 28 -70 9 -27 30 -88 47 -135 17 -47 40 -112 50 -145 11 -33 33 -98
50 -145 17 -47 42 -114 54 -150 13 -36 29 -81 36 -100 7 -19 21 -57 32 -85 11
-27 26 -70 33 -95 7 -25 28 -83 45 -130 17 -47 40 -113 49 -147 10 -35 23 -68
29 -75 5 -7 17 -38 26 -68 8 -30 28 -91 45 -135 16 -44 34 -96 41 -115 7 -19
21 -57 32 -85 11 -27 26 -70 33 -95 7 -25 28 -83 45 -130 17 -47 39 -112 49
-145 9 -33 23 -71 31 -85 7 -13 19 -45 26 -70 7 -25 26 -81 43 -125 16 -44 34
-96 41 -115 7 -19 21 -57 32 -85 11 -27 26 -70 33 -95 13 -44 32 -97 95 -270
18 -47 40 -112 50 -146 10 -33 25 -74 33 -90 8 -16 18 -45 22 -64 4 -19 16
-52 26 -72 11 -21 19 -45 19 -55 0 -10 11 -40 25 -68 13 -27 25 -59 25 -70 0
-11 10 -40 21 -65 12 -25 27 -65 35 -90 7 -25 27 -83 44 -130 17 -47 40 -112
50 -146 10 -33 25 -74 33 -90 8 -16 18 -45 22 -64 4 -19 16 -52 26 -72 11 -21
19 -45 19 -55 0 -11 9 -37 20 -58 12 -22 26 -62 32 -90 6 -27 17 -60 25 -72 8
-12 21 -43 28 -70 8 -26 28 -86 45 -133 17 -47 40 -112 50 -145 9 -33 25 -76
33 -95 9 -19 22 -55 30 -80 8 -25 27 -76 42 -115 14 -38 35 -98 44 -132 10
-35 23 -68 29 -75 5 -7 17 -38 26 -68 8 -30 29 -93 46 -140 17 -47 38 -107 46
-135 8 -27 23 -66 33 -85 10 -19 22 -52 25 -74 4 -21 15 -57 25 -80 64 -144
78 -192 63 -214 -7 -10 -450 -12 -2233 -12 -1223 0 -2229 0 -2235 0 -25 0 -25
51 -1 108 53 126 69 169 78 206 6 22 16 51 24 65 14 25 37 87 74 201 10 30 25
69 34 87 10 18 17 40 17 49 0 10 9 36 20 59 11 22 26 61 34 85 8 25 29 83 46
130 17 47 38 105 47 130 8 25 23 63 34 86 10 23 19 47 19 54 0 7 11 38 23 69
24 57 47 119 74 201 8 25 22 63 32 85 10 22 26 63 36 90 48 139 56 162 65 180
6 11 17 40 24 65 15 45 50 140 101 275 14 39 35 95 45 125 11 30 33 93 51 140
17 47 39 108 49 136 10 28 25 65 34 82 9 17 16 39 16 49 0 10 11 41 25 68 13
28 25 58 25 69 0 10 11 44 24 75 53 126 68 168 78 206 5 22 15 49 22 60 7 11
20 43 29 70 9 28 30 88 47 135 17 47 40 110 50 140 10 30 25 69 34 85 9 17 16
37 16 45 0 8 11 39 25 68 14 30 25 62 25 71 0 9 9 35 20 56 11 22 25 58 30 80
6 22 19 58 29 80 10 22 26 63 36 90 48 139 56 162 65 180 6 11 17 40 24 65 14
42 51 144 96 265 38 99 82 221 96 265 9 25 23 63 33 85 10 22 22 56 26 75 4
19 16 51 26 70 11 19 19 42 19 50 0 8 11 38 25 65 13 28 25 59 25 70 0 11 11
43 25 70 13 28 25 57 25 65 0 8 11 39 25 68 14 30 25 62 25 71 0 9 9 35 20 56
12 22 26 60 32 85 6 25 15 50 19 56 8 10 26 58 79 214 10 30 25 69 34 85 9 17
16 38 16 47 0 30 19 68 34 68 8 0 24 -13 35 -29z"/>
<path d="M41253 17743 c-20 -7 -15 -37 11 -76 13 -19 54 -84 91 -144 36 -59
90 -146 120 -193 30 -47 66 -105 80 -130 14 -25 50 -83 80 -130 30 -47 57 -92
61 -100 4 -8 19 -33 32 -55 14 -22 36 -57 49 -77 13 -21 35 -57 50 -80 14 -24
37 -60 50 -80 13 -21 34 -55 47 -75 13 -21 35 -58 50 -83 15 -25 49 -79 75
-120 26 -41 50 -82 54 -90 3 -8 33 -58 67 -110 33 -52 69 -111 80 -130 11 -19
34 -55 50 -80 16 -25 39 -61 50 -80 11 -19 47 -78 80 -130 52 -82 124 -200
163 -265 7 -11 35 -56 62 -100 28 -44 55 -89 62 -100 30 -50 110 -179 133
-215 31 -49 115 -184 155 -250 17 -28 53 -86 80 -131 28 -45 68 -111 90 -148
22 -36 49 -79 59 -96 20 -31 49 -78 89 -142 13 -21 35 -56 49 -78 14 -22 37
-60 52 -85 15 -25 45 -72 66 -106 21 -34 49 -79 62 -100 40 -69 119 -197 149
-244 15 -25 38 -61 49 -80 11 -19 34 -55 50 -80 16 -25 39 -61 50 -80 11 -19
39 -64 61 -100 41 -64 159 -256 182 -295 7 -11 21 -33 32 -50 12 -16 26 -41
33 -55 7 -14 37 -63 67 -110 30 -47 64 -101 75 -120 11 -19 38 -64 60 -99 22
-34 40 -67 40 -71 0 -4 7 -13 16 -21 8 -7 27 -33 40 -58 13 -25 48 -84 78
-131 30 -47 73 -116 96 -155 22 -38 54 -90 70 -115 16 -25 39 -61 50 -80 11
-19 34 -55 50 -80 16 -25 39 -61 50 -80 12 -19 35 -58 53 -87 18 -29 59 -96
91 -150 33 -54 80 -129 105 -168 26 -38 52 -81 59 -95 7 -14 26 -45 42 -70 16
-25 39 -61 50 -80 11 -19 33 -54 48 -77 15 -24 47 -75 71 -115 24 -40 63 -102
86 -138 39 -61 105 -170 150 -245 21 -37 152 -247 197 -318 14 -23 50 -80 78
-127 28 -47 75 -123 105 -170 30 -47 72 -116 95 -155 23 -38 54 -90 70 -115
16 -25 39 -61 50 -80 11 -19 34 -55 50 -80 46 -72 77 -122 105 -170 14 -25 50
-83 80 -130 29 -47 84 -136 122 -198 37 -62 80 -131 95 -155 15 -23 37 -58 48
-77 11 -19 33 -54 48 -77 15 -24 47 -75 71 -115 24 -40 63 -102 86 -138 39
-62 106 -171 150 -244 30 -51 116 -191 147 -239 15 -23 37 -58 48 -77 11 -19
34 -55 50 -80 16 -25 41 -65 55 -90 14 -25 49 -83 79 -130 30 -47 71 -114 92
-150 20 -36 45 -76 54 -90 18 -27 60 -93 95 -150 12 -19 33 -53 47 -75 14 -22
37 -60 52 -85 15 -25 50 -80 77 -122 27 -43 49 -80 49 -83 0 -3 22 -38 48 -78
26 -39 63 -99 82 -132 18 -33 41 -71 50 -85 9 -14 28 -43 42 -65 25 -41 59
-96 102 -162 77 -123 186 -300 236 -383 53 -90 68 -114 115 -190 28 -44 62
-99 77 -123 15 -23 37 -58 48 -77 11 -19 34 -55 50 -80 16 -25 41 -65 55 -90
14 -25 39 -65 55 -90 50 -78 74 -117 118 -193 23 -41 49 -80 57 -87 8 -7 15
-17 15 -23 0 -6 12 -29 27 -51 14 -23 37 -57 50 -77 l23 -35 0 -2153 c0 -1464
3 -2158 10 -2172 11 -19 58 -19 3293 -19 2540 0 3286 3 3295 12 9 9 12 502 12
2156 l0 2145 21 36 c27 45 53 86 115 181 27 41 55 86 62 100 7 14 20 32 28 41
8 8 14 20 14 26 0 6 9 22 20 36 12 14 26 36 33 49 7 13 34 57 61 98 70 107
107 165 156 245 24 39 63 102 88 140 25 39 56 87 69 108 12 20 35 56 50 80 14
23 36 58 48 77 12 19 36 58 53 85 17 28 41 64 52 80 12 17 51 79 88 138 37 60
91 145 119 190 29 45 62 98 73 117 11 19 43 69 70 110 27 41 59 91 70 110 11
19 45 73 75 120 30 47 64 101 75 120 11 19 33 54 48 77 15 23 57 90 94 150 37
59 76 122 88 138 11 17 35 53 52 80 17 28 41 66 53 85 45 73 73 117 117 185
25 39 64 102 88 140 24 39 59 95 78 125 19 30 45 71 57 90 12 19 44 69 71 110
27 41 51 80 53 85 2 6 13 24 25 40 11 17 28 42 36 58 8 15 40 66 70 112 62 96
79 123 169 267 35 57 79 127 97 156 75 116 142 222 181 285 27 44 50 80 129
204 75 118 190 301 228 361 16 26 49 79 74 117 46 70 64 100 118 187 50 80
126 201 149 238 33 51 112 177 175 276 30 48 68 108 84 133 33 53 66 104 99
159 13 20 44 69 69 107 25 39 64 102 88 140 24 39 59 95 78 125 19 30 46 72
59 93 61 97 73 117 119 187 26 41 55 87 64 101 22 38 50 83 95 152 22 34 94
148 159 252 65 105 135 215 154 245 19 30 45 71 57 90 12 19 33 53 47 75 14
22 38 62 54 88 16 27 38 60 49 75 12 15 44 65 72 112 28 47 76 122 105 167 29
46 76 119 103 164 28 45 71 113 96 153 25 39 59 92 75 118 73 118 129 206 149
238 12 19 44 69 70 110 26 41 60 94 76 118 16 23 29 45 29 48 0 3 13 24 28 47
15 23 33 51 40 62 7 11 29 46 50 79 20 32 50 79 66 105 16 25 48 75 71 111 23
36 57 90 75 120 18 30 53 87 78 125 25 39 55 86 67 105 47 76 74 119 128 201
32 47 57 91 57 96 0 6 6 16 14 22 7 6 35 47 62 92 27 44 60 98 74 120 14 21
54 85 89 141 35 57 84 135 109 173 25 39 56 87 69 108 28 45 65 104 96 155 13
20 38 60 55 87 17 28 39 61 49 75 10 14 45 70 79 125 34 55 81 130 105 167 24
38 67 104 94 149 28 45 71 113 96 153 25 39 59 92 75 118 73 118 129 206 149
238 99 156 121 190 146 227 16 23 29 44 29 48 0 4 10 21 22 38 13 18 30 44 38
58 8 15 33 55 55 89 22 34 53 83 69 109 57 91 81 126 104 155 14 18 22 39 20
55 l-3 26 -3775 3 c-2076 1 -3784 0 -3795 -2 -12 -3 -29 -20 -38 -38 -9 -18
-26 -46 -36 -63 -24 -38 -114 -192 -183 -313 -29 -51 -63 -110 -75 -130 -12
-20 -34 -57 -48 -82 -14 -25 -38 -66 -53 -91 -25 -42 -93 -161 -152 -264 -50
-88 -123 -212 -176 -300 -29 -49 -61 -103 -69 -120 -9 -16 -29 -52 -45 -80
-16 -27 -41 -70 -55 -95 -14 -25 -36 -62 -48 -82 -12 -20 -46 -79 -75 -130
-30 -51 -78 -133 -107 -183 -30 -49 -63 -108 -74 -130 -12 -22 -34 -60 -50
-85 -17 -25 -39 -63 -51 -85 -11 -22 -56 -101 -100 -175 -43 -74 -108 -187
-145 -250 -36 -63 -91 -158 -122 -210 -77 -132 -99 -168 -128 -220 -14 -25
-38 -66 -53 -91 -24 -41 -67 -116 -152 -263 -14 -24 -36 -63 -50 -87 -36 -62
-68 -117 -125 -214 -27 -47 -61 -105 -75 -129 -14 -24 -56 -97 -93 -162 -38
-65 -92 -159 -122 -209 -29 -49 -77 -132 -107 -183 -29 -51 -63 -110 -75 -130
-12 -20 -34 -57 -48 -82 -38 -66 -74 -128 -130 -225 -27 -47 -61 -106 -75
-130 -46 -81 -121 -209 -175 -300 -30 -49 -63 -106 -73 -125 -18 -32 -111
-195 -152 -265 -63 -108 -136 -232 -177 -304 -26 -46 -59 -103 -73 -126 -14
-24 -35 -61 -47 -82 -29 -51 -60 -83 -76 -78 -6 3 -32 41 -57 86 -25 44 -54
95 -65 113 -11 19 -45 78 -75 131 -30 54 -66 117 -80 141 -30 53 -165 289
-200 350 -14 24 -40 69 -58 100 -18 31 -38 65 -43 77 -5 12 -25 47 -44 77 -19
30 -44 73 -55 95 -12 22 -31 56 -43 76 -12 20 -47 81 -77 134 -30 54 -66 117
-80 141 -104 181 -177 309 -189 332 -7 15 -24 43 -36 62 -13 19 -40 64 -59
100 -40 73 -77 138 -109 191 -12 20 -47 80 -77 133 -30 54 -65 114 -76 134
-29 49 -58 100 -124 216 -30 54 -66 117 -80 140 -14 23 -47 82 -75 130 -27 49
-62 109 -77 135 -15 25 -34 60 -43 76 -8 17 -28 51 -43 76 -15 26 -52 90 -82
143 -30 54 -65 114 -76 134 -29 49 -58 100 -124 216 -30 54 -66 117 -80 140
-14 23 -47 82 -75 130 -27 49 -62 109 -77 135 -14 25 -35 62 -46 81 -10 19
-54 96 -97 170 -43 74 -112 195 -154 268 -42 73 -87 152 -101 176 -14 23 -59
102 -100 175 -41 73 -85 149 -96 169 -25 44 -196 343 -303 530 -42 73 -87 152
-101 176 -39 66 -172 303 -198 349 -12 23 -32 50 -43 60 -20 16 -218 17 -3858
16 -2110 0 -3842 -3 -3848 -6z"/>
<path d="M64976 17734 c-14 -14 -16 -225 -16 -2172 0 -1937 2 -2160 16 -2180
l15 -22 3248 0 c2512 0 3250 -3 3259 -12 9 -9 12 -1443 12 -6389 0 -5784 1
-6379 16 -6393 14 -15 326 -16 3287 -16 1800 0 3278 4 3285 8 10 7 12 1282 12
6385 0 6366 0 6377 20 6397 20 20 32 20 3304 20 3042 0 3285 1 3297 17 12 13
14 363 17 2179 2 1959 1 2164 -14 2178 -14 15 -908 16 -9879 16 -8954 0 -9865
-1 -9879 -16z"/>
<path d="M85860 17724 c-7 -16 -10 -3044 -10 -8574 0 -5530 3 -8558 10 -8574
l10 -26 3284 0 c3238 0 3285 0 3296 19 7 14 10 2699 10 8581 0 5882 -3 8567
-10 8581 -11 19 -58 19 -3296 19 l-3284 0 -10 -26z"/>
<path d="M93612 17738 c-18 -18 -18 -17158 0 -17176 9 -9 753 -12 3284 -12
2970 0 3274 1 3288 16 15 14 16 544 16 5847 0 3675 3 5834 9 5840 17 17 39 0
46 -35 3 -18 15 -55 25 -83 10 -27 25 -70 33 -95 8 -25 31 -90 52 -145 20 -55
40 -113 45 -130 5 -16 23 -68 41 -115 17 -47 38 -105 46 -130 8 -25 23 -65 33
-90 11 -25 22 -56 25 -70 3 -14 14 -45 25 -70 10 -25 25 -65 33 -90 9 -25 39
-110 67 -190 29 -80 59 -165 67 -190 8 -25 23 -65 33 -90 10 -25 25 -65 33
-90 41 -121 50 -149 69 -195 12 -27 25 -63 29 -80 4 -16 22 -68 40 -115 17
-47 38 -105 46 -130 8 -25 23 -65 33 -90 10 -25 25 -65 33 -90 8 -25 31 -90
52 -145 20 -55 40 -113 45 -130 5 -16 23 -68 41 -115 17 -47 38 -105 46 -130
8 -25 23 -65 33 -90 11 -25 22 -56 25 -70 3 -14 14 -45 25 -70 10 -25 25 -65
33 -90 9 -25 39 -110 67 -190 29 -80 59 -165 67 -190 8 -25 23 -65 33 -90 10
-25 26 -67 35 -95 39 -117 48 -143 67 -190 12 -27 25 -63 29 -80 4 -16 22 -68
40 -115 17 -47 38 -105 46 -130 8 -25 23 -65 33 -90 10 -25 25 -65 33 -90 8
-25 31 -90 52 -145 20 -55 40 -113 45 -130 5 -16 23 -68 41 -115 17 -47 38
-105 46 -130 8 -25 23 -65 33 -90 11 -25 22 -56 25 -70 3 -14 14 -45 25 -70
10 -25 25 -65 33 -90 9 -25 39 -110 67 -190 29 -80 59 -165 67 -190 8 -25 23
-65 33 -90 10 -25 26 -66 34 -93 40 -119 49 -145 68 -192 12 -27 25 -63 29
-80 4 -16 22 -68 40 -115 17 -47 38 -105 46 -130 8 -25 23 -65 33 -90 10 -25
25 -65 33 -90 8 -25 31 -90 52 -145 20 -55 40 -113 45 -130 5 -16 23 -68 41
-115 17 -47 38 -105 46 -130 8 -25 23 -63 33 -85 10 -22 21 -56 25 -75 4 -19
16 -53 26 -75 10 -22 24 -60 33 -85 8 -25 38 -110 66 -190 29 -80 59 -165 67
-190 8 -25 23 -65 33 -90 11 -25 22 -56 25 -70 3 -14 14 -45 25 -70 10 -25 25
-65 33 -90 8 -25 38 -110 67 -190 29 -80 59 -165 67 -190 8 -25 23 -65 33 -90
10 -25 25 -65 33 -90 8 -25 31 -90 52 -145 20 -55 40 -113 45 -130 5 -16 23
-68 41 -115 17 -47 38 -105 46 -130 8 -25 23 -63 33 -85 10 -22 21 -56 25 -75
4 -19 16 -53 26 -75 10 -22 24 -60 33 -85 8 -25 38 -110 66 -190 29 -80 59
-165 67 -190 8 -25 23 -65 33 -90 11 -25 22 -56 25 -70 3 -14 14 -45 25 -70
10 -25 25 -65 33 -90 8 -25 38 -110 67 -190 29 -80 59 -165 67 -190 8 -25 23
-65 33 -90 10 -25 25 -65 33 -90 8 -25 31 -90 52 -145 20 -55 39 -109 42 -120
3 -11 15 -47 28 -80 30 -80 44 -121 62 -175 8 -25 21 -59 29 -75 8 -17 21 -53
28 -80 8 -28 23 -72 34 -100 11 -27 25 -66 32 -85 26 -75 36 -98 49 -114 12
-15 238 -16 2700 -16 2985 0 2724 -6 2737 68 3 20 15 51 24 67 10 17 22 48 26
70 3 22 15 56 24 75 10 19 21 51 25 70 4 19 15 49 25 65 10 17 21 48 25 70 3
22 13 54 21 70 13 29 29 74 79 220 13 39 47 135 75 215 29 80 59 165 67 190 8
25 26 77 40 115 45 122 61 169 76 215 9 25 41 117 72 205 31 88 62 180 70 205
7 25 22 68 33 95 43 110 61 162 72 205 7 25 18 56 25 70 7 14 20 45 28 70 8
25 20 59 25 75 6 17 18 50 26 75 8 25 38 110 66 190 28 80 62 177 75 215 13
39 38 108 55 155 17 47 37 105 44 130 7 25 19 57 26 70 7 13 19 45 26 70 18
62 62 191 73 215 11 24 95 263 122 350 10 33 24 69 31 80 6 11 19 47 29 80 31
107 50 159 70 197 10 20 19 45 19 55 1 10 8 36 16 58 25 67 202 568 231 655 8
25 26 77 40 115 44 120 61 168 77 215 8 25 38 110 66 190 28 80 62 177 75 215
13 39 37 108 55 155 17 47 38 109 46 139 8 29 24 70 35 90 10 19 19 44 19 54
0 10 8 34 19 55 10 20 22 55 26 77 3 22 15 56 25 75 10 19 25 58 33 85 15 50
95 279 149 430 16 44 36 101 43 126 7 26 20 60 28 75 8 16 18 45 22 64 4 19
15 51 25 70 9 19 20 50 23 68 4 19 14 48 22 65 15 33 36 93 100 287 20 63 46
133 56 155 11 22 26 63 34 90 24 87 45 149 66 187 10 20 19 45 19 55 1 10 8
36 16 58 25 67 202 568 231 655 18 54 53 151 87 242 15 36 26 74 26 83 0 9 7
29 15 45 14 26 62 163 130 365 13 39 38 108 55 155 17 47 38 109 45 138 7 29
20 63 28 75 8 12 18 38 22 57 4 19 14 48 23 65 8 16 20 52 27 80 7 27 22 73
33 100 27 64 97 262 122 340 10 33 33 98 50 145 17 47 37 105 45 130 7 25 20
61 28 80 9 19 22 55 30 80 8 25 40 117 71 205 77 217 126 366 126 382 0 19 48
65 60 58 7 -4 10 -1996 10 -5845 0 -5763 0 -5839 19 -5850 31 -16 6542 -14
6564 3 16 11 17 534 17 8587 0 8053 -1 8576 -17 8588 -25 18 -10726 18 -10741
0 -14 -19 -50 -117 -127 -348 -37 -113 -71 -216 -76 -230 -5 -14 -35 -106 -68
-206 -33 -99 -66 -196 -74 -215 -9 -19 -45 -124 -81 -234 -36 -110 -70 -213
-76 -230 -6 -16 -40 -120 -77 -230 -36 -110 -74 -225 -84 -255 -10 -30 -23
-62 -28 -72 -6 -9 -17 -45 -26 -80 -9 -34 -20 -67 -25 -73 -5 -5 -16 -39 -25
-75 -9 -36 -20 -69 -25 -75 -5 -5 -16 -39 -25 -75 -9 -36 -20 -69 -25 -75 -5
-5 -16 -39 -25 -75 -9 -36 -20 -69 -25 -75 -5 -5 -16 -39 -25 -75 -9 -36 -21
-70 -25 -75 -5 -6 -14 -33 -20 -60 -7 -28 -21 -68 -30 -90 -20 -43 -41 -105
-70 -201 -10 -33 -24 -74 -33 -90 -8 -16 -17 -45 -21 -64 -3 -19 -15 -57 -26
-85 -22 -58 -44 -125 -70 -211 -10 -34 -24 -72 -30 -85 -7 -12 -19 -45 -26
-73 -18 -69 -59 -188 -78 -225 -9 -16 -16 -37 -16 -46 0 -9 -11 -44 -23 -78
-13 -34 -55 -154 -92 -267 -37 -113 -71 -216 -76 -230 -37 -111 -124 -369
-264 -787 -91 -271 -172 -508 -179 -525 -17 -38 -50 -140 -72 -218 -9 -30 -20
-59 -24 -65 -5 -5 -16 -39 -25 -75 -9 -36 -20 -69 -25 -75 -5 -5 -16 -39 -25
-75 -9 -35 -22 -76 -29 -90 -7 -14 -19 -47 -25 -75 -7 -27 -16 -54 -21 -60 -4
-5 -16 -39 -25 -73 -9 -35 -20 -71 -25 -80 -12 -20 -45 -115 -70 -198 -10 -33
-24 -74 -33 -90 -8 -16 -18 -47 -22 -69 -3 -21 -14 -53 -22 -69 -9 -17 -22
-53 -29 -81 -17 -67 -52 -172 -71 -215 -9 -19 -21 -57 -28 -85 -8 -27 -20 -70
-29 -95 -9 -25 -18 -58 -21 -73 -6 -32 -29 -45 -50 -27 -8 7 -26 47 -40 89
-39 122 -124 364 -135 386 -6 11 -19 49 -29 85 -11 36 -31 97 -46 135 -15 39
-35 98 -45 132 -10 35 -22 68 -26 74 -10 17 -62 165 -79 227 -8 30 -19 61 -24
70 -5 9 -28 73 -51 142 -23 69 -48 136 -55 150 -7 14 -18 49 -25 78 -6 28 -16
54 -20 57 -4 3 -14 29 -20 57 -7 29 -21 69 -30 88 -10 19 -21 51 -25 70 -4 19
-14 48 -22 64 -8 15 -21 49 -28 75 -7 25 -39 118 -70 206 -30 88 -76 221 -101
295 -25 74 -49 139 -54 145 -5 6 -14 33 -20 60 -6 28 -20 70 -30 95 -21 52
-62 165 -83 230 -18 53 -96 278 -167 480 -29 80 -60 172 -71 205 -11 33 -26
74 -33 90 -8 17 -17 46 -21 65 -4 19 -15 51 -25 70 -10 19 -21 51 -25 70 -4
19 -15 51 -25 70 -9 19 -21 53 -24 74 -4 22 -16 56 -26 75 -10 20 -30 77 -46
126 -15 50 -37 115 -49 145 -12 30 -39 107 -60 170 -20 63 -41 120 -45 125 -4
6 -17 42 -28 80 -11 39 -32 102 -47 140 -15 39 -35 97 -45 130 -11 33 -35 103
-55 155 -20 52 -43 119 -51 148 -8 30 -19 62 -24 73 -6 10 -29 72 -50 137 -22
64 -56 162 -76 217 -19 55 -41 120 -48 145 -7 25 -20 59 -28 75 -9 17 -19 46
-23 65 -4 19 -15 51 -25 70 -9 19 -21 53 -24 74 -4 22 -16 56 -26 75 -10 20
-35 88 -56 151 -64 197 -131 392 -143 414 -6 11 -20 50 -30 86 -11 36 -31 97
-46 135 -15 39 -35 97 -45 130 -11 33 -35 103 -55 155 -20 52 -41 112 -46 133
-5 22 -21 65 -34 98 -14 32 -25 65 -25 74 0 8 -9 24 -20 35 -20 20 -33 20
-5413 20 -4181 0 -5396 -3 -5405 -12z"/>
<path d="M121696 17734 c-15 -14 -16 -808 -16 -8584 0 -7776 1 -8570 16 -8584
14 -15 949 -16 10133 -16 7855 0 10120 3 10129 12 9 9 12 507 12 2178 0 2087
-1 2168 -18 2183 -17 16 -505 17 -6823 17 -6142 0 -6807 2 -6827 16 l-22 15 0
1028 c0 965 1 1030 18 1050 l17 21 5292 3 c4734 2 5294 4 5308 17 13 14 15
251 15 2180 0 2029 -1 2166 -17 2178 -13 9 -1091 12 -5309 12 l-5293 0 -15 22
c-14 20 -16 125 -16 935 l0 912 22 15 c20 14 647 16 6428 16 4019 0 6411 4
6420 10 13 8 15 263 18 2181 1 1602 -1 2175 -9 2185 -10 12 -1546 14 -9730 14
-8821 0 -9719 -1 -9733 -16z"/>
</g>
</svg>
