<?xml version="1.0" encoding="UTF-8"?>
<!DOCTYPE svg PUBLIC "-//W3C//DTD SVG 1.1//EN" "http://www.w3.org/Graphics/SVG/1.1/DTD/svg11.dtd">
<svg xmlns="http://www.w3.org/2000/svg" version="1.1" width="1258px" height="340px" style="shape-rendering:geometricPrecision; text-rendering:geometricPrecision; image-rendering:optimizeQuality; fill-rule:evenodd; clip-rule:evenodd" xmlns:xlink="http://www.w3.org/1999/xlink">
<g><path style="opacity:0.983" fill="#fefffe" d="M 354.5,-0.5 C 364.833,-0.5 375.167,-0.5 385.5,-0.5C 414.814,3.30613 434.981,18.9728 446,46.5C 452.904,66.2541 456.904,86.5874 458,107.5C 458.38,118.511 458.88,129.511 459.5,140.5C 437.167,140.5 414.833,140.5 392.5,140.5C 392.941,122.062 391.774,103.729 389,85.5C 387.704,77.9421 385.038,70.9421 381,64.5C 367.219,55.4594 356.886,58.4594 350,73.5C 345.044,91.1442 342.377,109.144 342,127.5C 341.333,155.5 341.333,183.5 342,211.5C 342.45,228.769 344.784,245.769 349,262.5C 353.753,278.643 363.92,283.476 379.5,277C 386.391,270.352 390.225,262.185 391,252.5C 392.604,243.568 393.437,234.568 393.5,225.5C 387.5,225.5 381.5,225.5 375.5,225.5C 375.5,206.833 375.5,188.167 375.5,169.5C 403.169,169.333 430.835,169.5 458.5,170C 459.097,171.062 459.43,172.228 459.5,173.5C 458.876,196.836 458.043,220.169 457,243.5C 455.4,267.297 448.4,289.297 436,309.5C 423.235,326.448 406.402,336.448 385.5,339.5C 374.833,339.5 364.167,339.5 353.5,339.5C 322.26,334.439 300.76,317.105 289,287.5C 282.376,269.712 278.042,251.379 276,232.5C 270.881,185.746 271.547,139.079 278,92.5C 281.283,69.3081 289.283,47.9747 302,28.5C 315.535,11.6492 333.035,1.98257 354.5,-0.5 Z"/></g>
<g><path style="opacity:0.983" fill="#fefffe" d="M 793.5,-0.5 C 804.167,-0.5 814.833,-0.5 825.5,-0.5C 854.828,3.98252 874.828,20.1492 885.5,48C 889.506,58.5249 892.34,69.3582 894,80.5C 896.67,100.412 898.17,120.412 898.5,140.5C 876.167,140.5 853.833,140.5 831.5,140.5C 831.941,122.061 830.774,103.728 828,85.5C 827.035,75.5431 822.868,67.3764 815.5,61C 803.849,56.91 795.349,60.41 790,71.5C 784.209,90.0381 781.209,109.038 781,128.5C 780.333,155.833 780.333,183.167 781,210.5C 781.143,229.986 784.143,248.986 790,267.5C 794.394,278.113 802.227,281.946 813.5,279C 818.712,276.753 822.212,272.92 824,267.5C 827.151,258.077 829.151,248.411 830,238.5C 831.14,225.19 831.64,211.857 831.5,198.5C 853.833,198.5 876.167,198.5 898.5,198.5C 899,229.505 894.833,259.838 886,289.5C 875.749,318.35 855.582,335.017 825.5,339.5C 814.833,339.5 804.167,339.5 793.5,339.5C 762.597,335.111 741.097,318.444 729,289.5C 719.369,263.717 714.035,237.05 713,209.5C 710.397,170.693 711.731,132.027 717,93.5C 720.078,69.9234 728.078,48.2567 741,28.5C 754.535,11.6492 772.035,1.98257 793.5,-0.5 Z"/></g>
<g><path style="opacity:0.987" fill="#fefffe" d="M -0.5,4.5 C 21.8333,4.5 44.1667,4.5 66.5,4.5C 66.2982,50.1678 65.9649,95.8345 65.5,141.5C 78.1667,141.5 90.8333,141.5 103.5,141.5C 103.507,95.8302 103.174,50.1636 102.5,4.5C 125.167,4.5 147.833,4.5 170.5,4.5C 169.176,114.501 169.176,224.501 170.5,334.5C 147.833,334.5 125.167,334.5 102.5,334.5C 103.228,290.837 103.561,247.171 103.5,203.5C 90.8333,203.5 78.1667,203.5 65.5,203.5C 65.8035,247.167 66.1368,290.834 66.5,334.5C 44.1667,334.5 21.8333,334.5 -0.5,334.5C -0.5,314.167 -0.5,293.833 -0.5,273.5C 0.833333,207.833 0.833333,142.167 -0.5,76.5C -0.5,52.5 -0.5,28.5 -0.5,4.5 Z"/></g>
<g><path style="opacity:0.982" fill="#fefffe" d="M 189.5,4.5 C 212.167,4.5 234.833,4.5 257.5,4.5C 256.183,114.5 256.183,224.5 257.5,334.5C 234.833,334.5 212.167,334.5 189.5,334.5C 190.828,224.5 190.828,114.5 189.5,4.5 Z"/></g>
<g><path style="opacity:0.985" fill="#fefffe" d="M 474.5,4.5 C 497.167,4.5 519.833,4.5 542.5,4.5C 541.57,50.1576 541.237,95.8242 541.5,141.5C 553.833,141.5 566.167,141.5 578.5,141.5C 578.638,95.8286 578.305,50.1619 577.5,4.5C 600.167,4.5 622.833,4.5 645.5,4.5C 644.182,114.5 644.182,224.5 645.5,334.5C 622.833,334.5 600.167,334.5 577.5,334.5C 578.335,290.839 578.668,247.172 578.5,203.5C 566.167,203.5 553.833,203.5 541.5,203.5C 541.228,247.177 541.561,290.844 542.5,334.5C 519.833,334.5 497.167,334.5 474.5,334.5C 475.806,224.5 475.806,114.5 474.5,4.5 Z"/></g>
<g><path style="opacity:0.984" fill="#fefffe" d="M 1017.5,339.5 C 1005.5,339.5 993.5,339.5 981.5,339.5C 946.496,335.67 925.663,316.336 919,281.5C 917.011,271.589 915.678,261.589 915,251.5C 914.638,169.165 914.138,86.8317 913.5,4.5C 936.167,4.5 958.833,4.5 981.5,4.5C 980.394,88.1618 980.228,171.828 981,255.5C 981.308,262.409 983.308,268.743 987,274.5C 990.311,277.819 994.311,279.152 999,278.5C 1005.49,279.231 1010.49,276.897 1014,271.5C 1016.12,266.018 1017.45,260.351 1018,254.5C 1018.76,171.162 1018.59,87.8292 1017.5,4.5C 1040.17,4.5 1062.83,4.5 1085.5,4.5C 1084.88,86.1652 1084.38,167.832 1084,249.5C 1083.78,270.261 1079.12,289.928 1070,308.5C 1057.65,327.428 1040.15,337.762 1017.5,339.5 Z"/></g>
<g><path style="opacity:0.987" fill="#fefffe" d="M 1257.5,4.5 C 1257.5,25.1667 1257.5,45.8333 1257.5,66.5C 1242.5,66.5 1227.5,66.5 1212.5,66.5C 1212.3,155.836 1212.63,245.17 1213.5,334.5C 1190.83,334.5 1168.17,334.5 1145.5,334.5C 1146.35,245.169 1146.68,155.836 1146.5,66.5C 1131.17,66.5 1115.83,66.5 1100.5,66.5C 1101.02,45.837 1101.35,25.1703 1101.5,4.5C 1153.5,4.5 1205.5,4.5 1257.5,4.5 Z"/></g>
</svg>
