<svg xmlns="http://www.w3.org/2000/svg" xmlns:xlink="http://www.w3.org/1999/xlink" version="1.1" id="Layer_1" x="0px" y="0px" viewBox="0 0 527.9 189.8" style="enable-background:new 0 0 527.9 189.8;" xml:space="preserve">
<style type="text/css">
	.st0{fill:#CC0000;}
	.st1{fill:#FFFFFF;}
</style>
<rect class="st0" width="527.9" height="189.8"/>
<path class="st1" d="M457,151.3c0-11.3,9-20.5,20-20.5s19.9,9.2,19.9,20.5s-9,20.5-19.9,20.5S457,162.6,457,151.3z"/>
<path class="st1" d="M30,40.5C30,29.2,38.9,20,49.9,20s19.9,9.2,19.9,20.5S60.9,61,49.9,61S30,51.9,30,40.5z"/>
<path class="st1" d="M495.8,119.8h-35.9V25.2h35.9V119.8z"/>
<path class="st1" d="M232.1,60.1c-2.1-2-5.2-2.2-7.7-1.4c-2.3,1-3.9,3.2-4.2,5.7l-0.1,60.8c0.5,2.5,2.2,4.6,4.6,5.5  c1.8,0.5,3.8,0.5,5.6-0.1c1.9-1.3,3.6-2.3,3.6-5.9l0.1-60C233.9,63,233.2,61.4,232.1,60.1L232.1,60.1z M266.1,43.1  c3.6,4.8,5.1,13.3,5.2,21.3l-0.2,61.9c-0.5,16.1-9.5,33.7-23.4,39.2c-13.9,6.6-35.7,5.6-48-4c-10.7-8.3-16.1-20.4-16.7-33.9l0.1-69  c0.9-9.8,5.9-20.3,13.5-25c5.6-4,12.1-6.3,18.9-6.8C229.9,25,255.5,24.8,266.1,43.1L266.1,43.1z"/>
<path class="st1" d="M407.8,116.3c0,0.1-7.6-40.9-7.6-41s0-0.7-7.9,41C392.2,116.4,407.7,116.4,407.8,116.3L407.8,116.3z M429.5,26  c1,0.3,21.5,142.2,21.5,142.6c-0.3,0.1-34,0-34,0l-3.6-21.3c0,0-25.9,0.1-25.9,0c0-0.1-4,21.3-4,21.3c-0.3,0-34.9,0.1-35,0  S374,26.2,373.9,26C374,26.2,429.5,26,429.5,26L429.5,26z"/>
<path class="st1" d="M321.8,131.6h22v37.2c-0.1-0.1-58.4,0-58.4,0V26h36.5C321.7,26,321.8,131.8,321.8,131.6L321.8,131.6z"/>
<path class="st1" d="M118.9,77.1h14.4V26.4h35.5v142.5h-35.3l0.1-55.8h-14.3l-0.1,55.8H82.8V26.4h36L118.9,77.1z"/>
<g>
	<g>
		<path class="st1" d="M68.8,168.9H33.2l0.1-103.1h35.5V168.9z"/>
	</g>
</g>
</svg>