<svg xmlns:xlink="http://www.w3.org/1999/xlink"  xmlns:dc="http://purl.org/dc/elements/1.1/" xmlns:cc="http://creativecommons.org/ns#" xmlns:rdf="http://www.w3.org/1999/02/22-rdf-syntax-ns#" xmlns:svg="http://www.w3.org/2000/svg" xmlns="http://www.w3.org/2000/svg" version="1.1" width="476.95969" height="121.43749" id="svg4421">
  <defs id="defs4423">
    <clipPath id="clipPath4465-6">
      <path d="m -5.289e-6,1.8311e-4 842.0399952889999,0 0,595.31999689 -842.0399952889999,0 0,-595.31999689 z" id="path4467-5"/>
    </clipPath>
    <clipPath id="clipPath4475-2">
      <path d="m 0,0 776.18,0 0,196.22 L 0,196.22 0,0 z" id="path4477-8"/>
    </clipPath>
  </defs>
  <g transform="translate(-174.16749,-199.79195)" id="layer1">
    <g transform="matrix(1.25,0,0,-1.25,-176.275,904.43741)" id="g4437">
      <g transform="matrix(4.47004,0,0,4.47004,-2969.6826,-1954.0096)" id="g4461">
        <g clip-path="url(#clipPath4465-6)" id="g4463">
          <g transform="matrix(1.1806,0,0,0.29688,727.25,541.69)" id="g4469">
            <g transform="scale(0.092762,0.36694)" id="g4471">
              <g clip-path="url(#clipPath4475-2)" id="g4473">
                <g id="g4479">
                  <g id="g4481">
                    <g id="g4483"/>
                  </g>
                  <path d="m 0.52729,196.22 0,0 52.46571,0 0,0 0,-42.52 0,0 32.692,0 0,0 4.746,-7.13 4.745,-7.13 8.964,-14.26 9.23,-14.53 9.23,-14.257 0,0 0,57.307 0,0 46.4,0 0,0 0,-148.1541 0,0 -39.29,0 0,0 -4.74,6.6021 -4.22,6.603 -8.7,13.204 -8.44,13.733 -8.697,13.204 0,0 -0.264,-12.94 0,-13.469 0,-13.468 0,-13.4691 0,0 -94.12171,0 0,0 L -4.65e-7,52.818 l 0,47.532 0,47.54 0,47.54 0,0 0,0.53 0.263640465,0.26 0.26365,0 0,0 z m 4.74561,-6.34 0,0 0,-35.65 0,0 2.1092,-2.11 2.1092,-2.38 2.3727,-2.11 2.9,-1.85 3.164,-1.59 3.691,-1.05 1.846,-0.27 1.845,-0.26 2.109,0 2.373,0 0,0 2.9,0.53 2.9,0.79 2.637,1.06 2.9,1.32 2.373,1.85 1.845,1.84 1.582,2.12 0.527,1.05 0.264,1.06 0,0 0.264,2.11 0.263,2.11 -0.263,4.49 -0.264,4.76 0,4.75 0,0 0,18.22 0,0 -10.282,0.27 -10.282,0 -10.546,0 -10.5461,0 0,0 -0.5273,-0.27 -0.2637,-0.79 0,0 z m 47.9841,-41.46 0,0 -0.264,-34.07 0,-34.594 0,-34.332 0,-34.596 0,0 36.383,0 0,0 0,66.815 0,0 18.454,-28.786 18.98,-29.578 0,0 2.9,-5.018 1.59,-2.113 0.52,-0.792 0.79,-0.528 0,0 1.59,-0.264 1.84,-0.264 4.22,0 3.95,0.528 3.7,0 0,0 15.55,0 0,0 0,137.592 0,0 -35.59,0 0,0 0,-70.777 0,0 -11.34,17.694 -11.07,17.693 -11.338,17.96 -5.537,8.71 -6.064,8.72 0,0 -29.264,0 0,0 z M 5.2729,11.356 l 0,0 10.5461,-0.528 10.809,0 10.81,0 10.282,0.528 0,0 0,132.574 0,0 -0.527,0.26 -0.791,-0.26 -0.791,-0.53 -1.055,-1.05 -0.791,-0.8 0,0 -2.372,-1.05 -2.373,-1.06 -2.373,-0.79 -2.637,-0.79 -2.372,-0.27 -2.637,-0.26 -2.636,0 -2.637,0 -2.636,0.53 -2.637,0.52 -2.373,0.8 -2.372,0.79 -2.373,1.05 -2.1094,1.33 -2.1091,1.32 -1.8456,1.58 0,0 0,-133.894 0,0 z" id="path4485" style="fill:#70277a;fill-opacity:1;fill-rule:evenodd;stroke:none"/>
                  <path d="m 169,196.22 0,0 153.97,0 0,0 -2.9,-19.81 -2.64,-20.07 0,0 3.96,0.79 4.21,0.53 3.96,0.27 3.69,0.26 3.95,0 3.7,-0.26 3.69,-0.27 3.42,-0.26 3.43,-0.53 3.43,-0.79 3.16,-0.79 3.17,-1.06 3.16,-1.06 2.9,-1.32 5.8,-2.9 5.27,-3.44 4.75,-3.96 4.48,-4.22 3.96,-4.76 3.42,-5.01 2.9,-5.55 2.38,-5.55 2.1,-6.07 0,0 0.27,10.56 0,10.83 0,11.09 0,10.83 0,0 49.56,0 0,0 0,-72.36 0,0 0,-10.035 0.27,-4.754 0.26,-4.49 0.79,-3.961 0.53,-1.849 0.79,-1.584 1.06,-1.585 1.05,-1.056 1.05,-1.32 1.59,-0.793 0,0 1.31,-0.528 1.59,-0.528 2.9,-0.264 2.63,0 2.9,0.528 2.38,1.056 2.37,1.585 1.84,1.584 1.32,1.849 0,0 1.06,2.113 0.52,2.113 0.8,2.64 0.26,2.641 0.53,6.074 0.26,6.867 -0.26,6.602 0,6.866 -0.53,12.149 0,0 0,50.44 0,0 49.83,0 0,0 0,-43.31 0,0 1.58,4.49 1.85,4.75 2.1,4.23 2.38,3.96 2.63,3.96 2.9,3.7 3.17,3.43 3.43,2.91 3.69,2.9 3.95,2.64 4.22,2.38 4.48,2.11 4.75,1.59 5.27,1.32 5.27,1.05 5.8,0.8 0,0 6.33,0.52 6.06,0 5.54,-0.52 5.54,-0.8 5.27,-1.05 5.01,-1.59 4.75,-1.85 4.48,-2.11 4.22,-2.64 3.95,-2.64 3.43,-3.17 3.43,-3.43 2.9,-3.7 2.63,-3.96 2.11,-4.23 1.85,-4.49 0,0 0.52,7.93 0,8.18 -0.26,8.45 0.26,8.19 0,0 47.72,0 0,0 0,-50.7 0,0 23.73,0 0,0 0,50.7 0,0 47.99,0 0,0 0,-148.1541 0,0 -47.99,0 0,0 0,59.1561 0,0 -23.2,0 0,0 -0.53,-14.525 0,-14.789 0.27,-15.053 -0.27,-14.7891 0,0 -47.72,0 0,0 0,31.9551 0,0 -1.31,-2.905 -1.59,-2.905 -1.58,-2.641 -1.84,-2.641 -1.85,-2.377 -2.11,-2.376 -2.11,-2.377 -2.37,-2.113 -2.37,-2.113 -2.64,-1.848 -2.64,-1.585 -2.9,-1.584 -2.9,-1.585 -3.16,-1.3205 -3.16,-1.3205 -3.43,-0.7922 0,0 -3.69,-1.0564 -3.69,-0.7923 -3.69,-0.5282 -3.96,-0.264 -3.95,-0.2641 -3.96,-0.2641 -3.95,0.2641 -4.22,0.2641 -3.69,0.264 -3.96,0.5282 -3.69,0.7923 -3.69,1.0564 -3.43,1.0563 -3.42,1.0564 -3.17,1.5845 -2.9,1.585 0,0 -2.63,1.584 -2.38,1.849 -4.48,3.697 -3.95,4.226 -3.7,4.489 -3.42,5.018 -2.9,5.282 -2.64,5.546 -2.11,5.545 0,0 -0.53,-10.299 0,-10.564 0.27,-10.563 0,-10.5641 0,0 -47.19,0 0,0 0,10.5641 0,0 -6.6,-4.226 -3.69,-2.3767 -3.69,-1.8486 -3.95,-1.8487 -4.48,-1.5845 -4.75,-1.0564 -5.01,-0.5282 0,0 -5.54,-0.264 -5.53,0.5281 -4.75,0.7923 -4.74,1.3205 -4.22,1.8486 -3.96,2.1127 -3.42,2.6409 -3.17,3.169 -2.9,3.169 -2.63,3.698 -2.11,3.961 -1.85,4.489 -1.58,4.49 -1.32,4.754 -1.05,4.753 -0.53,5.282 0,0 -1.85,-5.282 -1.84,-5.017 -2.38,-4.754 -2.63,-4.49 -2.9,-4.489 -3.17,-3.962 -3.42,-3.697 -3.69,-3.433 -4.22,-2.905 -4.22,-2.905 -4.75,-2.3769 -5.27,-2.1127 -5.27,-1.5845 -5.8,-1.3205 -6.33,-0.79227 -6.59,-0.2641269479987 0,0 -6.59,0 L 325.34,0.52821 l -5.8,0.79229 -5.8,1.5845 -5.27,1.8487 -4.75,2.1127 -4.74,2.6409 -4.22,2.9047 -3.96,3.434 -3.43,3.697 -3.16,3.961 -3.16,4.226 -2.64,4.753 -2.11,4.754 -2.11,5.018 -1.84,5.281 0,0 -0.27,-10.299 0,-10.564 0,-10.563 0,-10.5641 0,0 -52.73,0 0,0 0,142.3441 0,0 -44.55,0 0,0 -3.17,23.77 -3.16,23.77 0,0 0,0.53 0.26,0.26 0.27,0 0,0 z m 5.8,-6.34 0,0 2.37,-18.22 2.37,-17.96 0,0 11.34,0 11.6,0 11.34,0 11.07,-0.26 0,0 0,-35.66 0,-35.912 0,-35.652 0.26,-35.388 0,0 10.55,0 10.55,0 10.28,0 10.28,0.528 0,0 0,142.344 0,0 44.29,0 0,0 1.58,8.98 1.32,9.77 1.32,9.51 1.06,8.98 0,0 -141.05,0 0,0 -0.53,0 -0.27,-0.27 0.27,-0.79 0,0 z m 134.98,-42.52 0,0 -3.16,-1.32 -3.16,-1.58 -2.9,-1.85 -2.64,-2.11 -2.64,-2.38 -2.37,-2.64 -4.48,-5.28 0,0 -2.11,-2.91 -2.11,-2.9 -1.84,-3.17 -1.59,-3.17 -1.31,-3.43 -1.32,-3.44 -1.06,-3.43 -1.05,-3.43 0,0 -0.79,-3.97 -0.79,-4.221 -0.53,-4.225 -0.53,-4.49 0,-4.225 -0.26,-4.49 0.26,-4.489 0.27,-4.226 0.26,-4.225 0.79,-4.49 0.53,-3.961 1.05,-4.226 1.06,-3.961 1.05,-3.697 1.32,-3.433 1.32,-3.434 0,0 1.58,-3.169 1.84,-3.169 1.85,-3.169 2.11,-2.641 2.37,-2.905 2.38,-2.377 2.63,-2.376 2.64,-2.113 2.9,-2.113 3.16,-1.849 3.17,-1.584 3.42,-1.5847 3.69,-1.0563 3.7,-1.0564 3.95,-0.7923 4.22,-0.7923 0,0 4.48,-0.2641 4.48,-0.264 4.22,0 4.22,0.5281 3.95,0.5282 3.96,0.5282 3.95,1.0564 3.69,1.3204 3.7,1.3208 3.42,1.584 3.17,1.585 3.16,2.113 3.16,2.112 2.9,2.113 2.64,2.641 2.64,2.641 0,0 2.9,3.697 2.63,3.961 2.64,4.754 2.11,4.754 1.84,5.282 1.32,5.281 1.32,5.81 0.79,5.81 0.79,5.81 0.27,6.074 0,5.81 -0.53,6.075 -0.53,5.81 -0.79,5.809 -1.32,5.55 -1.58,5.28 0,0 -1.58,4.75 -2.11,4.49 -2.37,4.49 -2.64,3.96 -2.9,3.96 -3.16,3.7 -3.69,3.17 -3.7,2.91 -4.21,2.64 -4.75,2.37 -4.75,1.85 -5.27,1.59 -5.53,1.05 -5.8,0.79 -6.33,0.27 -6.33,-0.27 0,0 -3.43,-0.26 -3.42,-0.53 -3.43,-0.53 -2.9,-1.05 0,0 -1.06,-0.53 -0.52,-0.53 -1.32,-1.32 0,0 -2.11,0.27 -1.32,-0.27 -1.85,-0.53 0,0 z m 283.69,4.23 0,0 -4.75,-0.27 -4.74,-0.52 -4.22,-0.8 -4.22,-1.05 -3.69,-1.32 -3.69,-1.32 -3.43,-1.59 -3.43,-1.85 -3.16,-2.11 -2.9,-2.38 -2.64,-2.37 -2.37,-2.64 -2.37,-2.64 -2.11,-2.91 -2.11,-3.17 -1.85,-3.43 0,0 -1.58,-3.44 -1.58,-3.43 -1.32,-3.96 -1.32,-3.96 -1.05,-3.96 -1.06,-4.228 -0.52,-4.225 -0.53,-4.226 -0.53,-4.49 0,-4.489 0,-4.754 0.27,-4.489 0.26,-4.49 0.79,-4.753 0.79,-4.49 1.06,-4.49 0,0 1.05,-3.697 1.32,-3.697 1.32,-3.433 1.84,-3.433 1.58,-3.434 2.11,-3.169 2.11,-3.169 2.38,-2.905 2.63,-2.641 2.64,-2.641 2.9,-2.376 2.9,-2.113 3.16,-1.849 3.17,-1.584 3.69,-1.585 3.43,-1.056 0,0 4.21,-1.0567 4.22,-0.7923 4.22,-0.5281 4.48,-0.5282 4.22,-0.2641 4.48,0.2641 4.48,0.2641 4.22,0.2641 4.22,0.7922 4.22,1.0569 3.95,1.056 3.96,1.32 3.69,1.849 3.43,1.849 3.16,2.112 3.16,2.377 0,0 3.7,3.433 3.16,3.698 2.64,3.961 2.37,4.49 2.11,4.753 1.84,5.282 1.32,6.074 1.06,6.338 0,0 -8.97,1.321 -8.7,1.32 -17.93,2.641 0,0 -1.84,-6.074 -0.79,-2.641 -1.32,-2.641 -1.32,-2.377 -1.58,-2.112 -1.58,-2.113 -2.11,-1.585 0,0 -2.11,-1.584 -2.37,-1.057 -2.38,-0.792 -2.37,-0.528 -2.37,-0.264 -2.37,0.264 -2.11,0 -2.38,0.528 -2.11,0.792 -2.11,0.793 -2.1,1.056 -1.85,1.056 -1.85,1.321 -1.31,1.584 -1.32,1.321 -1.32,1.849 0,0 -1.58,2.905 -1.32,3.697 -1.05,3.961 -0.8,4.226 -0.79,4.489 -0.52,5.018 0,4.754 0,4.753 0.52,5.018 0.53,4.49 1.06,4.489 1.31,4.224 1.59,3.7 1.84,3.43 1.06,1.32 1.31,1.32 1.32,1.06 1.32,1.06 0,0 2.37,1.32 2.64,1.05 2.9,0.79 3.16,0.53 3.17,0 3.42,-0.26 3.43,-0.79 3.17,-1.32 0,0 2.37,-1.32 2.11,-1.85 1.58,-2.12 1.58,-2.37 1.06,-2.64 1.31,-2.91 1.85,-6.073 0,0 8.96,1.585 8.97,1.585 8.96,1.853 4.22,0.79 4.22,1.05 0,0 -0.79,5.81 -1.32,5.29 -1.85,5.28 -2.11,4.75 -2.63,4.23 -2.9,4.22 -3.43,3.44 -3.69,3.43 -4.22,2.9 -4.48,2.64 -4.75,2.12 -5.27,1.58 -5.54,1.32 -5.8,0.79 -6.32,0.53 -6.33,-0.26 0,0 z m -185.61,-4.23 0,0 0,-58.097 0,0 -0.26,-14.789 0,-7.395 0,-7.13 0,-7.131 0.79,-6.866 1.05,-6.338 0.53,-2.905 1.06,-2.905 0,0 0.79,-2.377 1.05,-2.377 1.32,-2.377 1.32,-2.112 1.58,-2.113 1.84,-2.113 1.85,-1.849 1.85,-1.848 2.1,-1.849 2.11,-1.32 2.38,-1.585 2.37,-1.056 2.37,-1.0566 2.64,-0.7923 2.64,-0.7922 2.63,-0.2641 0,0 4.22,-0.2641 3.95,0 3.96,0.5282 3.69,0.7922 3.43,0.7923 3.69,1.3206 3.16,1.584 3.17,1.585 2.9,1.849 2.9,1.848 2.63,2.113 2.38,2.377 2.11,2.377 2.1,2.376 1.85,2.377 1.58,2.377 0,0 0,-21.127 0,0 35.86,0 0,0 0.26,34.332 0.27,34.331 -0.27,34.599 -0.26,34.33 0,0 -38.49,0 0,0 0,-46.74 0,0 0.26,-14.002 0,-6.866 0,-7.131 -0.26,-6.338 -0.8,-6.074 -0.52,-2.641 -0.53,-2.377 -1.05,-2.376 -0.8,-1.849 0,0 -1.58,-2.113 -1.84,-1.848 -1.85,-1.585 -2.37,-1.32 -2.11,-0.793 -2.64,-0.528 -2.37,-0.528 -2.64,0 -2.37,0.264 -2.64,0.528 -2.37,0.793 -2.11,1.32 -2.11,1.32 -1.84,1.585 -1.58,1.849 -1.32,2.376 0,0 -0.79,2.113 -0.79,2.113 -0.53,2.641 -0.53,2.641 -0.53,5.282 0,6.074 0,6.074 0.27,6.338 0.26,12.676 0,0 0,49.122 0,0 -38.49,0 0,0 -0.26,-0.26 -0.27,-0.27 0,-0.53 0,0 z m -135.78,0.53 0,0 0,-8.98 0,-9.24 0,-9.24 0.27,-8.72 0,0 2.11,5.55 2.63,5.54 2.9,5.02 3.17,4.75 3.42,4.49 3.96,3.96 4.22,3.7 4.74,3.17 0,0 -27.42,0 0,0 z m 389.94,-0.79 0,0 0,-34.33 0,-34.071 0,-34.068 0.26,-33.803 0,0 9.23,0 9.49,0 9.23,0 8.96,0.528 0,0 0,14.525 0,14.789 0,14.789 0.53,14.525 0,0 34.27,0 0,0 0,-59.156 0,0 36.65,0 0,0 0.26,34.068 0,34.331 0,34.333 0,34.33 0,0 -36.91,0 0,0 0,-50.176 0,0 -8.96,0 -8.7,-0.264 -8.97,0.264 -8.43,0.264 0,0 0,49.912 0,0 -36.65,0 0,0 -0.26,0 0,-0.26 0,-0.53 0,0 z m -56.42,-36.18 0,0 -2.64,1.32 -2.9,0.53 -3.16,0.26 -3.17,-0.26 -2.9,-0.53 -2.63,-1.06 -2.38,-1.05 -1.84,-1.59 0,0 -0.79,-1.05 -1.06,-1.06 -1.58,-2.91 -1.05,-3.43 -1.06,-3.697 -0.79,-4.225 -0.53,-4.49 0,-4.753 0,-4.49 0.27,-4.754 0.52,-4.489 0.79,-4.49 1.06,-3.961 1.05,-3.697 1.59,-3.169 1.58,-2.641 1.84,-1.849 0,0 1.85,-1.584 2.37,-1.057 2.37,-0.792 2.64,-0.264 2.9,0 2.9,0.264 2.64,0.792 2.63,1.057 0,0 2.11,1.848 1.85,2.113 1.58,2.377 1.32,2.905 0.79,2.905 1.05,3.169 1.85,6.866 0,0 10.02,-1.32 10.02,-1.585 20.03,-3.169 0,0 0,34.068 0,0 -20.82,-3.961 -20.83,-3.698 0,0 -1.32,6.338 -0.79,3.17 -0.79,2.903 -1.32,2.38 -1.32,2.38 -1.84,1.84 -2.11,1.59 0,0 z" id="path4487" style="fill:#70277a;fill-opacity:1;fill-rule:evenodd;stroke:none"/>
                  <path d="m 333.78,118.58 0,0 1.84,0.26 1.85,0 3.95,-0.26 3.43,-1.06 3.43,-1.58 3.16,-1.85 2.64,-2.12 2.11,-2.64 1.84,-3.17 0,0 1.06,-2.64 1.05,-3.17 0.79,-3.428 0.79,-3.698 0.27,-3.961 0.26,-3.962 0.26,-3.961 0,-4.225 -0.26,-3.962 -0.26,-4.225 -0.79,-3.697 -0.53,-3.698 -1.06,-3.433 -1.05,-3.169 -1.06,-2.905 -1.58,-2.377 0,0 -1.84,-2.377 -2.38,-2.376 -2.9,-2.113 -3.16,-1.585 -3.43,-1.056 -1.84,-0.528 -1.85,-0.264 -1.84,0 -2.11,0.264 -1.85,0.264 -2.11,0.264 0,0 -2.37,1.056 -2.37,1.057 -2.11,1.584 -1.85,1.585 -1.58,2.112 -1.58,2.113 -1.32,2.377 -1.32,2.641 -1.05,2.641 -0.79,2.905 -0.79,2.905 -0.53,3.169 -0.79,6.602 0,7.131 0,0 0.26,8.187 0.53,3.961 0.53,3.697 0.79,3.433 0.79,3.172 1.32,2.9 1.31,2.64 0,0 1.06,1.59 1.58,1.85 1.58,1.58 1.85,1.59 2.11,1.32 2.37,1.32 2.64,0.79 2.9,0.53 0,0 z m -11.87,-14 0,0 -1.05,-2.11 -0.79,-2.643 -1.06,-2.905 -0.52,-3.17 -0.53,-3.433 -0.27,-3.697 -0.52,-7.395 0.52,-7.394 0.27,-3.433 0.53,-3.434 0.79,-3.169 0.79,-3.169 1.05,-2.641 1.32,-2.376 0,0 1.05,-1.849 1.32,-1.321 1.58,-1.584 1.85,-1.056 1.85,-1.057 1.84,-0.528 2.11,-0.528 2.11,-0.264 1.85,0 2.1,0 2.11,0.528 2.11,0.528 1.85,1.056 1.58,1.321 1.85,1.32 1.31,1.849 0,0 1.32,2.113 1.32,2.641 1.05,2.905 0.8,3.169 0.52,3.433 0.53,3.697 0.26,3.962 0.27,3.961 -0.27,7.659 -0.26,3.697 -0.26,3.697 -0.79,3.169 -0.53,3.169 -0.79,2.642 -1.06,2.38 0,0 -1.32,2.11 -1.58,1.85 -2.11,1.58 -2.37,1.32 -2.64,1.32 -2.63,0.53 -2.9,0.53 -2.9,-0.26 0,0 -2.11,-0.53 -2.11,-0.8 -1.85,-0.79 -1.58,-1.05 -1.58,-1.32 -1.32,-1.32 -1.05,-1.33 -1.06,-1.58 0,0 z" id="path4489" style="fill:#70277a;fill-opacity:1;fill-rule:evenodd;stroke:none"/>
                  <path d="m 105.46,113.03 -11.338,17.96 -5.537,8.71 -6.064,8.72 -29.264,0 -0.264,-34.07 0,-34.594 0,-34.332 0,-34.596 36.383,0 0,66.815 18.454,-28.786 18.98,-29.578 2.9,-5.018 1.59,-2.113 0.52,-0.792 0.79,-0.528 1.59,-0.264 1.84,-0.264 4.22,0 3.95,0.528 3.7,0 15.55,0 0,137.592 -35.59,0 0,-70.777 -11.34,17.694 -11.07,17.693 z" id="path4491" style="fill:#ffffff;fill-opacity:1;fill-rule:nonzero;stroke:none"/>
                  <path d="m 312.68,162.68 1.32,9.77 1.32,9.51 1.06,8.98 -141.05,0 -0.53,0 -0.27,-0.27 0.27,-0.79 2.37,-18.22 2.37,-17.96 11.34,0 11.6,0 11.34,0 11.07,-0.26 0,-35.66 0,-35.912 0,-35.652 0.26,-35.388 10.55,0 10.55,0 10.28,0 10.28,0.528 0,142.344 44.29,0 1.58,8.98 z" id="path4493" style="fill:#ffffff;fill-opacity:1;fill-rule:nonzero;stroke:none"/>
                  <path d="m 47.72,167.7 0,4.75 0,18.22 -10.282,0.27 -10.282,0 -10.546,0 -10.5461,0 -0.5273,-0.27 -0.2637,-0.79 0,-35.65 2.1092,-2.11 2.1092,-2.38 2.3727,-2.11 2.9,-1.85 3.164,-1.59 3.691,-1.05 1.846,-0.27 1.845,-0.26 2.109,0 2.373,0 2.9,0.53 2.9,0.79 2.637,1.06 2.9,1.32 2.373,1.85 1.845,1.84 1.582,2.12 0.527,1.05 0.264,1.06 0.264,2.11 0.263,2.11 -0.263,4.49 -0.264,4.76 z" id="path4495" style="fill:#ffffff;fill-opacity:1;fill-rule:nonzero;stroke:none"/>
                  <path d="m 46.402,143.93 -0.791,-0.53 -1.055,-1.05 -0.791,-0.8 -2.372,-1.05 -2.373,-1.06 -2.373,-0.79 -2.637,-0.79 -2.372,-0.27 -2.637,-0.26 -2.636,0 -2.637,0 -2.636,0.53 -2.637,0.52 -2.373,0.8 -2.372,0.79 -2.373,1.05 -2.1094,1.33 -2.1091,1.32 -1.8456,1.58 0,-133.894 10.5461,-0.528 10.809,0 10.81,0 10.282,0.528 0,132.574 -0.527,0.26 -0.791,-0.26 z" id="path4497" style="fill:#ffffff;fill-opacity:1;fill-rule:nonzero;stroke:none"/>
                  <path d="m 716.33,97.45 -8.97,0.264 -8.43,0.264 0,49.912 -36.65,0 -0.26,0 0,-0.26 0,-0.53 0,-34.33 0,-34.071 0,-34.068 0.26,-33.803 9.23,0 9.49,0 9.23,0 8.96,0.528 0,14.525 0,14.789 0,14.789 0.53,14.525 34.27,0 0,-59.156 36.65,0 0.26,34.068 0,34.331 0,34.333 0,34.33 -36.91,0 0,-50.176 -8.96,0 -8.7,-0.264 z" id="path4499" style="fill:#ffffff;fill-opacity:1;fill-rule:nonzero;stroke:none"/>
                  <path d="m 638.55,61.269 -17.93,2.641 -1.84,-6.074 -0.79,-2.641 -1.32,-2.641 -1.32,-2.377 -1.58,-2.112 -1.58,-2.113 -2.11,-1.585 -2.11,-1.584 -2.37,-1.057 -2.38,-0.792 -2.37,-0.528 -2.37,-0.264 -2.37,0.264 -2.11,0 -2.38,0.528 -2.11,0.792 -2.11,0.793 -2.1,1.056 -1.85,1.056 -1.85,1.321 -1.31,1.584 -1.32,1.321 -1.32,1.849 -1.58,2.905 -1.32,3.697 -1.05,3.961 -0.8,4.226 -0.79,4.489 -0.52,5.018 0,4.754 0,4.753 0.52,5.018 0.53,4.49 1.06,4.489 1.31,4.224 1.59,3.7 1.84,3.43 1.06,1.32 1.31,1.32 1.32,1.06 1.32,1.06 2.37,1.32 2.64,1.05 2.9,0.79 3.16,0.53 3.17,0 3.42,-0.26 3.43,-0.79 3.17,-1.32 2.37,-1.32 2.11,-1.85 1.58,-2.12 1.58,-2.37 1.06,-2.64 1.31,-2.91 1.85,-6.073 8.96,1.585 8.97,1.585 8.96,1.853 4.22,0.79 4.22,1.05 -0.79,5.81 -1.32,5.29 -1.85,5.28 -2.11,4.75 -2.63,4.23 -2.9,4.22 -3.43,3.44 -3.69,3.43 -4.22,2.9 -4.48,2.64 -4.75,2.12 -5.27,1.58 -5.54,1.32 -5.8,0.79 -6.32,0.53 -6.33,-0.26 -4.75,-0.27 -4.74,-0.52 -4.22,-0.8 -4.22,-1.05 -3.69,-1.32 -3.69,-1.32 -3.43,-1.59 -3.43,-1.85 -3.16,-2.11 -2.9,-2.38 -2.64,-2.37 -2.37,-2.64 -2.37,-2.64 -2.11,-2.91 -2.11,-3.17 -1.85,-3.43 -1.58,-3.44 -1.58,-3.43 -1.32,-3.96 -1.32,-3.96 -1.05,-3.96 -1.06,-4.228 -0.52,-4.225 -0.53,-4.226 -0.53,-4.49 0,-4.489 0,-4.754 0.27,-4.489 0.26,-4.49 0.79,-4.753 0.79,-4.49 1.06,-4.49 1.05,-3.697 1.32,-3.697 1.32,-3.433 1.84,-3.433 1.58,-3.434 2.11,-3.169 2.11,-3.169 2.38,-2.905 2.63,-2.641 2.64,-2.641 2.9,-2.376 2.9,-2.113 3.16,-1.849 3.17,-1.584 3.69,-1.585 3.43,-1.056 4.21,-1.0567 4.22,-0.7923 4.22,-0.5281 4.48,-0.5282 4.22,-0.2641 4.48,0.2641 4.48,0.2641 4.22,0.2641 4.22,0.7922 4.22,1.0569 3.95,1.056 3.96,1.32 3.69,1.849 3.43,1.849 3.16,2.112 3.16,2.377 3.7,3.433 3.16,3.698 2.64,3.961 2.37,4.49 2.11,4.753 1.84,5.282 1.32,6.074 1.06,6.338 -8.97,1.321 -8.7,1.32 z" id="path4501" style="fill:#ffffff;fill-opacity:1;fill-rule:nonzero;stroke:none"/>
                  <path d="m 399.95,94.281 -0.79,5.809 -1.32,5.55 -1.58,5.28 -1.58,4.75 -2.11,4.49 -2.37,4.49 -2.64,3.96 -2.9,3.96 -3.16,3.7 -3.69,3.17 -3.7,2.91 -4.21,2.64 -4.75,2.37 -4.75,1.85 -5.27,1.59 -5.53,1.05 -5.8,0.79 -6.33,0.27 -6.33,-0.27 -3.43,-0.26 -3.42,-0.53 -3.43,-0.53 -2.9,-1.05 -1.06,-0.53 -0.52,-0.53 -1.32,-1.32 -2.11,0.27 -1.32,-0.27 -1.85,-0.53 -3.16,-1.32 -3.16,-1.58 -2.9,-1.85 -2.64,-2.11 -2.64,-2.38 -2.37,-2.64 -4.48,-5.28 -2.11,-2.91 -2.11,-2.9 -1.84,-3.17 -1.59,-3.17 -1.31,-3.43 -1.32,-3.44 -1.06,-3.43 -1.05,-3.43 -0.79,-3.97 -0.79,-4.221 -0.53,-4.225 -0.53,-4.49 0,-4.225 -0.26,-4.49 0.26,-4.489 0.27,-4.226 0.26,-4.225 0.79,-4.49 0.53,-3.961 1.05,-4.226 1.06,-3.961 1.05,-3.697 1.32,-3.433 1.32,-3.434 1.58,-3.169 1.84,-3.169 1.85,-3.169 2.11,-2.641 2.37,-2.905 2.38,-2.377 2.63,-2.376 2.64,-2.113 2.9,-2.113 3.16,-1.849 3.17,-1.584 3.42,-1.5847 3.69,-1.0563 3.7,-1.0564 3.95,-0.7923 4.22,-0.7923 4.48,-0.2641 4.48,-0.264 4.22,0 4.22,0.5281 3.95,0.5282 3.96,0.5282 3.95,1.0564 3.69,1.3204 3.7,1.3208 3.42,1.584 3.17,1.585 3.16,2.113 3.16,2.112 2.9,2.113 2.64,2.641 2.64,2.641 2.9,3.697 2.63,3.961 2.64,4.754 2.11,4.754 1.84,5.282 1.32,5.281 1.32,5.81 0.79,5.81 0.79,5.81 0.27,6.074 0,5.81 -0.53,6.075 -0.53,5.81 z m -37.44,-17.166 -0.26,-3.962 -0.26,-4.225 -0.79,-3.697 -0.53,-3.698 -1.06,-3.433 -1.05,-3.169 -1.06,-2.905 -1.58,-2.377 -1.84,-2.377 -2.38,-2.376 -2.9,-2.113 -3.16,-1.585 -3.43,-1.056 -1.84,-0.528 -1.85,-0.264 -1.84,0 -2.11,0.264 -1.85,0.264 -2.11,0.264 -2.37,1.056 -2.37,1.057 -2.11,1.584 -1.85,1.585 -1.58,2.112 -1.58,2.113 -1.32,2.377 -1.32,2.641 -1.05,2.641 -0.79,2.905 -0.79,2.905 -0.53,3.169 -0.79,6.602 0,7.131 0.26,8.187 0.53,3.961 0.53,3.697 0.79,3.433 0.79,3.172 1.32,2.9 1.31,2.64 1.06,1.59 1.58,1.85 1.58,1.58 1.85,1.59 2.11,1.32 2.37,1.32 2.64,0.79 2.9,0.53 1.84,0.26 1.85,0 3.95,-0.26 3.43,-1.06 3.43,-1.58 3.16,-1.85 2.64,-2.12 2.11,-2.64 1.84,-3.17 1.06,-2.64 1.05,-3.17 0.79,-3.428 0.79,-3.698 0.27,-3.961 0.26,-3.962 0.26,-3.961 0,-4.225 z" id="path4503" style="fill:#ffffff;fill-opacity:1;fill-rule:nonzero;stroke:none"/>
                  <path d="m 525.45,148.42 -38.49,0 0,-46.74 0.26,-14.002 0,-6.866 0,-7.131 -0.26,-6.338 -0.8,-6.074 -0.52,-2.641 -0.53,-2.377 -1.05,-2.376 -0.8,-1.849 -1.58,-2.113 -1.84,-1.848 -1.85,-1.585 -2.37,-1.32 -2.11,-0.793 -2.64,-0.528 -2.37,-0.528 -2.64,0 -2.37,0.264 -2.64,0.528 -2.37,0.793 -2.11,1.32 -2.11,1.32 -1.84,1.585 -1.58,1.849 -1.32,2.376 -0.79,2.113 -0.79,2.113 -0.53,2.641 -0.53,2.641 -0.53,5.282 0,6.074 0,6.074 0.27,6.338 0.26,12.676 0,49.122 -38.49,0 -0.26,-0.26 -0.27,-0.27 0,-0.53 0,-58.097 -0.26,-14.789 0,-7.395 0,-7.13 0,-7.131 0.79,-6.866 1.05,-6.338 0.53,-2.905 1.06,-2.905 0.79,-2.377 1.05,-2.377 1.32,-2.377 1.32,-2.112 1.58,-2.113 1.84,-2.113 1.85,-1.849 1.85,-1.848 2.1,-1.849 2.11,-1.32 2.38,-1.585 2.37,-1.056 2.37,-1.0566 2.64,-0.7923 2.64,-0.7922 2.63,-0.2641 4.22,-0.2641 3.95,0 3.96,0.5282 3.69,0.7922 3.43,0.7923 3.69,1.3206 3.16,1.584 3.17,1.585 2.9,1.849 2.9,1.848 2.63,2.113 2.38,2.377 2.11,2.377 2.1,2.376 1.85,2.377 1.58,2.377 0,-21.127 35.86,0 0.26,34.332 0.27,34.331 -0.27,34.599 -0.26,34.33 z" id="path4505" style="fill:#ffffff;fill-opacity:1;fill-rule:nonzero;stroke:none"/>
                </g>
              </g>
            </g>
          </g>
        </g>
      </g>
    </g>
  </g>
</svg>