<?xml version="1.0" encoding="UTF-8"?>
<svg xmlns:xlink="http://www.w3.org/1999/xlink"  id="_レイヤー_2" data-name="レイヤー 2" xmlns="http://www.w3.org/2000/svg" viewBox="0 0 297.81 105">
  <defs>
    <style>
      .cls-1 {
        fill: #64646e;
      }
    </style>
  </defs>
  <g id="_レイヤー_2-2" data-name="レイヤー 2">
    <g id="logo">
      <path class="cls-1" d="M295.31,79.04c-.33,1.25-1.25,3.08-2.5,5.66-1.33,2.58-2.58,4.49-3.83,5.74-.42.5-1.16.83-2.25,1.08-1.08.25-2.08.5-3.08.58s-2.16.17-3.58.17h-3.41c-2.16,0-3.83,0-5.08-.25-1.16-.17-2.08-.5-2.83-1-.67-.5-1.16-1.25-1.41-2.16-.25-1-.33-2.33-.33-3.99v-16.72h6.32c1.66,0,3.08.17,4.08.5s2,1,2.75,2c.5.67,1,1.66,1.41,3.08.5,1.41.75,2.75.83,3.99h2.91v-21.88h-2.91c-.17,1.16-.42,2.33-.83,3.58s-.92,2.33-1.5,3.08c-.75.92-1.5,1.5-2.5,1.91-.92.42-2.41.58-4.41.58h-6.32v-22.21h12.56c1.16,0,2.08.17,2.91.25,1.58.25,3.24,1.41,4.99,3.66,1.75,2.25,2.91,4.33,3.41,6.32h2.91v-13.48h-42.27v2.91c.58,0,1.16.17,1.91.33,1.16.25,2.16.58,2.83.92.92.42,1.5,1,1.83,1.66.25.67.42,1.41.42,2.33v40.1c0,1-.17,1.75-.5,2.41s-.92,1.16-1.75,1.5c-.42.17-1.25.33-2.58.5-.83.08-1.5.17-2.16.25v2.91h45.34l1.08-16.47h-2.83l.33.17Z"/>
      <path class="cls-1" d="M245.72,92.27c-1.25-.25-2.08-.5-2.5-.75-.92-.5-1.5-1-1.83-1.66-.33-.67-.5-1.41-.5-2.33v-40.27c0-.83.17-1.66.5-2.41s.92-1.25,1.83-1.58c.5-.17,1.33-.42,2.5-.58.83-.17,1.58-.25,2.25-.33v-2.83h-17.64c0,.5-.25,1.41-.58,2.83-.33,1.41-.75,2.75-1.25,3.99l-13.64,35.03-15.97-41.93h-19.05v2.83c1.16,0,2.33.25,3.49.58,1.16.33,2.16.83,3,1.58.75.67,1.33,1.5,1.66,2.58.42,1.08.58,2.41.58,4.08v28.54c0,3.58-.17,6.07-.5,7.65-.33,1.5-1,2.66-1.91,3.41-.75.58-1.75,1-3,1.33-1.08.25-2.16.42-3.16.5-.5,0-1.08-.17-1.66-.25-1-.17-1.91-.42-2.58-.75-.92-.5-1.83-1.08-2.75-1.83-.92-.75-2-1.91-3.16-3.49-2.66-3.58-4.91-6.57-6.74-9.07-1.83-2.5-4.08-5.57-6.91-9.24,2-.58,3.83-1.25,5.49-2.08s3.08-1.83,4.24-2.91c1.25-1.16,2.25-2.66,2.91-4.33.67-1.66,1-3.58,1-5.74s-.5-4.41-1.5-6.16c-1-1.66-2.25-3.08-3.91-4.08-1.66-1.08-3.58-1.83-5.66-2.33-2.08-.5-4.33-.75-6.66-.75h-25.79v2.83c.75,0,1.66.17,2.66.33,1.08.17,1.91.42,2.58.67,1,.33,1.58.92,1.83,1.58s.42,1.5.42,2.41v40.35c0,1-.17,1.83-.5,2.5-.33.67-.92,1.16-1.75,1.5-.5.25-1.33.42-2.5.5-.83.08-1.58.17-2.16.25-.5,0-1.16-.17-1.83-.33-1-.25-1.75-.58-2.33-.92-.92-.58-1.58-1.25-2.08-1.83-.5-.67-.92-1.5-1.33-2.5l-18.64-48.17h-3.16c-2.66,6.82-5.66,14.56-9.07,23.3-3.41,8.74-6.49,16.64-9.32,23.63-.58,1.33-1.08,2.41-1.66,3.24-.58.75-1.41,1.5-2.41,2.25-.67.42-1.5.75-2.5,1-1,.25-1.91.42-2.58.42v2.83h21.05v-2.83c-2.08-.08-3.91-.42-5.57-1s-2.5-1.41-2.5-2.41,0-1,.17-1.75.33-1.66.75-2.75c.33-1.16.75-2.41,1.25-3.74.5-1.33,1.08-3,1.83-4.83h19.64l4.66,12.48c.08.25.17.58.25.92v.83c0,.58-.67,1.08-2,1.41-1.33.42-3.08.67-5.08.75v2.83h45.59v-2.83c-.83,0-1.83-.08-3-.25-1.16-.17-2-.33-2.5-.5-.92-.33-1.58-.92-1.83-1.58s-.42-1.5-.42-2.41v-17.72h5.74c3.16,4.08,6.07,7.99,8.74,11.73,2.66,3.83,5.66,8.32,8.99,13.56h36.19v-2.83c-.58,0-1.75-.25-3.58-.75-1.83-.5-3-1-3.58-1.58-.83-.75-1.5-1.91-1.83-3.66-.42-1.66-.58-4.16-.58-7.32v-33.36h.5l18.14,48.59h2l19.05-47.59h.58v40.6c0,1-.17,1.75-.58,2.41s-1,1.25-1.83,1.75c-.5.25-1.5.5-2.91.67-1.41.17-2.58.25-3.41.25v2.83h24.13v-2.83c-.67,0-1.41-.17-2.33-.33v.17ZM88.47,72.63l8.32-21.63,8.49,21.63h-16.81ZM147.46,66.81h-5.16v-23.96h6.66c3.58,0,6.24,1,8.24,3,1.91,2,2.91,4.66,2.91,8.07s-1.25,7.16-3.66,9.48-5.41,3.49-9.07,3.49l.08-.08Z"/>
      <g>
        <path class="cls-1" d="M6.52,20.47l-.75-1.16c-1.58-2.08-1.58-5.57-1.25-7.49,1.16,0,6.57,1.25,8.32,3.49l-1.41-1.83c-2.33-2.91-7.24-2.5-7.49-2.5h-.33l-.08.33c-.42,1.33-.25,3.16,0,4.58.42,2.08,1.91,3.66,2.91,4.58h.08Z"/>
        <path class="cls-1" d="M46.46,53.5c-.33,0-.42.08-.67.33-.33.25,0,.25-.42.33-.17,0-.42-.42-.42,0,0,.25,0,.58-.08.75-.42,0-.67-.25-.83.33,0,.17.17.42.17.5-.17.25-.33,0-.42.08-.42.5.67.83-.33,1.33.17.25.67.33.58.75-.17.08-.33.25-.33.5.42.33,1.08-.17.83.67.25,0,.42,0,.58-.25,0,.25-.17.83.17.92.33.08.5-.5.83-.5,0,.92.92-.17,1.25,0,0-.08.33-.25.33-.33.25.25.75.33,1,0,0,0-.25-.25,0-.5h.67c-.08-.25-.17-.42,0-.58.25.17.58,0,.5-.33-.25,0-.17-.25-.17-.42.33,0,1-.33.42-.67,0-.33,1.08-1.08,0-1.16,0-.58.5-.92-.58-.92.08-.17.17-.42.08-.58-.33,0-.5.33-.83.17.42-.83-.58-.25-.92-.33-.17-.17-.25-.42-.42-.58-.25,0-1,1.33-1,.42v.08Z"/>
      </g>
      <path class="cls-1" d="M73.75,77.71c-.25,0-.5,0-.58.33-.17.33-.33.67-.5,1.08-.25.5-.42,1-.75,1.5-.33.58-.75,1.16-1.16,1.75s-.92,1.16-1.33,1.75c-.33.33-.67.67-.92,1.08-.33.58-.83.92-1.33,1.41h0c-.17-1-.5-2-1.08-2.83-.5-.83-1.25-1.5-2-2.08,2.5-.33,4.91-1.75,4.99-1.83l3.16-1.66-1-.5c-.58-.33-1.08-.83-1.41-1.41-.5-.92-1.16-2.16-1.75-3.24-2.16-3.49-5.74-5.57-9.57-5.66-2,0-3.74.42-5.32,1.41s-2.5,2.16-2.75,3.49c-.33,1.75.58,3.49,1.41,4.58.33.5.75.83.92,1.08-.08.17-.25.33-.5.42-.25.08-.42.08-.67,0,.17-2.16-1.16-3.91-3.74-4.91h-.17l1.16-2h.5c.42,0,1.08,0,1.41-.5.5-.58,1.83-2.75,1.83-5.08s0-.17,0-.17c.75.25,1.66.33,2.5.33s1.66,0,1.83-.08c.25,0,1.75-.5,1.91-.5h.17v-.25c0-.08.42-1.16,0-3.49,0-.25-.17-.5-.33-.83,1.25-.17,2.08-.75,2.58-1.33.33-.42.42-1,.17-1.41,0-.08-.17-.33-.25-.58-.17-.33-.33-.75-.58-1.25,0,0,0-.08-.08-.17l1.75-2c1.25-1.41,2.58-2.66,4.24-3.66,3.74-2.25,6.41-1.91,7.16-1.75v-.08l-1.91-1.58c-.08,0-.17-.17-.33-.17-7.4-2-13.48,4.66-14.89,6.32h-.5c.58-.75,1.16-1.66,1.41-2.08.42-.83,0-6.07-.5-6.57-.17-.17-.42-.17-.58-.08-.17,0-.83.08-1.5.17-1.08,0-2.58.17-3.83.42-1.33.25-2.33,2.08-2.91,3.74-.17-1.08-1-1.83-1.83-2.66-.33-.25-.58-.58-.92-.92-1.08-1.16-5.32-2.5-5.66-2.5s-.5,0-1.58,5.74c-.17,1.08.17,2.16.83,3l.67.75c-.83-.33-1.83-.67-3-.58-.17-1.66-.92-9.9-1.25-12.15-.33-2.5,0-8.32.25-9.07.25-.83,0-5.32,0-5.82l1.08-2s1.91.42,1.66,1.91,1.58-1.08,1.16-1.83-.5-1.58-.5-1.58c0,0,1.33-1.08,1.83.75s.25,1.83.33,1.66c.08-.08,1.41-1.75,1.41-1.91,0-.08-.17-.75-.33-1.16h.58c.42,0,4.08-1.08,4.83-1.33.33-.08.67-.25,1-.42.5-.25.83-.75.92-1.25,0-.58-.17-1.08-.58-1.5-1-.92-1.66-1.41-2-1.66l.83-.42c1.66-1.16.67-4.91.17-6.74-.5-1.75-1.33-2.83-2.08-2.66-.33,0-1.25.92-2.58,2.5.08-.67.08-1.16.08-1.16-.67-3.41-1.66-4.41-3.41-5.66l-.25-.17-1.5,1.08c-1.33.58-1.91,2.41-2.08,4.33C35.06,1.91,31.9.17,31.9.17l-.25-.17-2.16,2.25c-.75.92-.92,2.08-.83,3.24-1.66-1.83-4.83-1.41-4.99-1.41h-.25v.33c-.67,2.83-.17,4.83.25,5.91h-.33l-1.41-1.58h-.25c0,.08-1.16.42-1.5,1.66,0,.17-.08.42-.17.58-.42,1.33-1.25,3.74.25,5.32,1.58,1.75,3.58,3.33,3.66,3.41l1.08.75c.58.42,1.25.75,2,.92h.25c-1.33.67-2.75,1.25-3.49,1.25-1.41,0-2.25,1.91-2.66,3.08-.08.25-.17.58-.17.83,0,.67.42,1.41,1,1.75l.42.25c.08,0,.17.08.33.17-.17,0-.33,0-.42.08h-1.66c-.42,0-.83.08-1.25.08-.75-1.41-2.33-4.24-3.08-4.99h0c0-.25.08-.58,0-.92v-.33c0-.17.17-.5.33-.75v-.08h0c.17-.25.33-.58.5-1,1.83-3.41-.25-8.32-.58-8.9-.25-.42-.58-2.58-.75-3.99,0,0-.17-.67-.67-.83-.5-.25-1.08-.08-1.83.33-1.75,1.08-2.5,5.66-2.5,5.74l.5-.17c.17-.75,1.25-4.16,2.5-4.91.42-.25.83-.42,1.08-.33l.25.25h0c0,.58.92,3.74,1.33,4.41s1.33,4.08.5,6.82c0-1.5,0-3.08-.58-3.49,0,0,.5,2.5.33,4.24,0,.17-.08.25-.17.42h0c0-1.16,0-3.83-1.16-5.41,0,0,1.16,3.91.67,5.08-.17.42-.75-5.08-1.25-5.08,0,0,.5,2.41.58,4.08-1.33-3.08-4.41-3.58-4.41-3.58,1.16.17,3,2.25,3.41,3,.17.25.25.5.33.75,0,0-.17,0-.17.17l.25,1c0,.08-.08.17-.17.08l-2.41-2.41c-.08-.08-.25,0-.17.17,1,1.25,2.33,3.08,2.58,3.33s-3.49-3.49-5.57-5.49c-.08-.08-.25,0-.17.17l4.49,5.66c.08.08,0,.25-.17.17l-4.33-3.66c-.08-.08-.25,0-.17.17l4.24,4.83v.08h-.17l-2.58-1.33c-.08,0-.25.08-.08.17l1.5,1.16c-3.33-.92-4.83-4.08-4.83-4.08.67,2.83,2.5,3.99,4.24,4.49h-2.25c-.08,0,0,0,.08,0,.92.08,2,.17,2.66.25h0c-.92,0-3.41,0-4.91-.08-.08,0,0,.08.08.08l5.24.5s-.17,0-.25.08h-3.16c-.08.08,0,.17.08.17l2.25.17c-.17,0-.25.08-.42.17-2.16,1-4.33-.08-5.49-.67h0c-1-.58-3.33.58-4.33,1,0-.5.58-2.08,1.58-3.83.5-.83,1.08-1.33,1.83-1.5,1.08-.25,1.83-.17,1.83-.08,0,0-.75-.5-2.25-.25-.92.17-1.5.08-2.08,1.16C-.3,24.21-.05,25.63.11,25.88l.17.33.33-.17c1.16-.5,3.24-1.08,3.99-.75h0c.83.5,2.33,1.25,4.08,1.25s1.41-.17,2.16-.5c.75-.33,1.33-.58,1.83-.83h.42c.08,0,.17.08.17.08l-1.41.33s0,.08.17.08h1.66c0-.08.17,0,.17,0l-.58.42s.83-.42,1.58-.75c.58.67,1.5,1.75,2.25,2.75.17.17.25.42.42.58h-2.16c-.25,0-.42-.08-.67,0-.5.08-1,0-1.5,0-.83.17-1.66.08-2.58.25-.17,0-.33.25-.42.42,0,.17,0,.42.25.5.42.08.83.17,1.33.17.75,0,1.5.25,2.16.58.25.17.5.33.75.42.17.08.42.17.5.33.33.42.67.83.92,1.33.25.42.42.83.42,1.41,0,.5.25.92.33,1.41,0,.75.17,1.41.25,2.16v1.5c0,.5.08,1.08.17,1.58v.17c-2.33-2.25-4.91-4.08-7.82-5.24-.33-.17-.75,0-.92.33s0,.75.25.92c.75.5,4.41,3.33,8.65,10.48h0c0,.42-.08.75-.08,1.16,0,.5,0,1,.08,1.58v.92c0,.5.17,1,.17,1.5v1.58c0,.5-.17,1-.17,1.5v2.83c-.25-.17-1.91-1.5-2.58-2.58,0-.42.08-.92.17-1.5.25-1.83,0-3.41-1-4.74-1.83-2.5-5.32-3.16-6.41-3.24-.17,0-.42,0-.5.17s-.17.33,0,.5c0,.08.08.33.17.58-.5,0-3.49-.33-3.99.75-.33.67,0,2.5.17,3.66-.33.08-.75.25-1.16.42l-.33.17v.33c.17.25,1.66,5.41,5.49,6.66.58.17,1.08.25,1.66.25,1.16,0,2.41-.33,3.66-1.08,0,0,.08,0,0,0l-.92,1s1-1,2-1.25c1,.25,2.5.92,3.49,2.75v2.83c0,.25-.08.5-.08.75v.42c-1.58-.42-3-.33-3.33-.25-.58-.17-1.66.17-1.91.33l-1.25.83c-.92.58-1.58,1.5-1.83,2.58-.75,2.75-1.75,8.24.08,13.65,0,.17.25.33.42.33s0,0,0,0h.42v-.5c0-1.16.5-4.66.92-6.66.08-.58.75-2.25,1.41-3.91.25-.67.58-1.33.83-2.08h.25c1.25.17,2.66.67,3.99,1.33v7.49c0,.5.08,1,.08,1.5,0,.67,0,1.33-.08,2,0,.33,0,.75-.08,1.08v1.08c-1.83.75-3.91,2.08-6.07,4.58l-.17.17v.33l.25.25c.08.08.33.08.42,0h0c.75-.67,2.91-2.25,5.24-2.75h0c0,.67-.17,1.33-.58,1.83-.25.42-.5.75-.83,1.16-.42.5-.83,1-1.41,1.41-.67.42-1.33.75-2.08.83-.67.08-1.25.33-1.91.33-.25,0-.42.25-.67.5-.17.17,0,.58.25.67.25,0,.5.08.75.17h1.25c.33,0,.67.08,1.08.08h5.32c.75,0,1.58-.17,2.33-.17h3.41c.83,0,1.66-.17,2.5-.17h1.41c.67,0,1.33.08,2,.08.58,0,1.25-.08,1.83-.08h.17v.42c-2.41-.25-5.24.58-6.91,3.08-1.83,2.66-3.08,3.58-3.58,3.91-.17.08-.25.17-.25.25-.17.17-.42.92-.17,1.25,0,.08.25.17.42.17h.25c.25-.08,3.33-1.75,4.99-2.66l-.42,2c0,.17,0,.42.25.5.17.08.42.08.58,0l3.83-2.66-.5,1.66c0,.17,0,.33.08.5.17.17.33.17.58.17.42-.08.92-.25,1.5-.5,0,.83-.08,2.41-.25,3.58h1.16c0-.75.17-2.83,0-3.91.58-.25,1.16-.5,1.66-.75l.92.33.17,4.33h.5l-.33-4.16.83.33c-.08,1-.25,2.75,0,3.83h1.16c-.17-.75-.25-2.66-.25-3.66h.08c.17-.08.33-.25.42-.42l.33-1.25,2.91,1.25c.17.08.42,0,.58-.08.17-.17.25-.33.17-.58l-.33-1.41v-.17h.17l4.83,2.33c.08,0,.25,0,.25-.17v-1.5c-.5-1.66-1.83-3.16-3.66-3.99l-3.99-1.83c-.33-.17-.67-.17-1-.08l-1.16.25v-.33h3.08c.33,0,.67-.08,1,0,.83.17,1.58,0,2.33,0,1,0,1.91-.17,2.91-.17h0c1.83,3.99,7.4,4.08,10.23,4.16h1.33c1.33.17,2.41,2,2.66,2.75l.33.83.58-.67c.08-.08,2-2.08,3.66-6.99.17,0,.25.17.25.25,0,.25.08.58.17.83,0,.5.17.92.58,1.25.33.33.75.25.83-.25v-.33c0-.17.08-.33.17-.5h0v-.42c0-.25.17-.5.25-.75.25-.75.5-1.5.75-2.16.25-.75.67-1.41.83-2.25h0c.08-.25.33-.58.42-.83.08-.33.17-.67.25-1,.33-.75.58-1.5.92-2.25.25-.67.58-1.25.83-1.91,0-.17.17-.42.25-.58.17-.33.25-.58.42-.92.08-.17.25-.42.33-.58.25-.58.42-1.16.67-1.75.08-.33.25-.58.33-.92,0-.25-.17-.58-.42-.67l.33.17ZM17.17,44.85c-1.91-3-3.74-5.16-5.08-6.57,1.83,1.08,3.49,2.5,4.99,4.16v.17c.08.5,0,1,0,1.58v.67h.08ZM4.27,48.67c.5-.25,1.83-.25,3,0,.08.92.17,2.16.17,3.08-1-.17-2.08-.17-3.33.08-.08-.75-.25-2-.25-2.58,0-.25.17-.5.33-.58h.08ZM10.85,55.74l.67.33v.17h-2.16c-.08.08,0,.25,0,.25,1.08.08,2.58.25,2.83.17.25,0-3.24.17-5.16.25-.08,0,0,.17,0,.17l4.83.33c.08,0,.08.17,0,.17l-3.66.5c-.08,0,0,.17,0,.17h3.91c-1.66.92-3.16,1.16-4.49.75-2.83-.92-4.33-4.58-4.74-5.74.17,0,.33-.08.5-.17h.08c4.49-1.33,7.32.83,8.82,2.66h-1.5c-.08,0-.08.17,0,.17l.08-.17ZM14.09,53.08s-.08-.08-.08,0v1.66h-.08l-1.25-3.16s-.17-.08-.08,0l.67,2.66h-.08l-1.5-3.58s-.17-.08-.08,0c.42,1.41,1.25,3.99,1.25,3.74,0-.17-.58-1.25-.92-2.08,0,0-.17,0-.08,0l.5,1.58h-.08l-.42-.5h-.08l.17.33c-.92-.83-2.08-1.5-3.49-1.91,0-.92-.08-3.41-.42-4.66,1.33.25,3.91.92,5.32,2.83.75.92,1,2.08.92,3.41v-.42l-.17.08ZM11.6,71.47c-.75,1.83-1.41,3.41-1.5,4.08-.25,1.33-.58,3.24-.75,4.83-1.08-4.58-.25-8.99.42-11.32.25-.83.67-1.5,1.33-2-.75,2.33-1.66,9.24-1.66,9.24.25-2.16,3.16-10.15,3.16-10.15h0c.25-.08.75-.17,1.08-.25-.33,1.33-1.25,3.58-2.08,5.49v.08ZM17.42,67.48c-.83-.17-1.75-.25-2.75-.17.58,0,1.5,0,2.75.5h0v2.33c-1.16-.58-2.41-1-3.66-1.16h-.25c.42-1.16.83-2.25,1-3,.58,0,1.66,0,2.91.33h0v1.16h0ZM17.17,86.03c-1,.17-1.91.5-2.75.92,1-.75,1.91-1.33,2.83-1.75v.83h-.08ZM50.12,70.39c-.17.17-.58.33-.92.17l-.83-.5c-.08,0-.25-.17-.42-.17l-.5-.17c-.33-.08-.67-.33-.92-.58-.33-.42-.75-1.16-1.5-2.41-1.25-2.33-.83-4.08-.67-4.74.33,0,.5-.33.67-.5h0c0,.08.17.25.25.33.17.08.33.08.5,0,.08.5.25,1.33.67,1.83h.17l.17-.17v-.17c-.33-.5-.33-1.33-.33-1.83h0c.17,0,.42-.25.5-.25h.33c.08,0,.17-.08.25-.17h.08s.08,0,.17-.08h.17c.33.33,1,1.08,1.16,2.5,0,0,0,.08.17.08h.25s.08-.08.08-.17c-.17-1.16-.5-1.91-.83-2.33.17,0,.33-.08.5-.25,1,.58,2.08,2.75,2.08,4.91s-1.16,4.08-1.58,4.58l.33.08ZM40.8,60.07c.25-.08.5-.25.75-.33h0c.17.08.33.17.42.25-.5.5-1.16,1.41-1.58,2.33v.17h.25c0,.08.08.08.17,0,.5-1,1.5-2,1.91-2.41h0v.67c0,.08.17.17.25.17h.17l-1.16,1.66v.17l.17.17h.17l1.25-1.58c0,.17,0,.33.17.42-.17.58-.5,1.91,0,3.58-1.33,2.66-6.32,3.91-7.74,4.24h0l-.25-2.33c.25-3.66,3.33-5.99,5.08-7.07v-.08ZM36.22,63.15v-2.58c.75.17,1.5.25,2.25.08-.83.67-1.58,1.5-2.25,2.5ZM36.81,93.52c0,.17-.08.42-.08.58l-.92.42-.17-.92h1.16v-.08ZM36.22,70.39c1.5-.33,5.99-1.41,7.82-3.99.08.25.25.5.33.75.25.42.42.83.67,1.16l-4.58,7.24c-1.41,1.25-2.66,2.75-3.74,4.33-.42.67-.75,1.33-1,2l.42-11.4.08-.08ZM45.79,69.39c.17.25.33.42.42.58l-1.75,3.33c-.67.17-1.25.42-1.83.75h-.17l3.24-4.58.08-.08ZM58.36,64.56c-.58.17-1.41.42-1.58.42-.42,0-3.41.25-4.24-.33-.33-2.08-1.33-3.99-2.58-4.58h.83c.5.17,1.33.58,1.75,1h.17l.17-.17v-.17c-.5-.5-1.41-1-1.91-1.25v-.25c.25,0,.5,0,.67-.17h0l1.16.5h.17v-.25c.17,0,.08-.17,0-.17l-1.16-.58v-.42h0c2.58.75,6.24,2.33,6.49,3.66.25,1.58.17,2.5,0,2.91l.08-.17ZM58.85,52.42s3.99-5.16,10.65-5.16c-1.5,0-5.57.75-10.48,5.82l-.67.67c-.17-.08-.33-.17-.5-.25l1-1.16v.08ZM56.19,54h.33c.75.08,2.33.33,3.41,2.5.25.5.42.92.58,1.25.08.25.17.5.25.58v.5c-.42.5-1.16,1.08-2.66,1.08-1.58-1.33-4.16-2.25-5.66-2.66v-.08h1.16c.08,0,.17,0,.17-.17h0c0-.25,0-.33-.17-.33l-1.16-.17c0-.08-.08-.17-.17-.25,0,0,0-.08.08-.17l1.33-.42s.17-.08.08-.17v-.17c0-.08-.17-.17-.25-.17l-.83.17c0-.17.08-.33,0-.5.67-.25,1.33-.42,1.91-.58h0c.67-.17,1.08-.33,1.25-.33l.33.08ZM51.2,45.76c1.25-.25,2.66-.33,3.74-.42.75,0,1.16,0,1.5-.08.33,1.08.58,4.91.33,5.41-.42.75-1.5,2.33-2.16,2.83-.75.25-1.58.5-2.33.75v-.25c0-.25.17-.58,0-.83,0,0-.08,0-.08-.08l.75-.83v-.33h-.33l-1.08.92v-.42c0-.17-.17-.33-.33-.42h0c.25-.67.92-2.08,1.5-2.66v-.17l-.17-.17h-.17c-.75.67-1.66,2.41-2.08,3.08,0-.08,0-.17-.08-.25,0,0-.17-.08-.25-.17l.5-1.41c0-.08,0-.25-.08-.25h-.33l-.92,1.58h-.5s0-.17-.08-.25c0,0-.08-.17-.17-.25.33-1.75,1.41-5.24,2.91-5.49l-.08.17ZM47.62,51.83v.08c.08.17.17.33.33.5,0,.08.17.17.25.17.25,0,.5,0,.75-.08.08,0,.25,0,.33-.08v.42c0,.08.08.17.25.25.42.17.83,0,1.08-.17,0,0,0,.17-.08.25v.42c0,.08.25.25.33.17h.58v.08c0,.25-.17.5-.08.92,0,.25.17.42.42.42h.33c0,.08-.17.33-.25.42-.25.33-.42.58-.42.92,0,.17.08.33.25.33h0c-.17,0-.33.17-.5.17s-.33.25-.33.42v.17c0,.17,0,.58.25.75h-.67c-.25.25-.33.5-.25.75h-.75c-.25.17-.5.42-.25.92h-.25c-.17,0-.42-.08-.58-.25-.08-.17-.33-.17-.5-.08-.17,0-.25.17-.25.33,0,0-.08,0-.17.08h-.08c-.33,0-.67.17-1,.33-.08,0-.33.17-.42.17v-.17c0-.17-.17-.42-.33-.42-.5,0-.83.33-1,.58l-.17.25v-1.16c0-.17-.17-.25-.25-.25h-.08c-.08,0-.17,0-.25.08,0,0-.17.08-.17.17,0-.17,0-.33-.17-.42-.25-.25-.5-.33-.83-.33h-.33l.17-.17c.08,0,.17-.17.25-.33.08-.58-.33-1-.58-1.16.17-.17.33-.33.33-.5.17-.33,0-.67-.17-.92,0-.17-.08-.25-.08-.33.42,0,.67-.17.75-.42s0-.58-.08-.83v-.42h.33c.17,0,.25,0,.42.08.17,0,.33,0,.42-.25,0-.17.08-.42.17-.75v-.17c.17,0,.25.08.42,0,.42-.08.58-.17.67-.42l.17-.17s.17-.17.25-.17l.17-.17c0,.17.17.42.42.5.5.17.83-.25,1.33-.75l.17-.17-.25.42ZM39.55,50.84c-.58-.58-.83-1.5-.67-2.25.58-3.33.92-4.49,1-4.99,1,.25,3.99,1.33,4.83,2.16.33.33.67.67,1,.92,1.33,1.16,2.16,2,1.33,3.83-.25.5-.42.83-.5,1.16,0-.17-.17-.25-.25-.25-.42-.08-.67,0-.83.08l-.42-1.5s-.08-.08-.17-.08h-.17s-.08.08-.08.17l.25,2-.25.25h-.08c-.17-.08-.33-.25-.67-.17h0l-.83-1.08h-.17l-.17.17v.17l.92,1.41v.5h0c-.33,0-.58-.17-.92,0l-.17.17-2.58-2.83-.42.17ZM36.31,52.33c2.83-.25,5.16,1.75,5.66,2.25,0,.17,0,.25.17.33-.17,0-.42,0-.5.25,0,.08-.17.25-.17.33l-1.33-.58h-.25v.33l1.58.83c0,.08,0,.17.08.25,0,.08.08.25.08.25h0c-.83.08-1.58.58-1.83.75v.17l.17.17h.17c.17,0,.5-.17,1-.25h0c.17.17.33.33.5.42.17.17.25.25.33.25l-.33.33c-.17.08-.5.25-1,.5-4.49,2-7.9-1.25-9.24-2.83,0-.25-.17-.5-.25-.75,1.58-2.08,3.33-3.24,5.24-3.33l-.08.33ZM33.06,93.6h.17v.75s-.17,0-.25-.08v-.67h.08ZM26.07,61.49v-.67c0-1.25.08-2.5.17-3.83v-1.91c5.99,12.15,6.91,24.54,6.91,24.71l.33,3.74c-1.25-6.74-4.08-19.8-7.32-24.05,3.49,4.58,7.24,28.54,7.57,30.95h-.25c-.5-6.16-4.16-20.72-7.4-28.95ZM25.99,37.36v-1.41c0-.75,0-1.41.25-2.08.17-.42.25-.83.33-1.25,0-.08,0-.17.08-.25.08.58.33,1.33.67,2.41,1.25,3.99,3.74,16.97,4.16,19.14-.25.25-.5.58-.75.83-1.16-4.08-2.66-8.4-4.66-12.73v-1.5c0-.33,0-.67-.08-1v-2.16ZM32.73,52.83c-.17.08-.33.25-.5.42-.58-3.16-2.91-14.81-4.08-18.72-.25-.75-.42-1.33-.5-1.75.75,1.41,2,4.16,3.24,7.74,2.58,7.4,3,10.73,3.08,11.65-.17.08-.42.17-.58.33-.25-1.5-2-8.24-2.33-9.73.33,1.66,1.5,9.07,1.75,10.07h-.08ZM26.07,46.43h0c1,2.41,4.24,10.32,6.32,23.13-1.16-4.83-3.08-10.73-6.16-16.56h0v-5.66c0-.25-.17-.58,0-.83l-.17-.08ZM31.65,58.07c.33.25.67.58,1,.83.25.83,1.33,7.07,2,11.23l-.17,7.9c0-1.25-.17-2.41-.25-3.41,0,0-.33-7.07-2.66-16.64l.08.08ZM34.81,93.52h0v1.33h-.08l-.25-.17-.33-1.25h.67v.08ZM34.81,65.31c-.33-2.08-.75-4.41-1-5.74.17,0,.25.17.42.25.25,1.41.5,2.58.67,3.24v2.25h-.08ZM36.64,19.97h0v.17s0,.92-.58,1.5c-.42.5-1.16.67-2.08.67-.25,0-2-.33-3-1.83-.42-.67-.67-1.5-.58-2.41h0v-.25c0-.5.08-1,.25-1.5v-.17c0-.25.17-.42.25-.67s.25-.58.33-.92c.25-1,.5-2.25.42-2.91.17,0,.42,0,.58.25.17.17.67.58,1.33,1.08,1,.83,2.16,1.91,2.75,2.41.17.17.33.42.42.67h0v.17c0,.08,0,.25.08.33h0c0,.33.17.58.17.83h0v.25c0,.33-.33,1.58-.5,2.25l.17.08ZM29.4,15.14c-.25.25-.58,0-.67.17-.67.5,1.25.67-.5,1.25.33.17,1.16.17,1.08.58-.33.17-.5.33-.5.5h.75c0,.67,0,1.25.08,1.75h-.08c0-.17,0-.33-.17-.42-.25-.33-.75-.33-1.16-.33h-.5.17c.17,0,.25-.17.25-.33.17-.67-.42-1-.83-1.16.25-.17.33-.33.42-.58.08-.42-.17-.75-.33-.92,0,0-.17-.17-.17-.25h0c.25,0,.67.08,1-.42.25-.42,0-.75-.17-.92v-.08c0-.25.08-.25.75-.17h.58c.17,0,.33,0,.42-.25,0-.17.08-.33.17-.5,0,.17.17.25.33.25h.33c0,.33-.08.58-.17.83-.75,0-1.16-.08-1.25.42,0,.17.42.33.25.42l-.08.17ZM30.32,20.97h-.08v-.17l.08.17ZM48.62,16.39c.25.17.33.5.25.75,0,.25-.25.5-.5.67-.33.17-.58.25-.92.33-1.58.5-4.24,1.25-4.58,1.33h-.33c-.5.08-1.58.33-2.16-.17-.17-.08-.25-.17-.25-.25h0c.17,0,.25-.08.33-.25v-.42l-.08-.17c.5,0,.92-.08,1.08-.42.08-.08.17-.25.17-.42.5.25,1.25.42,1.83.42s.25,0,.33,0v-.33h-.17c-.58.08-1.66-.25-2.16-.58h0c0-.08-.08-.17-.17-.17.17,0,.33-.08.5-.17.25.08.67.17,1.25.17s.25,0,.33,0v-.33h-.17c-.33,0-.67,0-.83-.25,0-.08.08-.17.08-.25,0-.25-.17-.42-.33-.58,0,0,.08-.08.17-.17,0,.08.25.17.33.17h.83c.83,0,1.83-.33,2.66-.67.25.17.83.67,2.33,1.91l.17-.17ZM46.21,4.99c.08,0,.75.42,1.16,2.08.33,1.33,1.33,4.99.17,5.82-.33.17-2.66,1.41-3.91,1.41h-.67c.17-.25.17-.42,0-.67v-.08c.75-.25,1.66-.67,2-1.08v-.17h-.25c-.25.25-1.08.67-2,1-.17,0-.33-.08-.58-.08v-.17h0c.67-.33,2-1.16,2-1.83,0,0,0-.17-.17-.08h-.17v.08c-.08.17-.92.67-1.66,1-.17-.17-.42-.25-.83-.33,1-1,1.58-2.25,1.91-3.33,1.25-1.58,2.83-3.33,3.16-3.49l-.17-.08ZM38.89,1.41l1.08-.75c1.33,1,2.25,2,2.83,4.91,0,0,0,3.24-2.08,5.49,0-.08-.17-.17-.33-.17h-.25l.5-1.75v-.17h-.33l-.58,2c-.17,0-.33.08-.42.17,0,0-.17,0-.25.08,0-.08,0-.25-.08-.33l-.08-.08c0-1.25.17-2.58.17-2.75h-.17v-.08h-.17c-.08.42-.33,1.75-.42,2.66h-.58c-.42-2.66-.83-8.24,1.33-9.24h-.17ZM36.64,9.82c0,.42.08.75.17,1.08h-.33s0-.08-.08-.17c.08-.33.17-.67.25-1v.08ZM36.22,11.81c.25,0,.58,0,1-.17.17,0,.5-.08.75-.17,0,.08-.08.25,0,.42,0,.17.17.25.33.25.5.08.92,0,1.33-.17.08,0,.17,0,.25-.08,0,0,0,.08-.08.17-.08.17-.08.33,0,.5s.25.25.42.25h1c0,.25-.17.58-.17.92,0,.25.25.42.5.42h.5c-.08.08-.17.25-.25.25-.33.33-.67.67-.58,1,0,.17.08.25.25.33-.17,0-.5.17-.67.17-.25,0-.42.25-.33.5v.17c0,.17,0,.5.25.75h-.75c-.33.25-.42.58-.42.83h-1.08c-.25.17-.42.33-.42.58,0,.17,0,.33.08.42h-.33c.17-.58.25-1.25.25-1.5s0-.58-.17-.92h.92c.5-.17.42-.25.42-.58h0c.33,0,.5-.17.42-.42-.42,0-.33-.17-.33-.33.5-.08,1.66-.5.58-.67,0-.33,1.75-1.16-.08-1-.08-.58.83-.92-1.08-.67.17-.17.17-.33.17-.58-.58,0-.92.42-1.5.33.67-.83-1.08-.08-1.58-.08-.25-.17-.42-.33-.75-.5-.17,0-.42.17-.58.33-.25-.17-.42-.33-.58-.5.33-.08.75-.42,1.08-.75.17-.08.33-.25.42-.33l.25.25c.17.17.33.33.5.42,0,0,.17.08.25.08l-.17.08ZM30.23,2.41l1.75-1.75c1.08.67,5.24,3.83,3.66,9.48h0c-.08,0-.25-.08-.33-.08s-.17,0-.25.08c0-1.08-.33-3.74-.92-4.66,0,0-.17-.08-.25,0h-.08v.25c.42.83.58,3.66.58,4.91h0c-.17.08-.33.25-.5.42l-1.16-2.83s-.17-.08-.25,0h-.08c0,.08-.08.17,0,.25l.67,2.33c-.33,0-.58,0-.83.17-.67-1-3.83-5.91-1.83-8.49l-.17-.08ZM24.24,4.58c.83,0,3.49,0,4.41,1.75,1.25,2.41,2.16,5.32,2.25,5.41h-.33s-.17,0-.25-.08c-.17,0-.42-.17-.67-.08l-.58-1.41s-.08-.08-.17,0h-.08s-.08.17-.08.25l.5,1.66v.92h-.75c-.33-.58-.83-1.75-1.08-3.08,0,0-.08-.17-.17-.08h-.08s-.17.08-.08.17c.17.75.5,2.25.92,3.16-.17.08-.33.25-.42.42-.08-.58-.25-1.16-.5-1.75-.42-.92-1-1.41-1.66-1.58h-.42c-.25-.58-1.16-2.58-.5-5.66h-.25ZM27.24,20.22c-.58-.17-1.16-.42-1.66-.75l-1.08-.75s-2-1.58-3.58-3.24c-1.16-1.25-.5-3.33-.08-4.58.08-.25.17-.5.17-.67.17-.5.5-.83.67-.92l1.25,1.33,2,.42c.33,0,.67.33.92.83.58,1,.75,2.41.67,3-.42.58,0,1.16.17,1.33,0,0,.08.08.08.17,0,0-.25.17-.67.33h0c-.58-.25-1.25-.67-1.33-1.25,0,0,0-.17-.17-.17h-.08c-.08,0-.17,0-.17.17.08.67.83,1.25,1.5,1.66,0,.08,0,.25.17.33.17.17.42.25.67.42.08,0,.25.08.33.17-.42.25-.58.67-.5,1.08,0,.17.17.25.25.33.5.17,1,.17,1.41.17h.33v.67h-1.41l.17-.08ZM22.99,27.62l-.5-.33c-.33-.17-.5-.58-.5-.92s0-.5.08-.67c.17-.58.92-2.41,1.91-2.5,1.25,0,3.99-1.41,5.32-2.16,0,.25-.08.5,0,.67s.25.33.5.33c.33,0,.75-.08,1.08-.33h0c-.25.25-.42.42-.33.67,0,.17.08.33.42.5h.33s.08,0,.17-.08l.5-.33c.08,0,.25.08.33.17h-.08c-1.33.33-1.5,1.25-1.66,2.08-.08.42-.17.75-.42,1.08-.5.83-2.58,1-3.49.92-.17,0-.58,0-2.58.92-.33.17-.75.17-1.16,0h.08ZM24.33,28.45h.17c1.75-.83,2.16-.83,2.16-.83.17,0,3.33.17,4.24-1.33.25-.42.42-.92.5-1.33.17-.58.25-.92.5-1.16-.08.83-.08,2.58.08,2.41l.25-.17,1.16-1.5c.17,1.25.67,5.24,0,7.4-.5,1.66.08,7.65.58,12.9.25,2.33.5,4.74.5,6.07-.25-1.75-1-4.99-2.91-10.65-.08-.33-2.5-7.24-4.08-8.99.08-.08.17-.17.33-.25.33-.25.58-.58,1-.75.58-.25,1.25-.5,1.91-.67.58-.17,1.08-.25,1.66-.42.08,0,.25-.17.33-.25,0-.08,0-.25-.08-.42s-.25-.17-.5-.17h-1.41c-.5,0-1,.08-1.5.08h-4.99.08ZM26.16,89.44v-.42c.25.42.58.92.92,1.5-.42-.08-.83-.5-.83-1.08h-.08ZM28.57,90.52h-.58c-.5-.92-.83-1.58-1.25-2.08-.25-.33-.42-.58-.67-.75v-1.75c1.58,1.33,2.41,3.83,2.66,4.66h-.08l-.08-.08ZM29.57,90.52c-.17-.58-1.25-4.16-3.58-5.74v.17-4.24c.17.42.25.58.42,1.08l3.24,8.74h-.17.08ZM27.24,81.54c-.67-1.83-.67-2.08-1.16-3.24v-1.33c1.33,2.83,2.66,6.49,3.66,11.23l-2.5-6.66ZM26.16,74.05v-.5c.25.42.5.83.67,1.25,1,2.16,1.83,4.49,2.08,6.57-.75-2.08-1.66-4.24-2.83-6.32v-1h.08ZM29.73,80.29c-.58-3-2.25-6.49-3.49-8.99v-2c0-.42-.08-.92-.08-1.33v-1.41c-.17-.83,0-1.66,0-2.5h0c3,8.32,6.07,20.8,6.49,26.29h-.33c-.42-1.91-1.25-6.16-2.5-10.15l-.08.08ZM36.06,98.84c-.5.67-3,1.83-4.99,2.5l.83-2.08c0-.25,0-.42-.17-.58s-.5.25-.67.33l-3.83,2.25.42-1.75c0-.25,0-.42-.25-.58-.08,0-.25-.08-.33-.08s-.25,0-.33.08c-.92.58-4.58,2.83-4.58,2.83.67-.58,2.08-2.41,3.49-4.49,2.08-3.08,5.99-2.83,8.07-1.91h.25c-.5.08-2.66.25-4.58,1.33-2.16,1.25-1.33.83-1.33.83,0,0,2.83-.92,4.08-1,1.25,0,.33.5.33.5l-.92.92,1.91-1.08c.67-.42,1.5-.58,2.25-.58l.83.42c0,.42.17,1.33-.5,2.16h0ZM37.89,94.68h.08l1.16-.25h.5l4.41,1.83c1.5.67,2.58,2.41,2.75,3.41v.42c.08,0-3.91-2.08-3.91-2.08-.33-.17-.75-.08-1,.17-.25.25-.42.58-.33,1l.42,1.08-2.58-1.25c-.25-.08-.42-.08-.67,0-.17.08-.33.25-.42.5l-.33,1.16-1.83-.75c.25-.17.42-.33.58-.5,1-1.41.58-3,.58-3.08v-.17l-.33-.17h.17c1.83.42,3.49,1.66,3.49,1.58-.83-1.16-2.33-1.83-2.33-1.83,2-.17,3.08.25,3.49.5-.33-.25-.92-.67-1.5-.92-.67-.33-1.83-.5-2.66-.58h.33l-.08-.08ZM46.62,90.19h-.25c-.92,0-1.83.25-2.75.25h-2c-.33,0-.67,0-.92.08h-4.24c.58-.08,1.33-.17,2.33-.17,4.58-.08,6.82-.58,7.99-1.08l-.17,1v-.08ZM64.76,93.1c-1,3.08-2.16,4.91-2.83,5.82-.58-.92-1.66-2.41-3.16-2.58h-1.41c-2.66,0-7.07-.08-8.9-3h7.4s.17.08.25.08c.17,0,.25-.08.42-.08h1.5c.25,0,.5.17.75.08.83-.17,1.58-.33,2.5-.33h3.49,0ZM65.18,87.94c-.75.5-1.5.92-2.33,1.16-.25,0-.5,0-.67.17-.42.17-.83.33-1.25.5-.17,0-.33.08-.5.17-.08,0-.17,0-.33.08h-.58c-.33,0-.67.08-1,.08s-.67-.08-1-.08h-2.08c-.58.08-1.16,0-1.66,0h-.25c-.42,0-.75.08-1.16.08h-1.25c-.83-.08-1.75,0-2.58-.25h-.42l.42-2.08c0-.17.08-.33,0-.5,0-1.33,1-3.99,1.41-4.99l-1.08-.5c0,.17-1.58,3.58-1.58,5.41v.17l-.08.08c-.42.42-2,1.25-8.24,1.41-1.33,0-2.33.17-2.91.33,0-.5.17-1.16.25-1.83.25-1.41.5-3.16.58-4.24h0c0-1,.42-2,1-2.91,2.25-3.16,4.33-5.41,7.4-6.16.75-.17,1.58-.08,2.25.17,1.41.58,3,1.58,3,3.41-1.5-.33-5.57-.83-8.4,3.66-.58,1-.92,2.16-.92,3.41,3.08-6.49,9.65-5.66,9.82-5.66.42.17.83.25,1.33.17,1.58.58,4.74,2.75,5.91,10.48.5-.83.42-2.66.17-3.58-1.25-6.57-3.91-7.4-4.99-7.57.25-.25.42-.58.58-.92v-.17c1.08-.58,6.41-2.91,11.23-1.33l-1.5-.92s-.83-.42-1.08-.5c-4.49-1.33-7.9.92-9.07,1.91-.17-.25-.5-.5-.83-.92-.67-.92-1.41-2.25-1.16-3.66.17-1,.92-1.91,2.16-2.75,1.41-.83,3-1.25,4.66-1.25,3.49,0,6.66,2,8.57,5.16.58,1,1.25,2.25,1.75,3.16.25.5.58,1,1.08,1.33l-1.25.67s-3.58,2-6.07,1.75c-2.5-1.41-5.16-2-5.32-2l-.25,1.16s5.82,1.16,8.15,4.74c.58.92.92,2,.92,3.08-.25.17-.58.42-.83.58v.25Z"/>
    </g>
  </g>
</svg>