<?xml version="1.0" encoding="utf-8"?>
<svg xmlns="http://www.w3.org/2000/svg" viewBox="8 8.6666 581 110.3334" width="581px" height="110.333px" preserveAspectRatio="none"><g id="object-5" transform="matrix(1, 0, 0, 1, 0, -7.105427357601002e-15)"><path d="M 468 9 C 487.614 8.907 487.614 8.907 507.625 8.813 C 511.726 8.785 515.828 8.758 520.053 8.73 C 525.132 8.716 525.132 8.716 527.523 8.714 C 529.163 8.709 530.803 8.699 532.443 8.683 C 548.098 8.544 564.728 9.039 576.875 20.313 C 583.338 27.416 585.101 34.446 585 44 C 584.355 51.34 581.535 57.693 576.117 62.762 C 574.885 63.792 573.632 64.799 572.355 65.773 C 571.908 66.178 571.461 66.583 571 67 C 571 67.66 571 68.32 571 69 C 572.027 69.876 573.099 70.701 574.188 71.5 C 582.368 78.364 583.924 88.008 585.188 98.125 C 585.49 100.378 585.796 102.631 586.105 104.883 C 586.231 105.867 586.356 106.85 586.485 107.864 C 587.102 111.619 588.077 115.308 589 119 C 575.47 119 561.94 119 548 119 C 545.92 112.761 544.629 108.602 544 102.375 C 543.241 96.117 542.516 91.144 538.5 86.125 C 535.328 83.746 532.051 83.819 528.238 83.684 C 527.231 83.645 526.223 83.607 525.185 83.568 C 523.907 83.525 522.629 83.482 521.313 83.438 C 517.249 83.293 513.186 83.149 509 83 C 509 94.88 509 106.76 509 119 C 495.47 119 481.94 119 468 119 C 468 82.7 468 46.4 468 9 Z M 509 37 C 509 43.27 509 49.54 509 56 C 513.355 56.081 517.708 56.141 522.063 56.188 C 523.292 56.213 524.521 56.238 525.787 56.264 C 533.264 56.324 539.148 56.371 545 51.25 C 546.553 47.756 546.097 45.615 545 42 C 539.627 37.252 534.088 36.865 527.164 36.902 C 525.569 36.907 525.569 36.907 523.941 36.912 C 522.3 36.925 522.3 36.925 520.625 36.938 C 519.507 36.942 518.39 36.947 517.238 36.951 C 514.492 36.963 511.746 36.981 509 37 Z" fill="#000000" id="object-4"/><path d="M 353 9 C 387.98 9 422.96 9 459 9 C 459 18.9 459 28.8 459 39 C 437.55 39 416.1 39 394 39 C 394 42.63 394 46.26 394 50 C 413.47 50 432.94 50 453 50 C 453 59.24 453 68.48 453 78 C 433.53 78 414.06 78 394 78 C 394 81.63 394 85.26 394 89 C 416.11 89 438.22 89 461 89 C 461 98.9 461 108.8 461 119 C 425.36 119 389.72 119 353 119 C 353 82.7 353 46.4 353 9 Z" fill="#000000" id="object-3"/><path d="M 235 9 C 252.356 8.907 252.356 8.907 270.063 8.813 C 275.496 8.772 275.496 8.772 281.039 8.73 C 285.542 8.716 285.542 8.716 287.665 8.714 C 289.114 8.709 290.564 8.699 292.013 8.683 C 306.794 8.534 320.28 9.669 333 18 C 333.928 18.598 334.856 19.196 335.813 19.813 C 342.864 26.864 347.312 35.582 347.469 45.596 C 347.458 46.348 347.448 47.1 347.438 47.875 C 347.429 48.664 347.421 49.454 347.412 50.267 C 347.068 62.193 342.09 69.079 333.75 77.188 C 320.699 85.789 307.963 86.285 292.938 86.125 C 291.292 86.115 289.647 86.106 288.002 86.098 C 284.001 86.078 280.001 86.038 276 86 C 276 96.89 276 107.78 276 119 C 262.47 119 248.94 119 235 119 C 235 82.7 235 46.4 235 9 Z M 276 39 C 276 45.27 276 51.54 276 58 C 279.875 58.081 283.749 58.141 287.625 58.188 C 288.719 58.213 289.814 58.238 290.941 58.264 C 298.889 58.345 298.889 58.345 306 55 C 308.425 52.575 308.686 51.379 309 48 C 308.215 45.003 307.418 43.404 305.188 41.25 C 301.234 38.991 297.176 38.876 292.699 38.902 C 291.723 38.906 290.746 38.909 289.74 38.912 C 288.229 38.925 288.229 38.925 286.688 38.938 C 285.661 38.942 284.634 38.947 283.576 38.951 C 281.051 38.963 278.525 38.981 276 39 Z" fill="#000000" id="object-2"/><path d="M 8 9 C 19.591 8.938 31.183 8.876 43.125 8.813 C 48.572 8.772 48.572 8.772 54.129 8.73 C 58.636 8.716 58.636 8.716 60.76 8.714 C 62.213 8.709 63.666 8.699 65.119 8.683 C 82.106 8.512 97.986 10.543 110.953 22.613 C 118.993 31.988 120.743 42.077 120 54 C 118.436 63.355 113.55 71.73 106.109 77.656 C 93.127 85.926 79.715 86.282 64.938 86.125 C 63.292 86.115 61.647 86.106 60.002 86.098 C 56.001 86.078 52.001 86.038 48 86 C 48 96.89 48 107.78 48 119 C 34.8 119 21.6 119 8 119 C 8 82.7 8 46.4 8 9 Z M 48 39 C 48 45.27 48 51.54 48 58 C 52.042 58.081 56.083 58.141 60.125 58.188 C 61.267 58.213 62.409 58.238 63.586 58.264 C 71.746 58.424 71.746 58.424 79 55 C 81.5 51.25 81.536 49.441 81 45 C 77.974 41.023 75.853 39.679 71 39 C 69.162 38.922 67.321 38.892 65.48 38.902 C 63.948 38.907 63.948 38.907 62.385 38.912 C 60.802 38.925 60.802 38.925 59.188 38.938 C 58.113 38.942 57.039 38.947 55.932 38.951 C 53.288 38.963 50.644 38.981 48 39 Z" fill="#000000" id="object-0"/><path d="M 146 9 C 159.2 9 172.4 9 186 9 C 196.133 32.779 206.254 56.564 216.313 80.375 C 216.896 81.756 216.896 81.756 217.492 83.164 C 221.37 92.34 225.234 101.522 229.043 110.727 C 229.344 111.45 229.644 112.173 229.954 112.918 C 232 117.882 232 117.882 232 119 C 217.81 119 203.62 119 189 119 C 183 103 183 103 183 101 C 171.12 101 159.24 101 147 101 C 146.01 104.3 145.02 107.6 144 111 C 143.01 113.64 142.02 116.28 141 119 C 127.47 119 113.94 119 100 119 C 100.722 114.666 101.217 112.041 102.892 108.231 C 103.285 107.327 103.678 106.423 104.084 105.491 C 104.515 104.518 104.946 103.545 105.391 102.543 C 106.07 100.989 106.07 100.989 106.762 99.403 C 108.252 95.995 109.751 92.591 111.25 89.188 C 112.811 85.623 114.369 82.057 115.927 78.491 C 116.998 76.039 118.07 73.587 119.142 71.136 C 124.79 58.225 130.338 45.271 135.875 32.313 C 137.215 29.176 138.556 26.04 139.897 22.905 C 140.689 21.051 141.481 19.198 142.272 17.344 C 142.619 16.532 142.966 15.72 143.324 14.884 C 143.776 13.825 143.776 13.825 144.237 12.744 C 144.79 11.48 145.383 10.234 146 9 Z M 165 51 C 162.36 58.59 159.72 66.18 157 74 C 162.61 74 168.22 74 174 74 C 172.884 70.351 171.758 66.706 170.625 63.063 C 170.308 62.022 169.991 60.981 169.664 59.908 C 169.355 58.919 169.045 57.929 168.727 56.91 C 168.444 55.994 168.161 55.077 167.87 54.133 C 167.203 51.827 167.203 51.827 165 51 Z" fill="#000000" id="object-1"/></g></svg>