<?xml version="1.0" encoding="UTF-8"?>
<svg xmlns:xlink="http://www.w3.org/1999/xlink"  id="Capa_1" xmlns="http://www.w3.org/2000/svg" width="206.71mm" height="68.5mm" version="1.1" viewBox="0 0 585.95 194.17">
  <!-- Generator: Adobe Illustrator 29.4.0, SVG Export Plug-In . SVG Version: 2.1.0 Build 152)  -->
  <path d="M569.36,3.17c-7.98-1.05-17.99-.11-23.35,6.67-5.5,6.95-1.66,17.09,6.55,19.83l.29.1.23.1c3.55,1.48,7.59,2.26,11.66,2.26,8.31,0,19.42-3.44,20.98-12.88,1.7-10.29-7.63-14.93-16.38-16.08Z"/>
  <polygon points="547.54 51.08 547.54 149.23 581.55 149.23 581.55 35.96 554.02 48.19 547.54 51.08"/>
  <path d="M517.18,31.19V0c-12.76,5.71-24.29,10.91-35.45,16.31v14.88c0,.38-.31.7-.7.7h-17.13v2.91h17.13c.38,0,.7.31.7.7v113.74h35.5c-.07-14.46-.07-96.81-.07-113.42v-.32c0-.38.31-.7.7-.7h17.8v-2.91h-17.79c-.38,0-.7-.31-.7-.7Z"/>
  <path d="M349.42,25.58c-11.82-2.18-21.96,6.25-29.05,14.6-4.24,4.99-8.25,10.21-11.8,15.72-1.09,1.69-2.14,3.41-3.13,5.16-.18.32-2.47,4.07-2.47,1.81V28.48l-34.01,15.12v105.6h34.01v-77.41c0-2.77,2.9-6.92,4.27-9.19,2.37-3.97,5.33-7.61,8.88-10.57,7.81-6.52,18.23-8.8,28.21-7.5l5.09-18.94Z"/>
  <path d="M246.56,133.31l-.25-.62-13.66-57.99c-2.07-9.8-4.49-19.75-9.69-28.42-4.01-6.69-10.35-11.82-17.42-15-17.3-7.78-38.21-3.9-55.99.81v2.72c8.92-1.7,18.5-2.56,27.01.7l.26.1.21.1c9.49,4.39,15.81,13.04,18.28,24.98l4.9,17.98c.43,1.6-4.35-.09-4.89-.18-3.75-.67-7.6-.76-11.4-.55-8.36.45-17.02,2.16-24.62,5.74-9.1,4.27-17.36,11.44-22.29,20.28-3.26,4.92-3.81,12.02-2.87,17.66.27,2.93.95,5.61,1.98,7.73l.11.22.08.18c3.6,8.69,13.13,16.45,23.18,18.85l.15.04.13.04c5.18,1.45,10.48,2.18,15.75,2.18,12.78,0,24.5-4.26,32.99-11.99l5.34-4.86c.29-.26.74-.23,1,.07l4.66,5.51c9.24,10.92,25.44,9.78,38.33,9.35v-4.8c-5.14-1.99-9.23-5.91-11.27-10.84ZM208.76,136.59c-.65.64-1.42,1.23-2.24,1.73-2.95,2.13-4.79,2.9-5.73,3.14-1.79.7-3.73,1.1-5.64,1.16-4.49.61-9.14.17-13.38-1.46l-.67-.27-.52-.31c-8.71-5.22-14.09-14.48-14.39-24.71-1.26-12.47,5.02-23.73,15.03-30.88l.5-.35,1.52-.81c.23-.13,5.73-3.16,10.71-3.16,1.52,0,4.4-.18,5.7.89l.92.37c.2.08.36.25.41.47l12.69,47.59c.6,2.2-3.64,5.57-4.91,6.61Z"/>
  <path d="M456.1,133.31l-.25-.62-13.66-57.99c-2.07-9.8-4.49-19.75-9.69-28.42-4.01-6.69-10.35-11.82-17.42-15-17.3-7.78-38.2-3.9-55.99.81v2.72c8.92-1.7,18.5-2.56,27.01.7l.26.1.21.1c9.49,4.39,15.81,13.04,18.27,24.98l4.9,17.99c.43,1.6-4.35-.09-4.89-.18-3.75-.67-7.6-.76-11.4-.55-8.36.45-17.01,2.16-24.62,5.74-9.13,4.29-17.31,11.45-22.29,20.28-3.26,4.91-3.81,12.03-2.87,17.66.27,2.93.95,5.61,1.98,7.74l.1.21.08.19c3.6,8.7,13.13,16.45,23.17,18.85l.16.04.12.04c5.17,1.45,10.47,2.18,15.74,2.18,12.78,0,24.5-4.26,32.99-11.99l5.34-4.86c.29-.26.74-.24,1,.07l4.66,5.51c9.24,10.92,25.44,9.78,38.34,9.36v-4.8c-5.14-1.99-9.23-5.91-11.27-10.84ZM418.3,136.59c-.65.64-1.42,1.23-2.24,1.73-2.95,2.13-4.78,2.9-5.73,3.14-1.79.7-3.73,1.1-5.64,1.16-4.49.61-9.14.16-13.38-1.47l-.67-.27-.52-.31c-8.71-5.22-14.09-14.48-14.39-24.71-1.27-12.47,5.02-23.73,15.03-30.88l.5-.35,1.52-.81c.23-.13,5.73-3.16,10.71-3.16,1.52,0,4.39-.18,5.7.89l.92.37c.21.08.36.25.42.47l12.69,47.59c.58,2.23-3.62,5.55-4.91,6.61Z"/>
  <path d="M106.52,38.32c-8.33-7.41-19.26-12.37-30.29-13.9-9.47-1.31-19.05-.25-28.09,2.82-3.04,1.03-6.02,2.27-8.88,3.73-.41.21-3.31,2.25-3.31.63v-5.45L0,43.15v151.03h35.96v-51.68c0-1.86,3.83.24,4.3.48,1.79.91,3.63,1.72,5.51,2.43,4.01,1.5,8.21,2.5,12.47,2.91,6.11.59,12.46-.18,18.3-1.07,12.47-2.61,26.92-7.96,36.08-19.05,20.37-24.68,18.14-68.32-6.09-89.88ZM77.98,134.9c-5.79,6.01-12.41,8.19-21.83,9.02-4.52.4-8.91-.31-13.16-1.76-1.56-.53-6.92-2.97-6.92-5.24V39.58c0-1.11,2.72-2.29,3.44-2.67,2.69-1.41,5.87-2.39,8.92-2.39.6,0,1.2.03,1.79.09,24.15,2.27,37.74,27.83,41.48,49.06,3.2,18.16-.65,37.65-13.71,51.22Z"/>
</svg>