<?xml version="1.0" encoding="utf-8"?>
<!-- Generator: Adobe Illustrator 19.0.0, SVG Export Plug-In . SVG Version: 6.00 Build 0)  -->
<svg version="1.1" id="Layer_1" xmlns="http://www.w3.org/2000/svg" xmlns:xlink="http://www.w3.org/1999/xlink" x="0px" y="0px"
	 viewBox="2494 317.6 392.2 156.9" style="enable-background:new 2494 317.6 392.2 156.9;" xml:space="preserve">
<style type="text/css">
	.st0{fill:#20B1EA;}
	.st1{fill:none;}
</style>
<g>
	<path class="st0" d="M2537.7,370.9h7.6c6.9-0.2,9.3-4.3,9.3-14.8c0-9.6-3.4-14.5-9.3-14.5h-7.6V370.9z M2741.7,411.2
		c0,7.9,1.9,13.8,7.4,13.8c6.2,0,9.8-8.3,9.8-27.9c0-21.5-3.3-28.9-9.1-29.2c-5.6-0.2-8.5,4.5-8.2,14.3V411.2L2741.7,411.2z
		 M2848.7,368.8c-6,0-8.6,6.8-8.9,14.5c-0.1,2.6-0.2,2.7,0,4.7h17.9c0.2-2,0.1-2.1,0-4.7C2857.2,375.6,2854.7,368.8,2848.7,368.8
		L2848.7,368.8z M2612.1,368.2c-6,0-8.8,7.4-9.1,15.1c-0.1,2.6-0.2,2.7,0,4.7h17.9c0.2-2,0.1-2.1,0-4.7
		C2620.5,375.6,2618.2,368.2,2612.1,368.2L2612.1,368.2z M2670.1,397c0,15.6,2.8,28.2,9.9,28.3c7.2,0.1,9.8-12.7,9.8-28.3
		c0-15.6-2.8-28.2-9.9-28.3C2673.1,368.7,2670.1,381.4,2670.1,397z M2612.3,425.1c4.9,0,7.5-4.6,8.5-10.5l23.6,0
		c-1.2-5.9-1.3-7.1-1.5-11.7l-39.7,0c-0.2,1.8,0,4.8,0.1,7.5C2603.7,418.2,2606.3,425.1,2612.3,425.1L2612.3,425.1z M2848.8,425.1
		c4.9,0,7.5-4.6,8.5-10.5h26.9c-3.4,40.9-60,41.3-65,8.8v21.1h-39v-21.4c-3.4,20.9-15.4,23.8-20.6,23.8c-4.4,0-15.2-3.6-19.2-14.6
		l0.4,12c0.1,7.4,4.8,12.2,9.9,12.8v17.3l-45.6,0v-17.3c3.8-0.1,10-3.9,10-12.2v-31.4c-1.4,7.9-7.2,33.4-35.3,33.4
		c-27.8,0-34-26.9-35.2-30.9c-5.2,29.3-24.7,31-33.3,30.9c-15.4-0.2-24.6-10.8-24.8-11c-9.3-9.4-11-23.6-10.7-39
		c0-3.1,0.8-9.1,1.1-12c-10,10.7-19.2,9.4-30.1,9.8l-9.2,0v17.6c0,7.1,2.6,11.3,10.5,11.3v21.1H2494v-20.7
		c7.9-0.1,10.6-4.7,10.6-11.7v-62.6c0-1.5-0.4-11.2-10.5-11.2v-20.8h58.4c11,0,18.8,3.4,24.1,7.5c9.7,7.7,11.7,20.9,12.5,30.6
		c14.9-12.9,50.1-15.8,56,22.9c6.4-29.5,28.1-31.7,33.2-31.8c9.1,0,24.8,5.5,29.8,20.4v-18.4h32v11.8c2.4-8.9,10.2-13.8,18.2-13.8
		c7.7-0.1,23.5,8.5,27.6,41.1v-43.4c0-6.3-3.9-9.5-10.1-9.5l0-17.3h37.2V388c3.4-31.1,20.8-41.1,35.4-41.1
		c14.8,0,25.4,8.3,30.8,18.9c6.9,13.5,6.4,27.9,6,37.1l-45.3,0c-0.2,1.8,0,4.8,0.1,7.5C2840.3,418.2,2842.8,425.1,2848.8,425.1
		L2848.8,425.1z"/>
	<rect x="2494" y="317.6" class="st1" width="392.2" height="156.9"/>
</g>
</svg>
