<svg xmlns="http://www.w3.org/2000/svg" xmlns:xlink="http://www.w3.org/1999/xlink" id="Layer_1" x="0px" y="0px" viewBox="0 0 814.4 237" style="enable-background:new 0 0 814.4 237;" xml:space="preserve"> <style type="text/css"> .st0{fill:#000;} </style> <g> <path class="st0" d="M373,42h-51.4v85.8c0,28.4-16.9,35.8-28.1,35.8c-16.3,0-25.4-7.4-25.4-28.7V42h-51.4v96.3 c0,42,13,68.5,58.1,68.5c18.2,0,38.1-10.2,47.8-26.5h0.6v21.9H373V42z M434.4,105.6c3.1-19.4,15.4-32.7,34-32.7 c17.6,0,30.3,14.8,31.2,32.7H434.4z M552.1,134.9c2.5-54.3-26.2-97.6-83.7-97.6c-47.2,0-86.4,35.2-86.4,84.3 c0,53.7,35.5,85.2,87.7,85.2c35.8,0,70.1-16.1,79.7-53.1h-49.1c-4.9,11.7-17.3,17.6-29.9,17.6c-22.2,0-34.9-14.5-35.8-36.4H552.1z M563.7,202.2h52.5v-78.1c0-32.7,8-43.5,26.9-43.5c14.2,0,19.8,11.7,19.8,30.6v91.1h52.5v-78.4c0-25.9,2.2-43.2,24.7-43.2 c13.6,0,21.9,10.2,21.9,27.5v94.2h52.5v-95.7c0-30.6-5.6-69.2-56.5-69.2c-21.6,0-37.4,9-50,25.9c-8.6-19.4-26.6-25.9-46.6-25.9 c-19.5,0-36.4,10.5-46,26.5h-0.6V42h-50.9V202.2z"/> <path class="st0" d="M108.9,0.1c-2-0.1-4-0.1-6.1-0.1C37.1,0,0,47.8,0,107.9c0,0.3,0,0.7,0,1c0,1.5,0,3.1,0.1,4.6l0,0.3 c2,49.8,30.1,90.1,79.2,99.8c7.4,1.4,15.2,2.2,23.5,2.2c17.3,0,32.7-3.4,45.9-9.4c0.9-0.4,1.8-0.8,2.6-1.2l0,0 c11.6-5.8,21.5-13.7,29.5-23.3c1.5-1.7,2.9-3.5,4.2-5.3c0.5-0.7,1-1.5,1.6-2.3c1.3-1.9,2.5-3.8,3.7-5.8c0.5-0.8,0.9-1.7,1.4-2.5 c1.1-2,2.1-4,3.1-6c0.4-0.9,0.8-1.9,1.3-2.8c0.9-2.1,1.7-4.2,2.5-6.3c0.3-1,0.7-1.9,1-2.9c0.8-2.3,1.5-4.6,2.1-7 c0.2-0.8,0.4-1.7,0.6-2.5c0.6-2.7,1.2-5.3,1.6-8.1c0.1-0.6,0.2-1.1,0.3-1.7c0.5-3.1,0.9-6.2,1.1-9.4c0-0.2,0-0.4,0-0.6 c0.3-3.5,0.4-7,0.4-10.5v0c0-1.9,0-3.7-0.1-5.6c-2.2-55.1-36.4-99.2-96.4-102.1L108.9,0.1z M102.8,46.4c2.2,0,4.2,0.1,6.3,0.4 c0.7,0.1,1.3,0.2,1.9,0.3c1.2,0.2,2.3,0.3,3.4,0.6c16.4,3.8,26.6,15.6,32.1,30.5c0.1,0.2,0.1,0.4,0.2,0.5c0.5,1.4,1,2.9,1.4,4.3 c0.1,0.4,0.2,0.8,0.4,1.2c0.4,1.3,0.7,2.7,0.9,4.1c0.1,0.5,0.2,1.1,0.3,1.6c0.3,1.4,0.5,2.9,0.7,4.3c0.1,0.5,0.2,1,0.2,1.4 c0.5,4,0.7,8.1,0.7,12.1c0,12.6-2.2,25.2-7.6,35.6c-6.2,12.5-16.3,21.6-30.1,24.7l0,0c-3.2,0.9-6.7,1.2-10.8,1.2l0,0l0,0 c-2.1,0-4.1-0.1-6-0.3c-1.4-0.2-2.7-0.4-4.1-0.7c-0.5-0.1-0.9-0.1-1.4-0.2c-10.9-2.5-19.1-8.6-24.9-16.7l0-0.1 c-0.8-1.1-1.6-2.3-2.3-3.6c-0.2-0.4-0.5-0.8-0.7-1.2c-0.5-0.8-0.9-1.7-1.3-2.5c-0.5-0.9-0.9-1.9-1.3-2.8c-0.1-0.3-0.3-0.7-0.4-1 c-3.9-9.4-6-20.4-6-32.3c0-18.4,4.7-34.8,14.1-46.1l0.3-0.4c0.9-1,1.8-2,2.7-2.9c0.3-0.3,0.7-0.7,1-1c0.8-0.7,1.7-1.4,2.5-2.1 c0.5-0.4,1-0.8,1.5-1.2c0.8-0.6,1.7-1.1,2.6-1.6c0.6-0.4,1.2-0.8,1.9-1.1c1-0.5,2-0.9,3-1.4c0.6-0.3,1.2-0.5,1.8-0.8 c1.3-0.5,2.8-0.9,4.2-1.3c0.3-0.1,0.6-0.2,0.9-0.3C94.5,46.9,98.5,46.4,102.8,46.4"/> <polygon class="st0" points="95.3,156.2 156.6,237 193.3,207.7 132.5,127.1 "/> </g> </svg>