<?xml version="1.0" encoding="utf-8"?>
<!-- Generator: Adobe Illustrator 19.0.0, SVG Export Plug-In . SVG Version: 6.00 Build 0)  -->
<svg version="1.1" id="layer" xmlns="http://www.w3.org/2000/svg" xmlns:xlink="http://www.w3.org/1999/xlink" x="0px" y="0px"
	 viewBox="-153 -46 652 652" style="enable-background:new -153 -46 652 652;" xml:space="preserve">
<style type="text/css">
	.st0{fill:#CF0A2C;}
</style>
<path class="st0" d="M89.7,347.5l-1.7-0.3c-2.1,7.6-3.1,10.3-6.9,14.8c-3.8,3.4-8.3,4.5-14.1,5.9c-19.6,4.5-35.5-3.8-54.8-12.4
	c-18.9-7.6-32.4-13.4-51-13.4c-6.5,0-14.8,1.7-22.4,4.5l10.7-3.1c1.4-0.7,1.4-1-2.1-1h-3.8c-4.5,2.1-11,4.8-14.8,6.9
	c-10,5.2-17.9,10-17.9,13.8c0,2.1,1.4,3.8,3.8,3.8c3.1,0,5.9-2.1,10-9c3.1-4.8,8.3-10.3,17.2-10.3c16.5,0,31.7,9.3,51.3,21.7
	c19.6,11.7,40.3,17.6,59.9,17.6c12.4,0,20.7-5.5,26.2-12.7C85.5,366.8,88.3,357.1,89.7,347.5"/>
<path class="st0" d="M321.8,193.2c-22.4,6.9-33.8,11-57.2,18.9l-1-1.7c18.3-16.5,27.9-25.5,44.4-41.3l1,0.7c2.8,6.2,9,16.9,13.4,22
	L321.8,193.2z M256.7,262.1h55.8c0-36.5-4.1-44.1-24.8-44.1C269.5,218.3,259.1,232.8,256.7,262.1 M292.5,344.1
	c-43.1,0-69.6-32-69.6-65.8s27.9-65.8,64.8-65.8c32,0,52.4,24.8,52.4,57.5h-83.7c-0.3,4.5,0,3.1,0,8.3c0,32.4,3.4,56.5,38.9,56.5
	c25.8,0,41.3-14.8,44.8-33.4l4.1,7.2C339.7,331.7,319.7,344.1,292.5,344.1 M137.5,326.8v16.9h31.3V214.9l-0.7-0.7
	c-8.6,0.3-19.3,0.7-31,1v89.9c0,13.4-9.3,30-30.7,29.6c-17.6-0.3-19.3-9.3-19.6-18.6V214.9l-0.7-0.7c-8.3,0.3-19.6,0.7-31.3,1v95.1
	c0,22.4,16.5,33.4,44.4,33.4c23.4,0,33.4-4.5,37.9-16.9H137.5z M197.5,209c10,0,17.6-7.6,17.6-17.2c0-10-7.6-17.2-17.6-17.2
	s-17.2,7.6-17.2,17.2C180.3,201.1,187.5,209,197.5,209 M211.6,343.7V215.6l-1.4-1c-6.5,0.3-18.6,0.7-30.3,1v128.5h31.7V343.7z
	 M-98,253.5c0-51.7,13.8-82.3,53.4-82.3s53.7,30.7,53.7,82.3S-5.4,334.1-45,334.1S-98,304.8-98,253.5 M-131.8,253.5
	c0,53.7,43.1,90.6,87.1,90.6s87.1-36.9,87.1-90.6s-43.1-90.9-87.1-90.9S-131.8,199.7-131.8,253.5 M385.5,231.1v-15.2h-31.3V343
	l0.7,0.7h31v-90.6c0-13.4,9.3-30,30.7-29.6c17.6,0.3,19.3,9.3,19.6,18.6v101.3l0.7,0.7h31.3v-96.4c0-22.4-16.5-33.4-44.4-33.4
	c-23.4,0-33.4,4.5-37.9,16.9C385.9,231.1,385.5,231.1,385.5,231.1z"/>
</svg>
