<svg xmlns:xlink="http://www.w3.org/1999/xlink"  class="svg-home-vmagazine w-auto h-full stroke-l" xmlns="http://www.w3.org/2000/svg" viewBox="0 0 595.03 158" vector-effect="non-scaling-stroke" aria-hidden="true">
                    <path d="M0,1.45H23.88L34.47,107.76,45.26,1.45H67.48L48,155.92H19.52Z"></path>
                    <path d="M73.08,1.45h30.11l11.21,81.6,11.42-81.6h28V155.92h-22V56.06l-14.12,99.86h-9.34L94.05,56.06v99.86h-21Z"></path>
                    <path d="M200.15,126.86H182.91L180,155.92H159L177.93,1.45h27.82l20.14,154.47H203.26Zm-14.74-23h12.25l-6.23-57.09Z"></path>
                    <path d="M252.26,158c-13.91,0-22.42-12.25-22.42-28.24V33.22C229.84,16,236.27,0,258.7,0h4.56c25.13,0,28,16.4,28,34.67V50.45H268.45V33c0-6.85-1.66-10.59-7.47-10.59-4.78,0-7.27,3.53-7.27,10.59v90.32c0,7.26,2.49,11,7.69,11,6,0,8.72-4.15,8.72-10V85.75H259.53V62.08h32.8v93.84H279c-.2-.83-2.07-8.51-3.94-15.15C273.44,146,265.55,158,253.71,158Z"></path>
                    <path d="M338,126.86H320.77l-2.9,29.06h-21L315.79,1.45h27.82l20.14,154.47H341.12Zm-14.75-23h12.25l-6.22-57.09Z"></path>
                    <path d="M425.2,1.45V21.8L391.36,133.29h35.5v22.63h-60V135L400.29,23.46H368.94v-22Z"></path>
                    <path d="M457.38,155.92H433.92V1.45h23.46Z"></path>
                    <path d="M488.73,1.45l20.14,82.84V1.45h21.39V155.92h-19.1L488.73,67.06v88.86H467.56V1.45Z"></path>
                    <path d="M593.79,1.45V23.88h-29.9V64.36h23.46V87.82H563.89v44.64H595v23.46h-54.6V1.45Z"></path>
                </svg>