<?xml version="1.0" standalone="no"?>
<!DOCTYPE svg PUBLIC "-//W3C//DTD SVG 20010904//EN"
 "http://www.w3.org/TR/2001/REC-SVG-20010904/DTD/svg10.dtd">
<svg version="1.0" xmlns="http://www.w3.org/2000/svg"
 width="3046.000000pt" height="858.000000pt" viewBox="0 0 3046.000000 858.000000"
 preserveAspectRatio="xMidYMid meet">

<g transform="translate(0.000000,858.000000) scale(0.100000,-0.100000)"
fill="#000000" stroke="none">
<path d="M3025 7598 c-3 -7 -394 -1180 -869 -2605 l-864 -2593 728 0 729 0 15
53 c8 28 56 212 106 407 51 195 98 371 106 390 7 19 79 280 159 580 302 1129
648 2405 655 2413 3 4 62 -196 129 -445 68 -248 127 -459 132 -467 10 -17 689
-2564 733 -2746 14 -60 31 -127 37 -147 l10 -38 745 0 c612 0 745 2 742 13 -2
7 -392 1180 -868 2605 l-865 2592 -778 0 c-613 0 -779 -3 -782 -12z"/>
<path d="M6660 5005 l0 -2605 1825 0 1825 0 0 640 0 640 -1115 0 -1115 0 0
1965 0 1965 -710 0 -710 0 0 -2605z"/>
<path d="M10720 5005 l0 -2605 1825 0 1825 0 0 640 0 640 -1115 0 -1115 0 0
1965 0 1965 -710 0 -710 0 0 -2605z"/>
<path d="M14613 5948 c4 -1819 1 -1719 63 -2028 74 -367 143 -556 281 -770
183 -281 445 -523 694 -639 187 -87 385 -136 694 -170 615 -70 1100 -38 1490
96 254 88 470 236 667 458 280 315 429 656 516 1180 14 90 16 280 19 1818 l4
1717 -711 0 -710 0 0 -1638 c0 -1086 -4 -1666 -11 -1722 -39 -316 -176 -538
-402 -649 -132 -64 -187 -75 -377 -75 -190 0 -245 11 -376 75 -187 91 -314
261 -383 509 l-26 95 -3 1703 -2 1702 -716 0 -715 0 4 -1662z"/>
<path d="M19400 5005 l0 -2605 715 0 715 0 0 1055 0 1055 103 0 c225 0 370
-76 491 -258 59 -90 104 -180 536 -1082 199 -415 365 -758 369 -763 4 -4 368
-6 809 -5 l802 3 -241 525 c-132 289 -265 581 -296 650 -30 69 -179 374 -330
678 -151 305 -273 555 -271 556 2 2 34 20 71 41 310 171 551 494 641 857 41
164 50 250 49 463 0 231 -19 362 -77 542 -69 211 -162 361 -320 518 -199 196
-392 281 -763 334 -252 37 -444 41 -1743 41 l-1260 0 0 -2605z m2235 1545
c181 -21 287 -61 364 -138 92 -92 131 -204 132 -372 0 -126 -22 -207 -79 -296
-75 -115 -140 -154 -347 -205 l-130 -32 -372 -4 -373 -4 0 530 0 531 358 0
c196 0 398 -5 447 -10z"/>
<path d="M24270 5005 l0 -2605 1950 0 1950 0 0 585 0 585 -1232 2 -1233 3 -3
512 -2 513 1112 2 1113 3 0 530 0 530 -1112 3 -1113 2 0 415 0 415 1200 0
1200 0 0 555 0 555 -1915 0 -1915 0 0 -2605z"/>
<path d="M1335 1908 c24 -68 86 -246 137 -395 l93 -273 97 0 98 0 195 390
c107 214 195 392 195 395 0 3 -40 5 -90 5 -56 0 -90 -4 -90 -10 0 -6 -57 -131
-126 -278 -70 -147 -135 -287 -146 -311 -10 -24 -21 -42 -23 -39 -4 4 -205
624 -205 633 0 3 -40 5 -90 5 l-89 0 44 -122z"/>
<path d="M6410 1933 l0 -98 -118 0 c-144 -1 -198 -20 -267 -97 -107 -119 -114
-339 -15 -438 90 -90 238 -93 336 -7 l44 39 0 -46 0 -46 73 0 73 0 12 308 c7
169 15 346 19 395 l6 87 -82 0 -81 0 0 -97z m-26 -203 c18 0 19 -6 13 -116
-10 -188 -59 -264 -169 -264 -121 0 -174 146 -102 280 39 72 122 115 204 105
19 -3 44 -5 54 -5z"/>
<path d="M2282 1826 c-41 -8 -75 -16 -77 -18 -2 -2 -7 -26 -12 -53 l-10 -51
80 23 c87 25 178 30 217 10 19 -9 26 -22 28 -49 4 -49 -16 -61 -159 -99 -129
-33 -188 -64 -218 -113 -45 -72 -16 -187 56 -222 42 -20 143 -30 197 -20 30 6
37 12 46 44 5 20 10 40 10 43 0 4 -28 4 -62 2 -54 -4 -67 -2 -90 17 -36 28
-38 77 -5 109 20 18 95 48 220 88 15 5 17 1 13 -18 -3 -13 -8 -82 -11 -152
l-6 -128 78 3 78 3 7 160 c12 310 12 335 -9 364 -34 46 -86 64 -197 67 -58 2
-132 -3 -174 -10z"/>
<path d="M3090 1831 c-45 -14 -88 -40 -108 -66 -28 -35 -33 -32 -25 20 l6 45
-80 0 -80 0 -11 -227 c-7 -126 -15 -258 -19 -295 l-6 -68 81 0 80 0 7 128 c11
218 28 275 95 319 59 40 162 24 191 -29 13 -23 14 -160 3 -320 l-7 -98 80 0
80 0 7 173 c13 307 12 321 -37 375 -39 42 -181 66 -257 43z"/>
<path d="M3722 1824 c-73 -19 -107 -39 -157 -88 -102 -103 -120 -315 -34 -419
83 -101 269 -107 363 -13 l39 39 -7 -79 c-13 -143 -55 -184 -186 -183 -41 0
-105 8 -142 18 -77 20 -73 23 -62 -61 l6 -46 77 -13 c109 -19 254 -17 318 5
106 36 143 111 143 290 0 52 5 174 10 272 6 99 11 199 13 224 l2 45 -80 12
c-108 16 -238 15 -303 -3z m221 -111 c2 -5 1 -57 -4 -116 -9 -126 -33 -188
-88 -224 -43 -29 -113 -31 -157 -4 -78 47 -86 185 -17 279 39 52 86 71 180 72
45 0 84 -3 86 -7z"/>
<path d="M5041 1825 c-75 -14 -90 -24 -91 -60 0 -11 -3 -30 -6 -42 l-6 -23 58
21 c76 26 193 36 234 19 48 -20 53 -87 8 -111 -12 -6 -70 -24 -129 -40 -124
-32 -178 -57 -208 -95 -72 -91 -32 -223 75 -253 42 -12 145 -14 181 -5 12 3
24 17 28 32 3 15 8 34 11 43 4 14 -4 16 -63 12 -76 -6 -107 9 -118 58 -11 46
32 83 138 119 50 17 98 34 106 37 11 5 13 -19 6 -146 l-7 -151 75 0 74 0 7 93
c3 50 9 160 12 242 8 176 1 201 -69 237 -54 27 -207 34 -316 13z"/>
<path d="M5782 1823 c-18 -8 -44 -29 -57 -45 l-25 -30 0 41 0 41 -73 0 -74 0
-6 -217 c-4 -120 -10 -253 -13 -295 l-7 -78 80 0 81 0 4 168 c3 155 5 172 28
216 32 62 77 88 143 84 l47 -3 0 68 0 67 -47 0 c-27 0 -63 -8 -81 -17z"/>
<path d="M4212 1607 c-13 -252 -10 -279 43 -326 45 -39 104 -54 185 -49 74 6
138 34 169 75 l20 28 1 -47 0 -48 75 0 75 0 0 48 c0 65 18 392 26 475 l6 67
-81 0 -81 0 0 -72 c-1 -128 -18 -278 -37 -316 -49 -100 -206 -112 -244 -19
-12 27 -9 160 8 340 l6 67 -80 0 -79 0 -12 -223z"/>
</g>
</svg>
