<svg xmlns="http://www.w3.org/2000/svg" xmlns:xlink="http://www.w3.org/1999/xlink" viewBox="0 0 1280 800"><!-- logovejario --><!-- <defs><clipPath id="clip-Web_1280_1"><rect width="1280" height="800"/></clipPath></defs> --><g id="Web_1280_1" data-name="Web 1280 – 1" clip-path="url(#clip-Web_1280_1)"><g id="Group_2098" data-name="Group 2098" transform="translate(-519 187.661)"><g id="Group_2097" data-name="Group 2097" transform="translate(618 14.339)"><path id="Path_1151" data-name="Path 1151" d="M154.971,183.93V209.1H129.793V183.93Z" transform="translate(107.734 -183.93)" fill="#e23e4f"></path><path id="Path_1152" data-name="Path 1152" d="M183.908,261.917H96.771A29.293,29.293,0,0,0,128.4,292.254c14.169-1.121,21.418-11.231,27.755-21.3h26.465c-7.176,24.3-29.528,43.491-60.028,41.958-30.625-1.543-57.018-27.888-54.218-61.967,2.185-26.633,22.973-50.03,54.218-52.281,36.874-2.659,63.3,26.231,61.319,63.254ZM98.062,243.844c18.936-.424,39.581.855,57.444-.644-1.62-29.667-58.614-29.107-57.444.644Z" transform="translate(47.167 -169.617)" fill="#e23e4f"></path><path id="Path_1153" data-name="Path 1153" d="M253.218,309.215H229.337c-2.62.252-.712-4.021-1.293-5.807-27.631,19.354-81.527,11.323-82.618-25.172-.252-8.431,2.631-17.167,7.1-21.948,15.3-16.36,46.073-6.533,66.486-12.908,3.766-1.178,8.493-4.217,9.034-8.391,2.871-22.116-54.153-22.59-47.118,3.228H151.236c.006-31.408,20.4-36.085,47.762-39.373,25.037-3.01,50.451,6.741,53.574,28.4,3.255,22.575-2.923,52.285.646,81.974Zm-78.747-38.082c-3.791,4.858-.768,13.43,3.228,16.782,17.08,14.328,57.771-3.811,49.7-27.109-9.726,7.2-46.416,1.987-52.929,10.327Z" transform="translate(123.084 -169.797)" fill="#e23e4f"></path><path id="Path_1154" data-name="Path 1154" d="M10,200.2v-.647H39.044c13.261,24.823,24.387,51.782,36.793,77.457,10.8-26.847,23.467-51.839,35.5-77.457h29.691c-19.5,35.366-36.777,72.95-56.155,108.436H66.155C47.12,272.38,29.16,235.692,10,200.2Z" transform="translate(-10 -168.574)" fill="#e23e4f"></path><path id="Path_1155" data-name="Path 1155" d="M141.048,199.555h24.529v67.128c0,47.445,4.108,84.189-45.831,80.036-1.469-6.918-.24-16.543-.644-24.528,5.752.583,12.042,1.582,16.782-1.937,8.639-6.415,4.515-43.265,4.515-57.446V201.492c-.054-.916-.105-1.828.648-1.937Z" transform="translate(97.128 -168.574)" fill="#e23e4f"></path></g><path id="Path_1156" data-name="Path 1156" d="M412.8,187.683c19.87-3.119,42.184,15.01,33.568,39.375-9.074,25.63-47.524,26.457-56.8.646-6.351-17.665,2.974-36.839,23.233-40.021Z" transform="translate(979.105 -166.246)" fill="#161615"></path><path id="Path_1157" data-name="Path 1157" d="M206.952,188.256c59.7,3.036,129.039-5.143,187.184,2.582,55.283,7.349,100.18,33.139,96.171,92.947-1.39,20.734-10.343,36.59-21.942,48.408-18.214,18.561-43.354,28.525-74.229,35.5,28.075,8.583,43.251,10.806,59.382,28.4a63.611,63.611,0,0,1,15.493,35.5c1.743,19.857,0,43.029,0,65.837,0,23.363-1.85,51.149,16.13,52.929,17.57,1.737,21.563-15.732,27.755-27.111,5.444,1.874,10.767,3.868,16.138,5.807-7.025,16.814-18.686,35.211-36.145,43.249-19.785,9.106-48.936,4.008-60.026-9.035-28.112-33.057.484-123.272-22.594-162.012-18-30.208-63.373-25.011-110.371-25.171-1.162,38.855-.647,88.6-.647,133.606,0,14.167-.956,31.071,6.454,38.084,8.267,7.824,23.7,3.987,37.44,5.163v15.494H206.306V552.94c10.368-.169,28.134,1.4,35.5-3.871,13.112-9.385,8.391-54.075,8.391-79.394V250.222c0-17.861.654-37.19-8.391-43.247-7.717-5.165-24.424-2.534-35.5-3.228V190.194c-.056-.916-.105-1.828.646-1.937Zm92.3,17.429V360.6c20.992-.864,40.164,1.18,57.448,0,43.558-2.97,73.759-31.733,76.81-73.584,2.6-35.728-10.364-62.746-36.148-74.871-24.03-11.3-61.355-8.052-97.464-8.393-.751.109-.7,1.021-.647,1.939Z" transform="translate(800.905 -166.173)" fill="#161615"></path><path id="Path_1158" data-name="Path 1158" d="M459.434,241.873h1.291c-3.454,33.757-2.58,73.1-2.58,114.89,0,39.446-2.543,81.892,0,116.831.557,7.652,2.677,16.531,7.745,20.653,7.915,6.438,25,4.943,38.08,5.163V514.9H371.01V499.411c23.34.9,40.941.9,43.245-21.3,1.763-17.024,0-34.366,0-52.279V321.911c0-16.2,1.938-39.983-3.229-48.411-6-9.783-26.481-7.5-40.016-7.744V250.264c33.386,1.118,62.593-1.947,88.423-8.391Z" transform="translate(962.806 -112.644)" fill="#161615"></path><path id="Path_1159" data-name="Path 1159" d="M544.892,242.448c60.591-4.973,95.037,27.648,113.6,67.128a155.908,155.908,0,0,1,13.554,46.473c9.736,74.687-20.827,139.11-76.168,160.073-36.206,13.717-72.652,6.581-98.1-8.389-48.505-28.526-74.25-98.324-54.868-172.339,10.388-39.651,34.27-74.342,74.232-87.783,7.513-2.526,16.9-4.273,27.752-5.163Zm-38.08,38.082c-14.805,20.719-18.718,53.895-18.718,98.11,0,34.55,2.231,78.23,16.135,101.337,12.733,21.163,45.112,36.172,76.164,23.237C616.83,488.032,621.7,439.457,621.7,385.1c0-65.783-5.306-134.526-74.23-127.156-20.8,2.224-32.769,11.544-40.66,22.591Z" transform="translate(1027.095 -112.572)" fill="#161615"></path></g></g></svg>