<svg xmlns:xlink="http://www.w3.org/1999/xlink"  xmlns="http://www.w3.org/2000/svg" viewBox="0 0 180.7 286.7" class="Pov"><path d="M141 10v7h2.6c2 0 3.8 1 5.1 2.5 2.7 3 4 9.1 3.3 16L136 199 115 17h8v-7H82.3L87 51.1 73.7 198.7 51.9 10H11v7h9.9l30.2 259h23.5L91.5 88.9 113.3 276h23.5l22.1-241.1c1.1-11.3 4.6-17.9 9.6-17.9h1.5v-7h-29z"/><path d="M134 2v23h8.6c.8 0 1 .6 1 .6.5.5 1.5 2.8.8 10.7l-9.1 92.5-12-103.8h6.7V2H73.9l5.6 49.7-6.8 75.5L58 2H3v23h11.4l30 259H81l11.2-124 14.5 124h36.6L166 37.8c1-10.4 2.5-12.1 2.8-12.4.1-.1.3-.4.6-.4h8.7V2H134zm41 20h-5.3c-1.8 0-2.7 1.2-2.7 1.2-.7.6-2.8 2.3-4 14.3L140.5 281h-31.2L91.8 130.9 78.2 281H47L17 22H6V5h49.3L73 156.3l9.5-104.9L77.2 5H127v17h-7l.4 3.7 12 103.7 3.2 28 2.7-27.9 9.1-92.7c.8-9.1-.5-12-1.5-13.2-.8-.8-1.8-1.6-3.3-1.6H137V5h38v17z"/></svg>