<?xml version="1.0" standalone="no"?>
<!DOCTYPE svg PUBLIC "-//W3C//DTD SVG 20010904//EN"
 "http://www.w3.org/TR/2001/REC-SVG-20010904/DTD/svg10.dtd">
<svg version="1.0" xmlns="http://www.w3.org/2000/svg"
 width="400.000000pt" height="140.000000pt" viewBox="0 0 400.000000 140.000000"
 preserveAspectRatio="xMidYMid meet">

<g transform="translate(0.000000,140.000000) scale(0.100000,-0.100000)"
fill="#000000" stroke="none">
<path d="M250 950 c-69 -10 -126 -18 -128 -19 -1 0 4 -14 13 -31 8 -16 15 -33
15 -38 0 -5 -34 -15 -75 -21 l-74 -12 23 -52 c75 -166 64 -150 104 -143 21 3
55 9 78 12 l40 6 50 -106 c39 -84 53 -106 69 -106 12 0 75 7 140 15 66 8 123
15 128 15 4 0 -9 32 -28 70 -19 39 -33 70 -29 70 3 0 50 -39 105 -87 l100 -86
77 18 c103 24 166 48 236 90 l58 35 81 -70 c44 -39 87 -70 94 -70 8 0 51 9 96
21 118 30 218 79 280 138 l54 51 59 -36 c32 -19 91 -67 130 -106 l72 -70 104
34 104 35 67 -39 66 -40 75 40 76 39 0 -28 0 -29 111 0 c128 0 185 12 222 46
14 13 28 24 31 24 3 0 26 -18 52 -41 43 -37 50 -40 88 -34 68 11 218 64 269
95 l47 29 76 -66 75 -65 62 12 c151 29 296 103 361 184 40 50 52 72 76 141
l19 54 -52 15 c-29 8 -80 22 -114 31 -34 8 -69 18 -78 21 -10 4 -18 -3 -25
-20 l-9 -26 -66 50 c-36 28 -72 50 -80 50 -7 0 -34 -9 -58 -19 -44 -19 -45
-19 -50 0 -5 18 -15 19 -146 19 l-141 0 0 -24 0 -23 -97 23 c-54 13 -103 24
-110 24 -6 0 -20 -14 -30 -30 -22 -38 -33 -38 -33 0 l0 30 -774 0 -774 0 -31
-55 c-37 -66 -36 -65 -185 -25 -61 16 -110 29 -111 27 -1 -1 -5 -12 -11 -24
-9 -21 -11 -20 -74 28 -36 27 -70 49 -77 49 -6 0 -32 -9 -58 -20 -56 -24 -75
-25 -75 -5 0 20 -21 19 -160 -5 -63 -11 -122 -20 -130 -20 -9 0 -22 15 -29 35
-8 22 -18 35 -29 34 -9 -1 -73 -9 -142 -19z m143 -75 c14 -29 21 -34 39 -30
94 21 264 43 272 35 12 -12 20 -102 12 -135 -4 -14 -22 -43 -42 -64 l-35 -39
-62 25 c-75 30 -82 36 -62 53 25 21 17 32 -17 25 -18 -4 -34 -9 -36 -10 -2 -2
19 -51 47 -110 28 -60 51 -109 51 -110 0 -2 -28 -6 -62 -10 -35 -3 -75 -8 -90
-11 -26 -5 -30 0 -80 103 -29 59 -54 110 -55 111 -1 4 -99 -14 -134 -24 -11
-3 -23 11 -39 46 -13 27 -21 52 -18 55 3 4 36 11 73 17 61 10 66 13 60 32 -17
52 -12 61 35 67 25 3 63 7 86 7 37 2 42 -1 57 -33z m567 -45 c30 -26 42 -42
35 -48 -5 -6 -39 -22 -74 -36 l-64 -26 -61 57 c-33 31 -62 59 -64 62 -1 3 28
18 65 32 77 30 81 30 163 -41z m740 35 c0 -34 -1 -35 -40 -35 -39 0 -40 1 -40
35 0 34 1 35 40 35 39 0 40 -1 40 -35z m100 0 c0 -35 0 -35 -45 -35 -43 0 -45
1 -45 28 0 37 6 42 52 42 37 0 38 -1 38 -35z m515 -2 c-14 -74 -63 -139 -156
-208 l-57 -42 34 -27 c19 -15 34 -31 34 -37 0 -10 -32 -24 -97 -42 l-41 -11
-61 60 c-33 33 -89 77 -125 98 -37 21 -66 42 -66 46 0 4 28 19 62 33 l62 27
52 -34 52 -35 50 39 c85 68 83 70 -88 70 l-150 0 0 50 0 50 251 0 251 0 -7
-37z m303 -5 l3 -38 121 0 121 0 -6 -110 c-9 -178 -32 -203 -193 -208 l-104
-4 0 51 0 51 55 0 c63 0 75 13 75 79 0 41 0 41 -39 41 -37 0 -40 -2 -65 -55
-15 -30 -43 -68 -63 -84 -38 -32 -144 -91 -161 -91 -6 0 -38 16 -72 36 l-61
37 69 33 c63 31 132 90 132 114 0 6 -25 10 -55 10 l-55 0 0 50 0 50 66 0 66 0
-2 33 c-1 17 -2 36 -1 40 1 4 38 7 84 5 l82 -3 3 -37z m142 7 c0 -34 -1 -35
-40 -35 -39 0 -40 1 -40 35 0 34 1 35 40 35 39 0 40 -1 40 -35z m100 0 c0 -34
-1 -35 -40 -35 -39 0 -40 1 -40 35 0 34 1 35 40 35 39 0 40 -1 40 -35z m284
-6 c38 -10 71 -21 74 -23 5 -6 -15 -39 -47 -75 -11 -13 -21 -27 -21 -30 -1 -3
-9 -17 -20 -29 l-20 -24 -107 28 c-60 15 -112 31 -117 35 -13 11 35 69 58 69
16 0 18 2 7 9 -11 7 -9 16 13 44 30 39 19 39 180 -4z m166 6 c0 -34 -1 -35
-40 -35 -39 0 -40 1 -40 35 0 34 1 35 40 35 39 0 40 -1 40 -35z m100 0 c0 -34
-1 -35 -40 -35 -39 0 -40 1 -40 35 0 34 1 35 40 35 39 0 40 -1 40 -35z m228
-16 c35 -28 61 -56 59 -62 -2 -6 -34 -24 -71 -39 l-69 -28 -56 53 c-31 28 -58
57 -60 62 -2 8 103 60 129 64 3 1 34 -22 68 -50z m-2078 26 c0 -8 9 -15 20
-15 13 0 20 -7 20 -20 0 -18 7 -20 85 -20 99 0 100 -1 58 -86 -49 -100 -145
-171 -288 -212 -122 -36 -116 -36 -173 12 l-51 44 67 15 c112 25 181 56 228
101 24 24 44 48 44 54 0 7 -16 12 -39 12 -29 0 -55 -11 -105 -45 -37 -25 -74
-45 -81 -45 -16 0 -115 60 -115 70 0 4 12 12 26 19 45 20 90 60 110 96 l19 35
87 0 c72 0 88 -3 88 -15z m-397 -60 c37 -10 67 -22 67 -27 0 -23 -53 -108 -90
-146 -52 -52 -159 -106 -264 -132 l-78 -20 -50 41 c-27 23 -47 43 -45 46 3 2
41 13 86 23 143 35 233 98 261 186 17 51 20 56 34 51 6 -2 41 -12 79 -22z
m2705 -1 c60 -16 63 -18 57 -43 -10 -41 -64 -118 -104 -150 -56 -44 -150 -88
-240 -111 l-82 -21 -49 42 c-28 23 -48 44 -46 47 3 2 35 11 72 18 146 31 241
98 279 197 13 34 22 46 34 43 9 -3 44 -12 79 -22z m-511 -20 c34 -9 63 -19 63
-23 0 -3 -13 -29 -30 -57 -54 -95 -161 -164 -318 -204 l-83 -21 -49 43 c-56
48 -59 45 51 71 133 32 213 87 250 174 15 34 23 44 36 39 9 -4 45 -14 80 -22z"/>
<path d="M2978 803 c7 -3 16 -2 19 1 4 3 -2 6 -13 5 -11 0 -14 -3 -6 -6z"/>
<path d="M3018 793 c7 -3 16 -2 19 1 4 3 -2 6 -13 5 -11 0 -14 -3 -6 -6z"/>
<path d="M3058 783 c7 -3 16 -2 19 1 4 3 -2 6 -13 5 -11 0 -14 -3 -6 -6z"/>
<path d="M3098 773 c7 -3 16 -2 19 1 4 3 -2 6 -13 5 -11 0 -14 -3 -6 -6z"/>
</g>
</svg>
